<?xml version="1.0" standalone="no"?>
<!DOCTYPE svg PUBLIC "-//W3C//DTD SVG 20010904//EN"
 "http://www.w3.org/TR/2001/REC-SVG-20010904/DTD/svg10.dtd">
<svg version="1.0" xmlns="http://www.w3.org/2000/svg"
 width="194.000000pt" height="259.000000pt" viewBox="0 0 194.000000 259.000000"
 preserveAspectRatio="xMidYMid meet">

<g transform="translate(0.000000,259.000000) scale(0.100000,-0.100000)"
fill="#000000" stroke="none">
<path d="M1040 2420 c-25 -3 -61 -13 -80 -22 -45 -19 -151 -133 -191 -203 -18
-32 -35 -52 -42 -48 -7 4 -8 0 -4 -11 4 -9 -1 -32 -10 -49 -15 -29 -17 -30
-25 -12 -6 16 -7 13 -4 -10 2 -16 -2 -41 -10 -55 l-14 -25 6 29 7 29 -49 -34
c-26 -19 -53 -37 -59 -41 -6 -5 -5 -11 4 -17 10 -7 5 -17 -25 -49 -60 -61 -64
-68 -64 -112 0 -28 -4 -40 -15 -40 -8 0 -22 -16 -31 -35 -9 -19 -20 -35 -25
-35 -5 0 -9 -9 -9 -20 0 -13 -10 -24 -25 -30 -14 -5 -25 -14 -25 -20 0 -5 -10
-10 -23 -10 -13 0 -32 -6 -42 -14 -10 -7 -26 -11 -35 -9 -9 2 -22 -3 -29 -11
-8 -9 -24 -16 -37 -16 -21 0 -24 -5 -24 -34 0 -31 -4 -36 -36 -46 -21 -7 -39
-9 -43 -3 -3 5 -12 8 -18 7 -7 -1 -24 -2 -38 -3 l-25 -1 0 -111 0 -111 24 6
c13 3 31 9 40 12 12 4 16 0 16 -16 0 -12 14 -41 31 -65 18 -25 28 -48 24 -55
-5 -7 4 -21 20 -35 l28 -22 -31 -14 c-35 -15 -25 -29 21 -29 15 0 27 -4 27 -9
0 -15 -74 -69 -139 -101 l-61 -31 0 -444 0 -445 824 0 c777 0 825 1 829 18 4
15 5 15 6 0 1 -14 19 -16 141 -17 l140 -2 0 256 c0 163 -4 255 -10 255 -5 0
-10 -16 -10 -36 0 -28 -7 -44 -30 -65 -16 -16 -34 -29 -40 -29 -5 0 -10 -4
-10 -10 0 -17 -41 -58 -71 -70 -16 -7 -29 -16 -29 -21 0 -5 -4 -9 -10 -9 -13
0 -50 -37 -50 -50 0 -6 -15 -10 -34 -10 -19 0 -41 -3 -50 -6 -12 -4 -16 0 -16
16 0 11 4 18 10 15 6 -3 7 1 4 9 -8 22 -24 20 -24 -3 0 -10 -6 -24 -14 -30
-10 -8 -12 -25 -9 -54 3 -23 2 -39 -3 -34 -11 11 -15 97 -4 97 6 0 10 4 10 10
0 5 -7 7 -15 4 -20 -8 -19 2 4 35 12 17 18 36 14 49 -3 15 -1 22 8 22 9 0 10
3 4 8 -5 4 -10 18 -11 32 0 14 -3 42 -7 62 -8 37 -7 38 17 29 20 -8 25 -6 29
9 4 14 1 17 -12 13 -9 -4 -13 -2 -9 2 5 5 -5 16 -21 26 -30 18 -41 54 -41 135
0 54 -14 65 -66 52 -22 -6 -56 -8 -77 -4 -34 6 -37 10 -43 47 -10 59 -23 57
-21 -4 2 -34 10 -66 26 -92 19 -33 20 -41 9 -50 -14 -10 -11 -84 8 -173 6 -31
5 -32 -25 -32 -17 0 -31 -4 -31 -10 0 -5 9 -10 20 -10 24 0 35 -22 25 -48 -9
-23 -6 -28 12 -24 12 3 14 -1 8 -15 -25 -63 -28 -76 -16 -94 10 -18 7 -19 -37
-19 -132 0 -411 111 -385 153 4 6 1 7 -6 2 -20 -12 -61 34 -61 68 0 25 -2 27
-15 17 -12 -10 -13 -7 -4 22 5 18 9 60 8 93 -1 33 1 67 4 75 15 42 16 50 7 50
-6 0 -10 25 -10 55 0 40 4 55 14 55 7 0 16 9 19 20 4 15 -2 24 -21 35 -21 12
-23 15 -7 13 11 -2 23 -7 27 -13 5 -6 8 -5 8 3 0 6 7 12 15 12 17 0 20 22 5
48 -11 18 -48 122 -56 157 -4 17 12 29 96 73 55 29 100 59 100 66 0 8 -20 20
-45 27 -43 13 -57 30 -35 44 24 15 9 55 -35 97 l-46 42 23 18 c13 10 57 32 98
49 105 44 193 105 187 130 -3 10 -1 19 4 19 5 0 9 -8 9 -17 1 -15 4 -14 21 7
12 14 23 24 25 23 14 -10 31 0 28 15 -5 18 36 120 66 162 14 19 17 41 15 100
-2 79 -13 117 -39 139 -9 7 -16 21 -17 30 0 9 -6 0 -13 -19 -8 -19 -12 -38 -9
-42 2 -4 -10 -3 -26 2 -16 4 -32 5 -36 2 -3 -3 -19 -7 -35 -8 -24 -2 -30 3
-39 28 -6 17 -11 58 -10 92 0 51 2 57 11 39 11 -23 28 -31 28 -14 0 22 -21 62
-29 57 -5 -3 -11 10 -13 29 -2 19 -2 35 -1 35 2 0 15 -12 28 -26 17 -18 25
-39 25 -61 0 -21 4 -32 10 -28 6 4 17 1 25 -5 15 -12 45 -7 45 7 0 4 -5 15
-10 23 -9 13 -11 13 -20 0 -5 -8 -10 -10 -10 -4 0 6 7 18 16 25 14 11 19 10
34 -9 10 -12 20 -28 23 -35 2 -6 8 -8 13 -4 5 4 4 11 -2 15 -5 4 -11 21 -12
37 -1 22 1 26 8 15 5 -8 12 -12 15 -8 4 3 -1 18 -10 32 -16 24 -14 31 8 27 16
-3 -15 41 -64 89 l-50 49 -67 -6 c-37 -3 -78 -12 -92 -20 -14 -8 -17 -12 -8
-9 10 3 20 1 23 -4 4 -6 -1 -10 -9 -10 -8 0 -18 -5 -22 -12 -4 -6 -3 -8 3 -5
6 4 23 -9 38 -29 22 -29 25 -38 14 -45 -9 -6 -10 -9 -2 -9 8 0 10 -14 8 -40
-3 -36 -2 -38 11 -25 9 8 17 15 20 15 2 0 4 -30 4 -66 0 -55 -3 -65 -15 -60
-44 18 -51 18 -30 2 24 -21 47 -106 33 -123 -7 -9 -7 -13 1 -13 6 0 11 6 11
13 1 7 6 5 14 -6 10 -13 15 -15 19 -5 3 9 10 6 22 -10 10 -13 23 -21 32 -18 8
3 11 1 8 -4 -6 -9 8 -14 28 -11 11 2 9 -6 -14 -50 -27 -53 -93 -119 -145 -144
-25 -12 -40 -25 -37 -32 3 -7 0 -13 -6 -13 -6 0 -11 4 -11 8 0 5 -17 17 -37
26 -29 13 -47 33 -79 88 -40 71 -40 71 -27 121 20 77 45 122 71 125 12 2 22
-2 22 -8 0 -17 52 -33 72 -21 12 7 18 7 22 -2 3 -7 5 -3 3 8 -1 12 -18 28 -44
41 -23 12 -39 24 -36 28 4 3 0 6 -8 6 -8 0 -20 -5 -27 -12 -9 -9 -12 -8 -12 4
0 32 -21 29 -55 -5 -45 -45 -44 -31 1 41 l35 57 -35 -39 c-20 -21 -36 -42 -36
-46 0 -4 -11 -6 -25 -5 -21 3 -25 -1 -26 -23 -1 -15 -5 -38 -10 -52 -6 -18 -7
-7 -4 36 5 65 55 189 86 212 10 7 16 19 13 26 -3 9 1 13 12 13 9 -1 19 4 22
12 3 8 0 11 -7 7 -22 -14 -10 13 15 33 14 11 25 23 26 28 1 13 58 33 97 33 20
0 43 5 51 10 18 11 2 12 -70 0z m78 -172 c2 -9 -3 -18 -11 -21 -11 -4 -14 1
-13 19 1 26 19 27 24 2z m91 -53 c0 -5 -4 -3 -9 5 -5 8 -9 22 -9 30 0 16 17
-16 18 -35z m51 -210 c6 -3 10 -13 10 -22 0 -11 -5 -13 -17 -8 -10 4 -28 10
-40 12 -36 8 -29 32 7 28 17 -2 35 -7 40 -10z m-433 -57 c-3 -8 -6 -5 -6 6 -1
11 2 17 5 13 3 -3 4 -12 1 -19z m-30 -20 c-3 -8 -6 -5 -6 6 -1 11 2 17 5 13 3
-3 4 -12 1 -19z m61 -10 c16 -16 15 -28 -3 -28 -8 0 -15 2 -15 4 0 2 -3 11 -6
20 -7 19 7 21 24 4z m-17 -73 c3 3 11 -7 17 -22 11 -25 8 -23 -23 11 -19 22
-35 46 -35 55 1 9 9 1 18 -17 10 -18 20 -30 23 -27z m429 0 c-13 -14 -26 -23
-28 -20 -7 7 29 45 41 45 6 0 0 -11 -13 -25z m-450 -35 c0 -5 -2 -10 -4 -10
-3 0 -8 5 -11 10 -3 6 -1 10 4 10 6 0 11 -4 11 -10z m457 -11 c14 -14 6 -39
-11 -33 -7 3 -18 -7 -24 -21 -6 -14 -17 -25 -24 -24 -10 0 -10 2 0 6 6 2 10 9
6 14 -3 5 0 9 6 9 6 0 10 8 8 18 -3 18 9 42 21 42 4 0 12 -5 18 -11z m-437
-23 c0 -3 -4 -8 -10 -11 -5 -3 -10 -1 -10 4 0 6 5 11 10 11 6 0 10 -2 10 -4z
m-25 -47 c-6 -33 -15 -36 -15 -6 0 15 4 27 9 27 6 0 8 -10 6 -21z m130 -19 c3
-5 -1 -10 -9 -10 -9 0 -16 5 -16 10 0 6 4 10 9 10 6 0 13 -4 16 -10z m255 -20
c0 -5 -5 -10 -11 -10 -5 0 -7 5 -4 10 3 6 8 10 11 10 2 0 4 -4 4 -10z m0 -40
c0 -5 -5 -10 -11 -10 -5 0 -7 5 -4 10 3 6 8 10 11 10 2 0 4 -4 4 -10z m-490
-35 c0 -3 -18 -47 -40 -99 -22 -51 -43 -114 -46 -138 l-6 -45 -57 -2 c-38 -1
-63 -8 -76 -20 -27 -25 -56 -39 -92 -45 -23 -5 -35 0 -55 22 -21 22 -27 40
-32 97 l-6 70 42 30 c140 100 177 118 246 122 37 3 69 6 71 9 6 6 51 5 51 -1z
m-540 -135 c0 -5 -2 -10 -4 -10 -3 0 -8 5 -11 10 -3 6 -1 10 4 10 6 0 11 -4
11 -10z m91 -153 c-8 -8 -16 -7 -27 5 -12 12 -13 17 -3 23 8 5 10 4 5 -3 -4
-7 -2 -12 4 -12 6 0 10 8 9 18 -3 38 3 45 13 13 6 -23 6 -37 -1 -44z m469 22
c0 -5 0 -11 0 -14 0 -3 10 -26 21 -52 21 -50 13 -76 -15 -48 -12 13 -14 21 -5
37 6 11 8 22 5 26 -3 3 -6 -1 -6 -9 0 -12 -2 -11 -11 1 -8 12 -9 10 -4 -7 4
-14 2 -23 -4 -23 -6 0 -11 7 -11 15 0 8 -6 15 -12 15 -8 1 -6 6 5 14 10 8 14
17 8 20 -5 3 -11 0 -14 -6 -3 -10 -7 -10 -20 1 -18 14 -24 36 -7 26 6 -3 10
-2 10 2 0 5 14 9 30 9 17 1 30 -2 30 -7z m-448 -169 c4 0 8 -4 8 -10 0 -5 -7
-10 -15 -10 -18 0 -35 38 -27 60 5 11 9 7 16 -12 5 -16 13 -28 18 -28z m2 -65
c6 -17 -10 -30 -19 -15 -3 5 -11 10 -18 10 -8 0 -8 -3 1 -12 7 -7 12 -16 12
-22 0 -5 -6 -1 -14 9 -10 14 -11 25 -5 37 10 19 34 15 43 -7z m391 -13 c-2 -2
5 -12 16 -23 10 -10 19 -26 19 -34 0 -25 -45 2 -57 35 -9 25 -9 28 8 27 10 -1
16 -3 14 -5z m11 -106 c8 -3 21 -3 26 1 7 3 8 1 4 -6 -4 -6 -2 -18 4 -26 6 -8
10 -22 8 -31 -3 -15 -9 -13 -39 14 -20 18 -39 44 -41 60 -3 15 -8 36 -12 47
-4 11 2 4 13 -16 11 -20 28 -39 37 -43z m-60 -347 c-2 -17 -8 -35 -14 -41 -12
-12 -10 24 3 55 11 26 15 21 11 -14z m55 -190 l-10 -24 0 26 c-1 14 2 29 6 33
12 12 14 -9 4 -35z m140 -99 c-7 -36 -9 -39 -10 -15 -1 33 11 85 16 70 1 -6
-1 -30 -6 -55z m-22 -129 c-7 -39 -14 -69 -17 -67 -2 3 2 37 9 75 7 39 14 69
17 67 2 -3 -2 -37 -9 -75z m-282 37 c-3 -8 -6 -5 -6 6 -1 11 2 17 5 13 3 -3 4
-12 1 -19z m1263 7 c-7 -9 -15 -13 -17 -11 -7 7 7 26 19 26 6 0 6 -6 -2 -15z
m-1215 -115 c10 -11 13 -20 7 -20 -21 0 -42 44 -41 85 l2 40 6 -42 c4 -23 16
-51 26 -63z m-55 56 c0 -33 -45 -104 -57 -92 -3 3 6 19 21 36 15 18 26 44 26
61 0 16 2 29 5 29 3 0 5 -15 5 -34z m1074 -15 c3 -4 -1 -17 -8 -27 -13 -17
-14 -17 -13 9 2 27 11 35 21 18z m7 -63 c-5 -14 -16 -25 -24 -25 -13 0 -11 6
6 27 26 32 31 32 18 -2z m-1086 -25 c-5 -58 -6 -60 -16 -34 -8 20 -11 22 -26
10 -9 -8 -4 3 12 23 17 21 31 38 32 38 1 0 0 -17 -2 -37z m46 14 c14 -20 14
-23 -3 -39 -17 -17 -18 -17 -28 2 -9 16 -8 18 5 14 13 -5 14 -2 5 20 -12 32
-1 33 21 3z m226 -59 c-15 -9 -15 -10 -9 42 l6 45 7 -40 c4 -26 3 -42 -4 -47z
m856 -25 c-7 -2 -19 -2 -25 0 -7 3 -2 5 12 5 14 0 19 -2 13 -5z"/>
<path d="M585 1330 c3 -5 8 -10 11 -10 2 0 4 5 4 10 0 6 -5 10 -11 10 -5 0 -7
-4 -4 -10z"/>
<path d="M990 2325 c-11 -13 -10 -14 4 -9 9 3 16 10 16 15 0 13 -6 11 -20 -6z"/>
<path d="M1330 2265 c0 -5 5 -17 10 -25 5 -8 10 -10 10 -5 0 6 -5 17 -10 25
-5 8 -10 11 -10 5z"/>
<path d="M1050 2164 c0 -8 5 -12 10 -9 6 4 8 11 5 16 -9 14 -15 11 -15 -7z"/>
<path d="M641 2064 c0 -11 3 -14 6 -6 3 7 2 16 -1 19 -3 4 -6 -2 -5 -13z"/>
<path d="M1352 2015 c0 -16 2 -22 5 -12 2 9 2 23 0 30 -3 6 -5 -1 -5 -18z"/>
<path d="M1068 1868 c6 -6 22 -13 34 -15 22 -3 22 -2 -2 12 -30 17 -48 19 -32
3z"/>
<path d="M1024 1795 c40 -27 89 -34 80 -12 -6 15 -60 37 -94 37 -20 0 -19 -3
14 -25z"/>
<path d="M1250 1581 c0 -4 7 -27 15 -52 9 -24 22 -74 29 -109 9 -42 15 -54 15
-35 2 44 15 62 35 46 21 -17 20 -12 -4 46 -18 42 -90 125 -90 104z"/>
<path d="M1447 1205 c-4 -8 -2 -17 3 -20 6 -4 10 3 10 14 0 25 -6 27 -13 6z"/>
<path d="M1430 1155 c-8 -9 -8 -15 -2 -15 12 0 26 19 19 26 -2 2 -10 -2 -17
-11z"/>
<path d="M1033 1020 c0 -47 2 -66 4 -42 2 23 2 61 0 85 -2 23 -4 4 -4 -43z"/>
<path d="M1498 1033 c-10 -12 -17 -46 -20 -95 -3 -43 -4 -78 -2 -78 13 0 42
78 47 128 7 64 1 74 -25 45z"/>
<path d="M0 965 l0 -66 30 16 c23 12 30 22 30 46 0 41 -16 69 -40 69 -18 0
-20 -7 -20 -65z"/>
<path d="M1032 905 c0 -16 2 -22 5 -12 2 9 2 23 0 30 -3 6 -5 -1 -5 -18z"/>
<path d="M1128 803 c-10 -3 -18 -9 -18 -14 0 -5 -8 -9 -17 -9 -13 0 -14 -3 -5
-12 18 -18 15 -36 -8 -43 -30 -10 -47 5 -25 22 11 7 13 13 6 13 -7 0 -9 5 -6
10 3 6 0 10 -9 10 -8 0 -16 3 -19 8 -2 4 -2 1 0 -7 2 -7 -5 -20 -14 -27 -17
-13 -17 -14 2 -7 18 6 18 5 6 -10 -7 -9 -9 -17 -5 -17 5 0 14 -10 19 -22 6
-14 23 -25 42 -29 18 -3 30 -3 27 2 -2 5 7 11 21 15 28 7 55 39 55 65 0 25
-32 57 -52 52z m32 -28 c0 -19 -26 -55 -37 -51 -8 3 -13 -2 -13 -14 0 -10 -4
-22 -10 -25 -20 -12 -9 29 16 62 22 28 44 43 44 28z"/>
<path d="M886 784 c-4 -9 -4 -19 -1 -22 3 -3 5 0 5 7 0 9 8 11 25 7 72 -17 79
-17 36 3 -52 25 -57 26 -65 5z"/>
<path d="M923 695 c0 -22 2 -30 4 -17 2 12 2 30 0 40 -3 9 -5 -1 -4 -23z"/>
<path d="M1085 639 c4 -6 -2 -13 -14 -16 -17 -4 -19 -8 -10 -19 12 -15 5 -44
-11 -44 -5 0 -10 10 -10 23 0 31 -13 48 -29 38 -7 -5 -10 -14 -7 -20 4 -6 2
-11 -4 -11 -6 0 -8 -4 -5 -10 3 -6 -1 -7 -10 -4 -11 5 -13 10 -5 19 9 10 7 12
-8 8 -11 -2 -37 5 -58 16 -43 23 -54 26 -54 11 0 -5 11 -12 25 -16 13 -3 29
-12 36 -20 6 -8 15 -12 19 -9 4 2 29 -16 55 -41 37 -34 54 -44 69 -39 12 3 26
7 33 9 27 5 53 40 53 71 0 32 -20 61 -33 48 -4 -3 -7 -1 -7 5 0 7 -7 12 -16
12 -8 0 -12 -5 -9 -11z m45 -28 c0 -5 -5 -22 -10 -36 -9 -23 -13 -25 -26 -14
-13 11 -15 10 -14 -2 4 -27 0 -37 -15 -35 -8 1 -18 6 -22 11 -4 4 -3 5 4 1 7
-3 14 2 18 13 13 41 65 91 65 62z"/>
<path d="M1570 425 c0 -8 2 -15 4 -15 2 0 6 7 10 15 3 8 1 15 -4 15 -6 0 -10
-7 -10 -15z"/>
<path d="M1080 311 c0 -5 9 -13 20 -16 11 -3 20 -10 20 -15 0 -4 7 -11 16 -14
8 -3 12 -2 9 4 -3 6 1 10 9 10 9 0 16 -5 16 -11 0 -5 4 -8 9 -5 5 3 11 -1 14
-9 4 -9 19 -13 46 -12 23 1 35 4 28 9 -8 5 -6 8 6 8 10 0 21 10 26 23 11 27 6
34 -14 17 -16 -14 -144 -6 -176 10 -22 12 -29 13 -29 1z m145 -51 c3 -5 1 -10
-4 -10 -6 0 -11 5 -11 10 0 6 2 10 4 10 3 0 8 -4 11 -10z"/>
<path d="M1581 299 c-1 -9 -8 -19 -16 -23 -8 -3 -15 -10 -15 -16 0 -6 9 -2 21
9 12 11 19 25 16 33 -4 9 -6 8 -6 -3z"/>
<path d="M1048 253 c12 -2 32 -2 45 0 12 2 2 4 -23 4 -25 0 -35 -2 -22 -4z"/>
<path d="M1175 237 c-4 -10 -5 -21 -1 -24 10 -10 18 4 13 24 -4 17 -4 17 -12
0z"/>
</g>
</svg>
