<?xml version="1.0" standalone="no"?>
<!DOCTYPE svg PUBLIC "-//W3C//DTD SVG 20010904//EN"
 "http://www.w3.org/TR/2001/REC-SVG-20010904/DTD/svg10.dtd">
<svg version="1.0" xmlns="http://www.w3.org/2000/svg"
 width="736.000000pt" height="920.000000pt" viewBox="0 0 736.000000 920.000000"
 preserveAspectRatio="xMidYMid meet">

<g transform="translate(0.000000,920.000000) scale(0.100000,-0.100000)"
fill="#000000" stroke="none">
<path d="M1288 9188 c8 -8 20 -8 44 -1 l33 11 -44 1 c-34 1 -42 -2 -33 -11z"/>
<path d="M2189 9188 c0 -7 -2 -23 -5 -34 -4 -24 11 -32 99 -54 52 -14 97 -44
97 -64 0 -8 18 -15 48 -19 26 -3 65 -15 88 -26 22 -11 52 -23 67 -26 23 -6 27
-4 27 13 0 24 28 38 36 17 9 -22 23 -18 45 9 11 14 29 28 40 31 l21 7 -21 19
c-24 23 -53 26 -45 4 4 -10 0 -15 -11 -15 -9 0 -13 -4 -10 -10 6 -9 -18 -15
-40 -10 -5 1 -19 3 -30 5 -11 1 -23 3 -26 4 -10 2 -39 84 -39 108 0 53 0 53
-176 53 -124 0 -164 -3 -165 -12z"/>
<path d="M3155 9171 c-8 -35 -87 -164 -129 -211 -18 -19 -39 -48 -47 -65 -7
-16 -22 -36 -31 -43 -43 -32 -1 -72 73 -72 15 0 31 -5 34 -10 8 -13 72 -40 95
-40 10 0 20 -6 22 -12 3 -9 10 -8 22 5 10 10 16 21 13 24 -11 10 22 62 53 85
36 26 37 34 8 41 l-23 6 22 21 c12 11 27 20 33 20 5 0 10 8 10 17 0 15 3 14
23 -5 l22 -23 -25 -21 c-18 -15 -20 -19 -6 -15 11 5 31 -1 52 -14 19 -11 41
-19 48 -16 15 6 29 47 16 47 -12 0 -40 29 -40 41 0 5 18 9 41 9 24 0 38 4 34
10 -3 6 3 10 14 10 26 0 26 1 -1 46 l-22 37 27 -7 c24 -6 26 -4 18 16 -5 13
-14 22 -20 21 -6 -2 -11 4 -11 12 0 8 -4 15 -10 15 -5 0 -10 -5 -10 -11 0 -8
-5 -8 -15 1 -12 10 -21 9 -48 -3 -28 -14 -32 -14 -35 -2 -2 8 -10 15 -17 15
-23 0 -84 40 -90 60 -7 21 -39 35 -55 25 -5 -3 -10 -1 -10 4 0 24 -29 9 -35
-18z"/>
<path d="M3550 9180 c0 -23 17 -25 43 -6 25 19 21 26 -13 26 -23 0 -30 -4 -30
-20z"/>
<path d="M4072 9175 c-16 -35 -15 -90 2 -104 8 -7 29 -14 48 -17 30 -4 36 0
60 36 15 22 23 40 18 40 -6 0 -10 11 -10 25 0 29 -26 45 -73 45 -27 0 -36 -5
-45 -25z"/>
<path d="M1477 9174 c-4 -4 -7 -17 -7 -29 0 -14 -12 -28 -37 -43 -21 -11 -63
-44 -95 -71 -31 -28 -63 -51 -72 -51 -21 0 -20 -17 1 -28 18 -11 21 -69 3
-101 -13 -26 -13 -31 5 -31 8 0 19 9 25 20 6 10 26 36 45 57 19 21 35 41 35
46 0 4 5 7 10 7 19 0 49 37 38 48 -7 7 0 13 25 17 52 10 101 64 99 111 -1 20
-3 39 -6 41 -8 8 -62 14 -69 7z"/>
<path d="M4480 9129 c-47 -28 -89 -54 -93 -58 -4 -4 -3 -20 3 -35 11 -30 3
-53 -31 -87 -23 -23 -25 -55 -4 -63 8 -3 15 -11 15 -18 0 -9 -3 -8 -10 2 -8
12 -10 11 -10 -7 0 -28 4 -28 41 -3 16 12 26 27 23 35 -4 10 0 13 15 10 13 -2
18 1 15 10 -4 9 3 13 20 11 16 0 25 -6 23 -15 -1 -8 3 -16 10 -18 6 -2 13 6
15 18 4 30 25 36 23 7 -1 -15 -12 -28 -31 -37 -16 -8 -37 -18 -47 -23 -10 -5
-27 -6 -38 -3 -16 5 -19 2 -16 -27 2 -26 7 -34 25 -36 22 -3 32 -32 10 -32 -6
0 -4 -7 5 -18 22 -24 21 -48 0 -62 -17 -11 -17 -11 0 -6 20 6 23 -8 4 -26 -11
-10 -11 -15 2 -30 27 -32 38 -22 34 30 -6 59 9 99 42 114 37 16 43 1 12 -28
-15 -14 -27 -30 -27 -36 0 -6 17 -26 38 -44 20 -19 30 -32 22 -29 -43 14 -54
-50 -13 -71 13 -6 20 -13 17 -17 -3 -3 4 -10 15 -17 20 -10 29 -1 14 14 -10 9
-13 36 -4 36 13 0 51 77 51 104 0 30 -18 65 -42 84 -17 12 -17 15 -2 43 9 17
31 37 50 45 l36 15 46 -46 47 -45 82 0 c104 0 151 -18 221 -84 61 -58 77 -99
68 -177 -13 -128 -14 -124 17 -127 19 -2 48 -23 84 -58 35 -35 60 -53 70 -50
8 3 23 6 34 6 12 0 19 6 17 14 -2 8 2 15 7 15 6 0 9 -7 7 -14 -1 -8 11 -24 28
-37 36 -26 59 -94 52 -152 -3 -26 0 -41 9 -47 10 -6 11 -9 2 -9 -8 0 -5 -8 7
-20 24 -24 27 -70 5 -70 -8 0 -22 15 -30 33 l-15 32 5 -45 c3 -24 11 -51 18
-59 16 -19 14 -22 -24 -38 -26 -11 -29 -15 -19 -28 7 -9 10 -18 6 -22 -3 -4
-13 2 -21 13 -16 22 -20 74 -5 74 6 0 10 7 10 15 0 22 -26 18 -43 -5 -13 -19
-16 -19 -30 -5 -9 8 -20 15 -26 15 -19 0 -12 16 12 27 14 7 30 7 37 3 22 -14
33 0 13 16 -10 7 -13 14 -8 14 15 0 -45 30 -61 30 -16 0 -19 17 -4 22 6 2 -8
4 -32 4 -31 1 -46 7 -56 23 -8 11 -22 21 -31 22 -10 0 -11 2 -3 6 32 13 4 43
-40 43 -11 0 -22 8 -25 19 -5 20 -53 48 -53 31 0 -19 -21 -10 -29 13 -10 24
-99 93 -108 83 -4 -4 -2 -11 5 -18 6 -6 8 -23 6 -38 -5 -22 0 -32 28 -53 22
-18 28 -27 16 -27 -15 0 -15 -4 -2 -47 8 -27 13 -56 10 -66 -3 -12 7 -31 24
-50 16 -18 57 -63 92 -102 79 -86 128 -163 128 -200 0 -15 18 -63 40 -107 32
-65 37 -82 28 -98 -9 -14 -8 -21 6 -35 15 -16 16 -19 1 -41 -15 -23 -14 -27 9
-67 13 -23 32 -67 41 -97 10 -30 28 -77 41 -105 12 -27 26 -72 29 -100 12 -89
36 -167 61 -200 13 -18 24 -35 24 -38 0 -19 62 -136 75 -141 10 -3 12 0 8 12
-5 13 0 12 19 -5 13 -13 29 -23 35 -23 11 0 29 -38 25 -52 -1 -5 2 -8 8 -8 5
0 7 -7 4 -14 -6 -15 -3 -19 41 -70 17 -20 25 -41 25 -66 0 -29 6 -41 30 -58
34 -26 42 -49 11 -32 -11 5 -22 10 -24 10 -12 0 4 -53 23 -81 19 -26 27 -30
52 -25 18 3 27 2 23 -4 -3 -6 -13 -10 -21 -10 -8 0 -14 -3 -14 -7 1 -8 57 -73
62 -73 2 0 4 12 4 26 2 32 4 34 47 41 60 9 92 -51 49 -90 -21 -19 -42 -22 -42
-6 0 6 -7 8 -16 5 -12 -5 -15 -2 -10 11 6 14 4 15 -5 6 -9 -9 -5 -20 17 -49
l29 -38 -32 22 c-18 13 -53 46 -79 75 -26 29 -40 41 -32 27 9 -14 37 -47 64
-74 45 -48 48 -69 5 -46 -26 13 -27 3 -3 -23 16 -19 16 -20 0 -14 -21 7 -21 6
-9 -27 7 -17 7 -26 -2 -29 -14 -5 21 -35 107 -91 77 -49 123 -69 131 -56 13
21 66 10 90 -17 13 -16 25 -33 25 -40 0 -7 17 -24 37 -38 33 -22 35 -25 15
-25 -21 0 -23 -3 -17 -29 8 -39 -9 -98 -37 -128 -21 -22 -22 -32 -20 -133 1
-65 -2 -111 -8 -115 -5 -3 -10 -17 -10 -31 0 -25 -15 -57 -39 -83 -8 -8 -20
-31 -28 -49 -13 -32 -12 -38 11 -86 13 -28 28 -63 31 -79 8 -30 24 -45 34 -30
3 6 26 21 51 33 42 21 49 22 105 11 87 -18 136 -45 165 -91 13 -22 30 -40 37
-40 14 0 73 -55 73 -67 0 -18 51 -62 65 -57 8 4 15 8 15 10 0 6 -50 97 -60
109 -5 6 -7 42 -5 81 5 63 9 81 31 139 4 11 6 40 5 65 -1 25 9 79 21 120 30
98 27 117 -20 126 -20 4 -49 15 -63 25 -31 22 -69 111 -50 117 7 2 24 14 37
26 21 18 24 25 16 47 -6 14 -23 34 -39 44 -29 19 -48 42 -48 60 0 6 -4 15 -8
21 -4 7 0 17 8 24 8 7 15 19 15 26 0 8 5 14 10 14 6 0 10 7 10 15 0 8 9 15 20
15 11 0 20 2 20 6 0 3 -18 32 -40 64 -22 32 -40 63 -40 67 0 28 -124 45 -211
28 -23 -4 -39 -3 -43 4 -4 6 -16 11 -26 11 -10 0 -20 5 -22 11 -2 6 -28 14
-57 17 -58 5 -64 12 -76 94 -5 36 -2 54 14 87 12 23 19 46 16 51 -3 6 -30 10
-59 10 -58 0 -93 25 -98 70 -3 23 1 25 47 27 67 4 205 24 233 34 29 11 29 33
-1 26 -25 -7 -41 1 -49 24 -4 9 -22 19 -41 23 -34 6 -46 22 -52 69 -2 14 5 17
36 17 21 0 41 5 44 10 3 6 2 10 -4 10 -6 0 -8 6 -5 14 5 13 -78 56 -110 56 -8
0 -17 4 -20 9 -3 5 -37 17 -76 26 -38 9 -70 21 -70 25 0 4 20 51 44 103 39 83
50 99 84 116 50 26 60 39 66 88 3 22 10 53 16 68 6 15 15 48 21 72 10 46 14
52 75 114 36 36 36 36 19 63 -9 14 -23 26 -30 26 -18 0 -26 42 -23 127 3 60 0
76 -19 101 -17 23 -20 38 -16 71 5 40 4 44 -37 79 -24 20 -65 58 -92 85 -27
26 -52 47 -56 47 -4 1 -28 3 -54 5 -45 4 -48 3 -48 -20 0 -29 -8 -32 -25 -8
-9 12 -10 23 -4 35 12 22 82 24 119 3 34 -19 40 -18 40 5 0 24 -39 42 -78 35
-87 -15 -111 -14 -132 3 -18 15 -21 24 -15 50 3 18 16 37 28 44 12 6 28 17 35
24 7 8 30 18 50 24 20 5 50 21 67 34 29 24 30 24 11 45 -10 11 -23 18 -28 15
-6 -4 -8 5 -4 22 31 158 31 157 8 172 -12 8 -22 19 -22 24 0 13 -71 88 -84 88
-20 0 -11 49 14 75 14 15 21 32 17 44 -4 16 0 19 24 16 16 -2 34 -7 39 -10 6
-4 24 6 40 22 44 41 39 85 -11 98 -22 5 -34 -1 -70 -35 -56 -53 -66 -58 -113
-57 -28 1 -43 -5 -56 -20 -21 -27 -15 -69 11 -84 11 -5 19 -16 19 -24 0 -7 6
-16 13 -19 9 -5 9 -7 -1 -12 -6 -3 -10 -10 -7 -15 8 -12 -13 -49 -27 -49 -6 0
-19 -7 -29 -16 -9 -8 -29 -16 -43 -18 -14 -1 -29 -6 -33 -9 -13 -13 -38 -6
-66 18 -26 23 -27 25 -10 45 10 11 23 20 30 20 7 0 13 5 13 10 0 6 7 10 16 10
10 0 14 6 11 14 -3 7 0 19 6 25 6 6 7 14 4 18 -13 13 -78 5 -96 -11 -10 -9
-22 -16 -28 -16 -5 0 -16 -11 -23 -25 -8 -14 -24 -28 -36 -31 -55 -14 -177 63
-193 122 -5 17 -5 56 1 89 5 32 7 64 4 72 -3 7 -2 13 2 13 4 0 13 12 20 28 7
15 20 40 28 56 24 42 8 65 -66 97 -64 27 -65 27 -89 8 -13 -10 -32 -19 -42
-19 -9 0 -19 -6 -22 -12 -4 -10 -7 -10 -18 0 -7 6 -25 12 -41 12 -15 0 -31 6
-35 13 -4 7 -20 20 -36 30 -23 15 -34 16 -65 7 -47 -13 -109 -13 -117 0 -3 6
-15 10 -25 10 -11 0 -49 31 -87 71 -51 53 -68 79 -69 101 -2 51 -15 50 -104
-3z m114 -204 c8 -22 -10 -26 -27 -7 -15 16 -15 18 3 19 10 1 21 -5 24 -12z
m31 -5 c3 -5 1 -10 -4 -10 -6 0 -11 5 -11 10 0 6 2 10 4 10 3 0 8 -4 11 -10z
m-2 -240 c-3 -11 -14 -20 -24 -20 -23 0 -24 8 -3 31 20 22 34 16 27 -11z m422
-540 c6 -24 5 -23 -14 4 -11 17 -17 34 -14 39 7 11 17 -6 28 -43z m64 -51 c20
-22 34 -69 20 -69 -5 0 -9 5 -9 11 0 6 -7 8 -16 5 -38 -14 -71 33 -42 62 17
17 24 15 47 -9z m96 -17 c-3 -3 -11 0 -18 7 -9 10 -8 11 6 5 10 -3 15 -9 12
-12z m63 -133 c2 -13 8 -29 14 -36 7 -8 3 -10 -13 -6 -15 4 -20 2 -15 -5 3 -6
2 -13 -3 -16 -9 -6 -20 81 -12 90 11 10 26 -4 29 -27z m-83 -19 c3 -5 2 -10
-4 -10 -5 0 -13 5 -16 10 -3 6 -2 10 4 10 5 0 13 -4 16 -10z m386 -26 c10 -6
17 -13 14 -15 -2 -3 7 -6 20 -7 13 -1 28 -2 32 -3 4 -1 15 0 23 3 72 24 79 25
84 14 3 -7 8 -6 15 4 9 12 11 11 11 -7 0 -13 6 -23 13 -23 6 0 17 -11 24 -25
9 -20 8 -25 -3 -25 -8 0 -14 5 -14 11 0 12 -50 4 -60 -9 -3 -4 -11 -7 -17 -7
-7 0 -12 -4 -10 -10 1 -5 7 -9 14 -9 6 1 9 -5 6 -12 -3 -8 -16 -14 -29 -14
-13 0 -24 -4 -24 -10 0 -5 -9 -10 -20 -10 -21 0 -25 -8 -12 -25 8 -12 62 -14
62 -2 0 4 7 7 16 7 14 0 14 -1 0 -16 -9 -8 -16 -22 -16 -30 0 -8 -4 -14 -10
-14 -5 0 -10 -9 -10 -20 0 -11 -5 -20 -11 -20 -5 0 -7 5 -4 10 3 6 1 10 -4 10
-6 0 -11 -9 -11 -20 0 -29 -17 -25 -28 8 -7 18 -11 21 -11 9 -1 -10 -5 -16
-10 -12 -5 3 -12 1 -16 -5 -3 -5 6 -15 22 -22 27 -11 28 -12 5 -16 -27 -4 -53
24 -44 47 4 10 1 13 -11 8 -26 -10 -38 53 -27 143 4 41 6 79 3 84 -3 4 0 12 7
16 9 6 7 10 -9 15 -11 3 -21 13 -21 21 0 12 3 13 21 2 12 -7 30 -18 40 -24z
m-71 -23 c0 -16 -12 -41 -20 -41 -4 0 -5 11 -2 25 4 23 22 36 22 16z m-250
-69 c0 -21 -2 -24 -10 -12 -13 20 -13 53 0 45 6 -3 10 -18 10 -33z m148 -49
c3 -28 1 -31 -18 -26 -25 7 -35 26 -26 49 10 27 41 12 44 -23z m367 8 c-3 -6
-11 -11 -17 -11 -6 0 -6 6 2 15 14 17 26 13 15 -4z m-403 -45 c16 -20 24 -37
18 -41 -6 -3 -10 -1 -10 6 0 7 -7 21 -17 31 -16 18 -34 24 -32 11 1 -5 1 -17
0 -27 -1 -15 -4 -17 -13 -8 -8 8 -15 9 -25 1 -23 -20 -15 13 10 38 30 30 38
29 69 -11z m723 -59 c36 -20 27 -20 -44 -3 -30 7 -56 17 -58 23 -5 14 63 1
102 -20z m-666 -16 c-15 -5 -22 6 -14 19 6 9 10 9 16 -1 5 -8 4 -15 -2 -18z
m81 8 c0 -11 -4 -18 -10 -14 -5 3 -7 12 -3 20 7 21 13 19 13 -6z m452 -49 c18
-16 27 -30 21 -30 -7 0 -13 4 -13 10 0 16 -67 29 -125 24 -30 -3 -55 -3 -55 1
0 11 46 24 92 24 39 1 53 -4 80 -29z m-377 -40 c8 -25 8 -25 -14 -6 -16 15
-18 21 -9 28 10 6 10 8 1 8 -7 0 -13 5 -13 12 0 19 27 -13 35 -42z m-148 34
c-3 -3 -12 -4 -19 -1 -8 3 -5 6 6 6 11 1 17 -2 13 -5z m117 -38 c21 -33 0 -41
-32 -13 -20 19 -23 19 -35 4 -8 -11 -20 -15 -34 -11 -47 13 -10 42 53 43 23 1
36 -6 48 -23z m181 -26 c3 -5 1 -10 -4 -10 -6 0 -11 5 -11 10 0 6 2 10 4 10 3
0 8 -4 11 -10z m-117 -32 c16 -16 15 -48 -1 -48 -19 0 -50 37 -42 49 8 14 28
14 43 -1z m202 -98 c-27 -21 -45 -26 -35 -9 6 9 41 27 55 28 3 0 -6 -8 -20
-19z m-383 -32 c-3 -8 -6 -5 -6 6 -1 11 2 17 5 13 3 -3 4 -12 1 -19z m671
-861 c19 -13 14 -27 -10 -27 -28 0 -42 9 -56 36 -11 21 -10 21 21 10 18 -6 38
-15 45 -19z m-268 -224 c0 -20 -7 -16 -32 19 l-22 32 26 -19 c15 -11 28 -26
28 -32z m248 -293 c27 -17 37 -18 48 -9 17 14 25 7 41 -33 10 -23 9 -27 -9
-31 -15 -4 -18 -11 -13 -26 4 -12 2 -21 -4 -21 -6 0 -11 11 -11 25 0 14 -4 25
-10 25 -5 0 -9 6 -7 13 1 6 -5 11 -13 10 -8 -1 -28 14 -43 33 -33 39 -27 43
21 14z m476 -475 c-7 -17 -20 -19 -29 -5 -3 6 0 10 7 11 10 0 10 2 1 6 -7 2
-13 9 -13 14 0 6 8 5 20 -1 11 -6 17 -16 14 -25z m-54 4 c0 -5 -4 -9 -10 -9
-5 0 -10 7 -10 16 0 8 5 12 10 9 6 -3 10 -10 10 -16z"/>
<path d="M5655 7780 c-18 -8 -17 -9 8 -9 16 -1 26 3 22 9 -3 6 -7 10 -8 9 -1
0 -11 -4 -22 -9z"/>
<path d="M1840 9035 c0 -10 -14 -17 -40 -21 -22 -4 -40 -11 -40 -16 0 -5 -12
4 -26 19 l-25 28 4 -29 c4 -22 0 -30 -14 -33 -14 -4 -18 -11 -14 -24 5 -15 3
-17 -11 -12 -12 4 -15 3 -10 -5 8 -14 -54 -42 -92 -42 -29 0 -92 -44 -92 -64
0 -8 11 -17 25 -20 30 -8 61 -40 69 -72 10 -36 -20 -60 -98 -80 -37 -9 -76
-26 -86 -36 -15 -17 -31 -60 -34 -93 -1 -5 -5 -13 -11 -17 -6 -4 -3 -12 8 -20
17 -13 17 -14 -1 -36 -23 -26 -78 -32 -68 -7 3 8 1 15 -4 15 -5 0 -7 7 -4 15
4 9 1 15 -7 15 -8 0 -23 3 -34 6 -23 6 -93 -51 -72 -59 8 -4 9 -8 1 -14 -6 -4
-13 -16 -17 -26 -6 -17 -45 -37 -71 -37 -21 0 -70 53 -83 91 -16 43 -16 72 -2
86 7 7 3 12 -15 15 -28 6 -86 -39 -86 -66 0 -9 -4 -16 -10 -16 -5 0 -10 -9
-10 -21 0 -11 -16 -40 -36 -62 l-35 -42 66 -5 c75 -6 97 -22 115 -88 5 -21 21
-48 36 -61 44 -42 57 -78 51 -145 -5 -50 -10 -64 -37 -89 -29 -27 -31 -34 -24
-66 20 -98 9 -126 -74 -181 -48 -32 -91 -38 -150 -21 -30 9 -32 8 -32 -14 0
-30 -61 -68 -95 -59 -21 5 -25 2 -30 -30 -10 -53 0 -80 35 -93 60 -23 25 -78
-44 -68 -40 6 -44 4 -91 -43 -44 -43 -56 -50 -103 -55 -49 -6 -108 -32 -139
-63 -11 -11 -41 -84 -58 -142 -6 -20 -4 -23 17 -20 17 2 23 -2 22 -14 -1 -10
2 -16 6 -13 10 6 36 -25 43 -54 7 -27 -10 -68 -31 -76 -35 -13 -84 75 -63 113
14 27 3 34 -29 17 -27 -14 -28 -13 -36 13 -4 15 -6 54 -5 87 2 57 1 61 -28 83
-17 12 -35 22 -40 22 -6 0 -26 16 -46 37 l-35 36 0 -176 c0 -186 0 -185 45
-168 31 12 45 -25 32 -84 l-11 -47 50 -48 c75 -72 83 -100 51 -185 -6 -16 -17
-36 -23 -42 -7 -7 -21 -24 -31 -37 -21 -26 -73 -56 -98 -56 -13 0 -15 -32 -15
-262 1 -193 3 -258 11 -244 12 19 14 55 8 148 -3 47 1 63 19 85 12 16 38 59
58 96 53 98 87 115 215 110 l97 -4 7 48 c7 47 39 113 54 113 12 0 51 39 90 88
38 49 68 66 129 76 24 4 65 18 90 31 63 33 125 34 155 1 26 -28 43 -60 51 -96
3 -14 24 -45 46 -69 45 -48 70 -99 70 -140 0 -37 -35 -91 -60 -91 -12 0 -36
-21 -61 -52 -23 -29 -45 -54 -50 -56 -5 -2 -9 -10 -9 -18 0 -8 -7 -14 -15 -14
-8 0 -15 -7 -15 -16 0 -9 -5 -12 -12 -8 -6 4 -17 -1 -24 -10 -8 -11 -14 -13
-19 -7 -8 14 -55 14 -55 1 0 -5 -7 -10 -15 -10 -8 0 -15 -5 -15 -10 0 -10 -43
-7 -92 6 -12 4 -15 0 -11 -16 3 -12 1 -20 -5 -18 -5 2 -35 -21 -66 -49 -75
-71 -101 -70 -109 5 -9 71 -71 106 -102 58 -17 -26 -9 -62 19 -85 40 -33 1
-111 -70 -140 -67 -27 -110 -221 -49 -221 8 0 19 -8 24 -17 10 -17 10 -17 11
-1 0 26 44 33 94 14 39 -15 46 -15 79 -1 20 8 37 19 37 24 0 4 -16 29 -35 54
-20 26 -38 59 -41 74 -5 24 -1 30 28 42 18 7 60 29 92 49 71 42 108 44 147 6
16 -15 29 -31 29 -36 0 -10 43 -78 50 -78 3 0 15 16 28 36 31 48 23 101 -24
151 -19 20 -35 41 -35 47 -1 6 -3 24 -5 41 -2 23 -1 26 7 15 8 -11 12 -12 16
-2 2 6 16 12 29 12 13 0 24 5 24 12 0 9 3 9 12 0 7 -7 21 -12 32 -12 10 0 17
-3 14 -6 -8 -8 29 -44 45 -44 6 1 21 15 32 33 15 24 28 32 50 33 17 1 33 -3
37 -9 4 -8 17 -8 42 0 20 6 38 8 40 4 2 -3 4 -29 3 -57 -1 -58 17 -90 53 -95
23 -4 25 -1 22 31 -2 23 -12 42 -29 56 -36 31 -34 80 6 125 17 18 31 39 31 45
0 14 55 44 80 44 9 0 37 14 64 30 26 17 59 31 74 31 15 1 46 9 70 17 34 12 44
21 49 44 3 16 10 31 14 34 5 3 9 14 9 24 0 10 6 23 13 27 6 4 26 34 42 66 33
63 52 73 135 71 85 -2 88 -3 109 -38 12 -19 27 -36 34 -39 7 -2 55 16 107 40
118 56 171 73 235 73 45 0 55 -4 88 -36 23 -23 37 -46 37 -61 0 -24 1 -25 23
-9 52 37 59 36 21 -5 l-40 -44 9 -63 c13 -94 2 -146 -40 -193 -48 -53 -78 -67
-144 -70 -71 -2 -196 34 -231 68 -24 23 -45 74 -40 96 6 23 -21 133 -35 144
-14 11 -20 7 -40 -19 -12 -18 -23 -38 -23 -45 0 -21 -40 -95 -61 -116 -18 -17
-22 -17 -51 -3 -37 19 -38 19 -38 6 0 -6 12 -18 28 -28 26 -17 27 -19 26 -107
-1 -59 -7 -103 -18 -127 -9 -21 -16 -45 -16 -55 0 -32 -42 -99 -77 -123 -44
-30 -129 -30 -188 0 -73 37 -98 22 -89 -56 5 -41 2 -53 -15 -71 -12 -12 -21
-25 -21 -27 0 -10 133 -73 186 -89 100 -30 155 -74 169 -137 5 -22 17 -36 46
-50 81 -42 85 -124 9 -197 l-40 -38 17 -36 c14 -27 29 -40 63 -52 29 -11 48
-13 56 -6 14 11 15 59 2 59 -10 0 -9 11 8 115 3 22 6 47 6 57 -1 23 43 32 71
13 27 -17 37 -36 61 -115 10 -30 22 -64 27 -75 6 -13 6 -35 0 -60 l-9 -40 -2
40 -2 40 -12 -44 c-6 -24 -9 -62 -7 -85 3 -36 5 -38 13 -20 10 21 10 22 29 3
10 -10 27 -19 37 -19 34 0 101 -40 128 -75 35 -46 52 -54 91 -43 24 6 33 15
38 37 6 26 55 97 55 79 0 -4 -10 -28 -22 -53 -17 -35 -19 -48 -10 -57 24 -24
40 17 47 117 2 22 8 56 14 75 6 19 11 54 11 76 l0 42 -65 -35 c-36 -19 -65
-37 -65 -39 0 -3 12 -16 28 -30 l27 -25 -32 15 c-42 21 -50 36 -27 53 10 7 27
20 36 28 10 8 37 23 61 34 43 20 44 21 56 90 7 38 14 119 17 179 l4 110 -39 0
c-60 1 -118 38 -147 94 -8 15 -18 8 -73 -45 -42 -41 -62 -55 -57 -40 7 21 -5
35 -32 39 -31 5 -100 47 -105 64 -6 22 2 148 10 170 3 8 7 23 8 34 1 10 9 23
18 28 10 5 17 17 17 27 0 10 16 33 35 53 30 30 48 38 123 53 117 25 179 30
197 15 10 -9 23 -6 57 10 l43 21 -38 -33 c-20 -18 -37 -37 -37 -43 0 -5 4 -3
10 5 8 12 10 12 16 -3 10 -27 32 -20 39 14 4 17 9 28 12 26 2 -3 0 -22 -6 -42
-7 -27 -7 -35 2 -32 15 5 27 83 14 96 -5 5 -4 17 2 29 6 11 11 30 11 41 0 11
8 42 17 68 12 35 17 90 19 203 2 85 6 172 10 194 5 30 4 37 -6 31 -9 -5 -11
-4 -6 3 4 7 4 28 0 47 -5 29 -9 33 -20 24 -12 -10 -14 -3 -8 44 6 54 -4 165
-13 140 -3 -7 -18 -13 -33 -13 -42 0 -59 29 -50 87 5 27 6 51 3 56 -8 13 -45
7 -79 -14 -45 -28 -56 -49 -44 -89 5 -18 7 -36 4 -41 -8 -14 -43 -1 -75 29
-35 33 -42 88 -15 139 16 33 83 93 102 93 6 0 26 18 45 39 32 38 35 40 84 35
27 -2 64 -6 82 -8 27 -4 33 -1 43 24 7 16 9 34 4 41 -4 7 -3 10 4 5 13 -8 32
24 37 64 4 34 -1 36 -31 15 -15 -10 -20 -22 -17 -42 3 -27 3 -28 -7 -4 -15 34
-3 59 34 75 26 11 35 21 38 45 5 35 3 36 -32 16 -29 -17 -40 -18 -40 -6 0 5
17 16 38 24 20 8 57 37 82 63 25 27 36 41 24 31 -11 -9 -26 -17 -32 -17 -7 0
-12 -4 -12 -8 0 -5 -7 -17 -16 -28 -15 -19 -15 -18 -11 3 6 28 -8 39 -19 15
-4 -9 -7 -20 -6 -24 1 -4 -5 -5 -13 -2 -8 3 -21 0 -29 -8 -42 -38 -43 -38 -75
-22 -30 15 -48 45 -37 63 3 5 3 23 0 41 -6 26 -11 31 -33 28 -14 -1 -31 1 -37
5 -14 8 -8 68 6 77 6 4 8 14 4 23 -5 13 -1 17 16 17 16 0 20 4 16 15 -3 10 1
15 13 15 14 0 18 8 18 45 0 25 4 50 9 55 14 14 68 25 60 12 -3 -6 -2 -13 4
-17 5 -3 10 -15 10 -26 0 -26 35 -59 63 -59 12 0 45 11 72 25 28 13 61 24 75
24 30 0 63 -22 52 -35 -4 -5 8 4 25 20 25 22 31 35 27 53 -4 13 0 33 10 47 14
22 14 26 -4 48 -10 14 -36 30 -58 36 -48 15 -61 30 -96 114 -32 78 -45 91 -83
86 -22 -2 -33 -13 -51 -48 -29 -58 -48 -64 -111 -38 l-50 22 -21 -24 c-25 -28
-26 -66 -3 -79 17 -9 16 -11 -1 -30 -24 -26 -60 -27 -86 -1 -27 27 -58 25 -86
-5 -28 -30 -21 -59 16 -78 22 -11 25 -19 23 -60 -2 -71 -30 -143 -74 -189 -33
-35 -39 -48 -39 -83 0 -54 -22 -74 -91 -82 -30 -3 -56 -9 -59 -12 -7 -8 -58
-31 -70 -31 -13 0 -70 57 -70 69 0 5 -10 17 -22 25 -15 11 -18 19 -11 28 6 7
13 27 15 43 3 17 8 39 13 50 4 11 3 16 -2 10 -4 -5 -19 -11 -33 -13 -29 -2
-90 -68 -90 -96 0 -11 8 -28 17 -38 17 -19 7 -44 -12 -30 -16 11 -45 60 -45
76 0 8 -11 27 -24 41 -14 15 -28 40 -31 56 -8 35 -18 42 -70 49 -30 4 -40 10
-42 25 -2 11 0 14 3 8 8 -18 24 -16 24 2 0 8 5 15 11 15 5 0 7 4 4 10 -4 6 9
9 32 8 40 -1 83 19 83 38 0 6 7 17 15 24 13 11 13 14 1 24 -8 6 -29 38 -46 71
-17 33 -49 78 -71 100 -21 23 -39 46 -39 52 0 7 -18 26 -39 44 -41 33 -47 54
-24 95 16 28 46 35 71 18 11 -7 22 -11 25 -7 10 9 109 -47 154 -88 22 -20 40
-39 38 -41 -2 -2 8 -11 21 -21 21 -16 25 -16 30 -3 10 26 25 18 18 -9 -4 -15
-2 -25 5 -25 16 0 14 32 -5 69 -32 65 -11 151 37 151 22 0 64 -43 80 -82 6
-15 15 -25 19 -23 5 3 12 1 15 -5 4 -7 23 4 47 26 22 20 61 45 85 56 l45 20
-7 58 c-6 55 -5 59 25 94 18 20 38 36 46 36 16 0 33 30 27 48 -3 6 -13 12 -23
12 -10 0 -22 5 -25 10 -4 6 5 10 19 10 19 0 27 7 32 25 3 14 10 25 15 25 5 0
9 12 9 26 0 31 -23 28 -28 -4 -2 -12 -8 -20 -13 -16 -5 3 -7 9 -4 14 6 10 -37
24 -56 18 -6 -2 -17 -19 -23 -38 -14 -42 -45 -52 -106 -34 -36 11 -51 22 -73
59 -16 25 -30 45 -32 45 -1 0 -16 -7 -31 -15 -34 -18 -70 -19 -113 -4 -29 10
-36 22 -42 69 -8 58 56 129 126 140 43 7 46 6 52 -19 3 -14 9 -28 13 -31 4 -3
11 -22 16 -43 l9 -37 35 17 c21 11 43 33 55 57 11 22 32 52 48 68 15 15 27 30
27 33 0 3 -25 5 -55 4 -30 -1 -55 -6 -55 -11 0 -19 -18 -6 -24 17 -4 14 -11
25 -17 25 -6 0 -6 6 1 19 14 28 12 44 -5 38 -8 -4 -17 -2 -20 3 -4 6 -13 10
-21 10 -8 0 -13 -4 -9 -9 3 -6 -7 -6 -27 0 -45 13 -58 11 -58 -6z m-141 -451
c6 -5 -27 -34 -40 -34 -7 0 -9 3 -6 7 4 3 2 12 -4 19 -17 21 -1 36 24 23 12
-7 24 -13 26 -15z m-796 -1132 c0 -18 -8 -41 -17 -51 -9 -10 -16 -25 -16 -34
0 -29 -57 -21 -91 12 -36 37 -37 54 -1 79 38 27 52 31 92 29 33 -2 35 -4 33
-35z m918 7 c10 -5 15 -19 14 -36 -3 -42 -3 -41 -35 -58 -31 -16 -79 -11 -92
9 -14 21 -8 60 13 82 22 23 58 24 100 3z m-16 -233 c42 -18 85 -62 85 -88 0
-38 -44 -98 -72 -98 -15 0 -18 -5 -13 -20 9 -29 -9 -25 -38 9 -22 26 -29 29
-66 24 -44 -6 -46 -8 -31 -48 8 -21 13 -25 24 -16 11 9 12 6 8 -14 -3 -16 -10
-24 -17 -21 -7 2 -29 -6 -48 -20 -20 -13 -43 -21 -51 -18 -24 9 -31 -24 -12
-62 19 -41 19 -44 6 -44 -5 0 -10 9 -10 19 0 11 -4 23 -10 26 -5 3 -10 17 -10
29 0 13 -7 29 -15 36 -8 7 -15 23 -15 36 0 13 -4 24 -10 24 -5 0 -10 10 -10
21 0 19 -4 21 -37 15 -89 -16 -112 -120 -36 -160 68 -35 66 -106 -3 -125 -29
-8 -39 -7 -51 4 -8 8 -20 15 -27 15 -8 0 -19 7 -26 15 -7 8 -21 15 -31 15 -10
0 -32 15 -48 33 -42 44 -42 101 -1 177 17 30 30 62 30 70 1 37 73 90 115 84
111 -17 110 -17 140 7 96 77 206 106 280 75z m695 -376 c8 12 10 10 10 -11 0
-14 -6 -34 -14 -44 -13 -18 -17 -18 -40 -6 -34 18 -36 58 -3 63 12 2 25 -1 30
-7 4 -6 11 -5 17 5z m-910 -60 c-19 -13 -30 -13 -30 0 0 6 10 10 23 10 18 0
19 -2 7 -10z m950 -53 c0 -2 -12 -14 -27 -28 l-28 -24 24 28 c23 25 31 32 31
24z m-3 -274 c-3 -10 -5 -2 -5 17 0 19 2 27 5 18 2 -10 2 -26 0 -35z m-7 -103
l-7 -55 -2 65 c0 36 3 60 8 55 4 -6 5 -35 1 -65z m-239 -832 c1 -7 1 -16 0
-20 -1 -11 13 -10 45 2 39 15 41 4 3 -16 -35 -18 -61 -39 -54 -45 2 -2 -14 -4
-36 -4 -45 0 -48 6 -16 29 14 10 16 14 5 10 -10 -4 -18 -1 -18 5 0 6 6 11 13
12 10 0 10 2 0 6 -22 8 -14 21 15 26 15 2 30 5 35 6 4 0 8 -5 8 -11z m-7 -253
c-4 -8 -8 -15 -10 -15 -2 0 -4 7 -4 15 0 8 4 15 10 15 5 0 7 -7 4 -15z m49
-320 c-3 -9 -8 -14 -10 -11 -3 3 -2 9 2 15 9 16 15 13 8 -4z"/>
<path d="M928 8989 c-16 -6 -28 -15 -28 -20 0 -5 -6 -9 -14 -9 -7 0 -19 -6
-26 -14 -6 -8 -39 -24 -73 -35 -34 -12 -67 -29 -74 -40 -8 -13 -19 -17 -39
-13 -14 3 -25 1 -22 -4 2 -5 11 -23 18 -41 17 -40 82 -73 108 -55 91 61 195
86 276 65 75 -19 90 -11 82 44 -8 58 -10 61 -54 72 -23 7 -41 19 -47 33 -11
26 -61 34 -107 17z"/>
<path d="M2822 8885 c-11 -13 -9 -17 13 -25 46 -17 53 -13 35 21 -13 22 -30
24 -48 4z"/>
<path d="M3993 8863 c-30 -20 -31 -77 -2 -138 34 -72 46 -76 85 -31 57 65 63
137 16 172 -23 18 -72 16 -99 -3z m17 -33 c0 -5 -2 -10 -4 -10 -3 0 -8 5 -11
10 -3 6 -1 10 4 10 6 0 11 -4 11 -10z m53 -8 c3 9 8 10 16 2 8 -8 7 -18 -5
-42 -15 -30 -34 -43 -34 -23 0 5 -3 17 -7 27 -5 13 -3 15 8 9 11 -6 12 -5 2 6
-18 18 -16 34 1 20 11 -9 15 -9 19 1z"/>
<path d="M3437 8774 c-8 -8 3 -34 15 -34 7 0 6 5 -1 13 -6 8 -8 17 -4 20 3 4
4 7 1 7 -2 0 -7 -3 -11 -6z"/>
<path d="M3264 8750 c-37 -15 -53 -47 -44 -87 8 -35 54 -93 74 -93 5 0 18 -8
28 -17 27 -24 41 -5 46 66 6 80 -1 103 -39 124 -34 19 -35 19 -65 7z m76 -69
c0 -6 -4 -13 -10 -16 -5 -3 -10 1 -10 9 0 9 5 16 10 16 6 0 10 -4 10 -9z"/>
<path d="M686 8679 c-32 -33 -37 -44 -31 -67 4 -15 9 -53 12 -84 3 -31 11 -62
18 -68 15 -12 65 -3 65 12 0 6 14 31 31 56 17 26 34 63 36 83 5 32 2 40 -21
54 -14 10 -26 26 -26 36 0 33 -42 22 -84 -22z"/>
<path d="M260 8672 c0 -17 28 -34 42 -26 7 5 24 7 38 6 19 -2 21 0 10 7 -24
15 -90 25 -90 13z"/>
<path d="M4360 8600 c0 -13 18 -22 24 -11 3 5 -1 11 -9 15 -8 3 -15 1 -15 -4z"/>
<path d="M4455 8569 c-4 -6 -5 -12 -2 -15 2 -3 7 2 10 11 7 17 1 20 -8 4z"/>
<path d="M3675 8512 c5 -34 4 -43 -4 -32 -6 8 -11 24 -11 35 -1 20 -1 20 -15
1 -23 -30 -19 -81 8 -112 l24 -27 7 26 c3 15 11 27 16 27 13 0 13 -27 0 -35
-12 -8 -13 -25 -2 -25 29 0 43 118 17 144 -8 8 -15 19 -15 24 0 6 -7 13 -16
16 -13 5 -14 -1 -9 -42z"/>
<path d="M3767 8515 c3 -8 9 -12 14 -9 12 7 11 11 -5 17 -10 4 -13 1 -9 -8z"/>
<path d="M4877 8503 c-6 -10 -10 -49 -8 -90 1 -38 20 -43 39 -12 10 16 11 24
1 35 -9 11 -9 21 -1 38 6 13 8 27 5 30 -9 8 -31 7 -36 -1z"/>
<path d="M3577 8486 c-15 -11 -15 -15 -3 -25 14 -12 18 -9 29 22 8 20 -1 21
-26 3z"/>
<path d="M3790 8475 c0 -8 5 -15 10 -15 6 0 10 7 10 15 0 8 -4 15 -10 15 -5 0
-10 -7 -10 -15z"/>
<path d="M2337 8474 c-9 -10 2 -24 19 -24 8 0 14 7 14 15 0 15 -21 21 -33 9z"/>
<path d="M2902 8456 c-9 -21 1 -82 23 -139 8 -18 47 -33 63 -23 10 6 5 92 -9
146 -7 29 -13 35 -37 37 -22 1 -32 -4 -40 -21z"/>
<path d="M1300 8460 c0 -5 5 -10 10 -10 6 0 10 5 10 10 0 6 -4 10 -10 10 -5 0
-10 -4 -10 -10z"/>
<path d="M4636 8462 c-3 -5 1 -15 9 -22 16 -14 20 -3 6 19 -5 8 -11 9 -15 3z"/>
<path d="M2498 8453 c-21 -5 -21 -6 -4 -63 15 -51 37 -70 64 -54 17 11 51 69
52 90 0 9 -80 38 -92 33 -2 -1 -11 -3 -20 -6z"/>
<path d="M420 8254 c0 -8 5 -12 10 -9 6 3 10 10 10 16 0 5 -4 9 -10 9 -5 0
-10 -7 -10 -16z"/>
<path d="M7050 8236 c-24 -26 -22 -56 4 -56 8 0 24 12 35 26 16 21 18 30 10
40 -16 19 -22 18 -49 -10z"/>
<path d="M2825 8168 c4 -13 9 -35 12 -50 5 -29 29 -55 40 -44 3 3 1 31 -6 61
-10 45 -16 55 -33 55 -17 0 -19 -4 -13 -22z"/>
<path d="M4378 8143 c7 -3 16 -2 19 1 4 3 -2 6 -13 5 -11 0 -14 -3 -6 -6z"/>
<path d="M4840 8121 c0 -5 9 -11 20 -14 24 -6 27 8 4 17 -21 8 -24 8 -24 -3z"/>
<path d="M2020 8092 c0 -9 25 -33 48 -47 12 -6 12 -3 2 16 -18 33 -50 53 -50
31z"/>
<path d="M3725 8090 c-3 -5 -1 -10 4 -10 6 0 11 5 11 10 0 6 -2 10 -4 10 -3 0
-8 -4 -11 -10z"/>
<path d="M3645 8081 c-9 -16 9 -20 23 -5 10 12 10 14 -2 14 -8 0 -17 -4 -21
-9z"/>
<path d="M3590 8070 c0 -5 7 -7 15 -4 8 4 15 8 15 10 0 2 -7 4 -15 4 -8 0 -15
-4 -15 -10z"/>
<path d="M3350 8040 c-9 -6 -10 -10 -3 -10 6 0 15 5 18 10 8 12 4 12 -15 0z"/>
<path d="M3821 8034 c0 -11 3 -14 6 -6 3 7 2 16 -1 19 -3 4 -6 -2 -5 -13z"/>
<path d="M3228 7996 c-21 -10 -36 -21 -34 -23 1 -2 16 3 32 12 16 8 37 15 47
15 9 0 17 4 17 8 0 14 -23 10 -62 -12z"/>
<path d="M3085 7931 c-10 -17 12 -21 25 -6 10 12 10 15 -3 15 -9 0 -18 -4 -22
-9z"/>
<path d="M3050 7900 c0 -5 5 -10 10 -10 6 0 10 5 10 10 0 6 -4 10 -10 10 -5 0
-10 -4 -10 -10z"/>
<path d="M2837 7838 c-67 -91 -100 -169 -77 -183 10 -6 57 31 70 55 11 21 41
153 35 158 -2 2 -14 -12 -28 -30z"/>
<path d="M702 7829 c-13 -5 -22 -15 -19 -21 2 -7 0 -21 -5 -31 -11 -22 15 -57
43 -57 25 0 36 59 17 93 -11 20 -17 23 -36 16z"/>
<path d="M2959 7823 c-13 -16 -12 -17 4 -4 9 7 17 15 17 17 0 8 -8 3 -21 -13z"/>
<path d="M6328 7703 c-7 -9 -14 -26 -14 -37 -8 -144 0 -206 26 -206 14 0 13
-46 -1 -73 -7 -12 -24 -33 -40 -47 -26 -24 -27 -26 -10 -47 17 -21 71 -40 119
-41 13 -1 43 -8 67 -18 53 -20 78 -15 129 27 38 32 38 33 32 88 -3 31 -5 59
-6 64 0 4 -13 7 -28 7 -48 0 -114 71 -173 185 -17 33 -44 72 -60 87 -25 23
-30 24 -41 11z"/>
<path d="M2723 7599 c-24 -17 -43 -32 -43 -35 0 -9 55 24 74 45 25 28 19 26
-31 -10z"/>
<path d="M2693 7546 c-32 -21 -62 -71 -49 -83 3 -3 6 1 6 10 0 10 5 16 11 15
11 -3 76 69 68 76 -2 2 -18 -6 -36 -18z"/>
<path d="M2576 7283 c-6 -14 -5 -15 5 -6 7 7 10 15 7 18 -3 3 -9 -2 -12 -12z"/>
<path d="M2543 7005 c0 -27 2 -38 4 -22 2 15 2 37 0 50 -2 12 -4 0 -4 -28z"/>
<path d="M3170 6969 c-1 -2 -7 -44 -15 -94 -8 -49 -21 -148 -30 -220 -8 -71
-20 -160 -25 -198 -11 -76 -12 -197 -1 -272 l7 -50 7 45 c5 25 11 40 15 33 8
-13 126 -12 139 0 3 4 -2 14 -13 21 -15 12 -16 17 -7 27 9 9 9 18 2 32 -8 15
-7 27 7 53 22 41 46 40 54 -1 9 -43 30 -73 67 -96 34 -21 56 -18 47 6 -7 17
19 30 43 21 14 -6 14 -8 -3 -22 -18 -14 -17 -15 10 -9 33 7 46 21 77 78 20 38
20 40 2 59 -30 33 -116 61 -186 59 -20 -1 -46 3 -56 9 -14 7 -21 6 -23 -2 -3
-8 -21 -12 -46 -12 -23 1 -42 -2 -42 -6 0 -4 -7 -11 -16 -14 -27 -11 -54 22
-54 66 0 35 3 40 36 54 20 9 55 15 78 14 67 -3 88 -1 82 9 -3 5 16 8 44 6 45
-2 49 -1 39 16 -8 17 -18 18 -83 13 -88 -8 -180 16 -172 44 2 10 10 43 17 75
7 31 15 57 19 57 4 0 13 20 20 45 7 25 17 45 21 45 20 0 7 39 -26 74 -19 21
-35 37 -35 35z m310 -599 c8 -5 12 -12 9 -15 -8 -8 -39 5 -39 16 0 11 11 11
30 -1z m-130 -53 c0 -5 -4 -5 -10 -2 -5 3 -10 14 -10 23 0 15 2 15 10 2 5 -8
10 -19 10 -23z m145 14 c3 -5 1 -12 -5 -16 -5 -3 -10 1 -10 9 0 18 6 21 15 7z"/>
<path d="M2531 6914 c0 -11 3 -14 6 -6 3 7 2 16 -1 19 -3 4 -6 -2 -5 -13z"/>
<path d="M4600 6814 c0 -6 13 -40 30 -75 16 -35 29 -56 30 -47 0 17 -31 91
-49 118 -6 8 -11 10 -11 4z"/>
<path d="M4460 6661 c0 -15 26 -31 61 -37 l34 -5 -30 25 c-29 25 -65 35 -65
17z"/>
<path d="M2551 6574 c0 -11 3 -14 6 -6 3 7 2 16 -1 19 -3 4 -6 -2 -5 -13z"/>
<path d="M4951 6560 c0 -8 4 -24 9 -35 l9 -20 0 20 c0 11 -4 27 -9 35 -9 13
-10 13 -9 0z"/>
<path d="M4486 6535 c-7 -19 -53 -30 -69 -17 -9 8 -16 6 -25 -9 -8 -12 -23
-19 -44 -19 -17 0 -28 -3 -25 -7 4 -3 -3 -17 -15 -30 -21 -22 -13 -34 9 -12 7
7 14 -3 22 -36 19 -76 110 -140 123 -87 3 10 13 19 22 19 21 0 21 -14 -1 -20
-11 -3 -7 -5 10 -6 33 -1 71 35 89 85 7 19 15 34 19 34 15 0 19 -39 10 -81 -5
-24 -9 -44 -8 -45 7 -6 116 -19 131 -16 17 4 18 11 13 70 -6 63 -44 157 -63
157 -5 0 -14 4 -20 8 -7 4 -14 0 -18 -8 -9 -24 -39 -19 -33 5 6 22 -18 29 -26
8 -3 -10 -7 -10 -19 0 -9 7 -23 10 -32 6 -9 -3 -16 -1 -16 5 0 16 -27 13 -34
-4z m-1 -86 c11 -17 -1 -21 -15 -4 -8 9 -8 15 -2 15 6 0 14 -5 17 -11z m-111
-59 c7 -35 7 -35 -8 -10 -9 14 -15 34 -16 45 0 30 17 5 24 -35z"/>
<path d="M4975 6458 c2 -26 11 -62 19 -80 l14 -33 -6 39 c-3 22 -11 58 -19 80
l-13 41 5 -47z"/>
<path d="M1593 6443 c-15 -5 -17 -23 -4 -23 5 0 11 7 15 15 3 8 4 15 3 14 -1
0 -8 -3 -14 -6z"/>
<path d="M440 6395 c-6 -15 -8 -31 -4 -36 6 -11 81 -12 88 -1 11 18 -20 57
-47 60 -21 3 -29 -2 -37 -23z"/>
<path d="M567 6323 c-23 -22 15 -73 55 -73 14 0 15 5 7 32 -11 40 -43 61 -62
41z"/>
<path d="M4224 6317 c-8 -21 2 -35 16 -21 5 5 6 15 0 24 -8 12 -10 12 -16 -3z"/>
<path d="M3607 6274 c-8 -8 1 -24 14 -24 5 0 9 7 9 15 0 15 -12 20 -23 9z"/>
<path d="M2475 6000 c3 -5 8 -10 11 -10 2 0 4 5 4 10 0 6 -5 10 -11 10 -5 0
-7 -4 -4 -10z"/>
<path d="M1052 5978 c-7 -7 -12 -18 -12 -25 0 -7 -11 -13 -24 -13 -13 0 -40
-7 -60 -15 -32 -14 -36 -19 -36 -53 0 -30 6 -42 36 -65 48 -39 57 -65 33 -99
-19 -25 -20 -26 -63 -13 -25 8 -54 19 -65 25 -17 8 -25 7 -40 -7 -15 -15 -33
-69 -36 -109 0 -6 -8 -18 -17 -27 -16 -16 -23 -87 -8 -87 24 0 35 -87 20 -166
0 -1 -9 -4 -20 -7 -28 -7 -25 -27 5 -27 14 0 25 -5 25 -11 0 -5 4 -8 9 -5 5 4
11 1 13 -6 3 -7 9 -8 19 -3 8 5 22 8 32 7 9 -2 17 1 17 6 0 5 19 9 43 9 23 -1
54 2 68 7 26 7 27 6 38 -55 13 -79 -5 -132 -52 -149 -26 -9 -35 -6 -79 26 -42
31 -53 35 -81 28 -18 -4 -78 -8 -133 -8 -123 -1 -144 -13 -144 -82 0 -51 10
-56 70 -37 52 17 110 22 110 11 0 -4 6 -8 14 -8 32 0 22 -103 -14 -155 -12
-16 -3 -76 13 -93 14 -13 22 -13 81 3 36 10 66 23 66 28 0 6 3 8 6 4 6 -6 114
137 114 152 0 13 55 58 78 64 24 6 61 -4 117 -28 49 -22 172 -22 225 0 82 33
89 55 17 53 -49 -1 -85 12 -225 81 -101 49 -132 74 -146 117 -3 11 -14 29 -24
40 -26 27 -37 74 -18 74 17 0 46 69 46 113 0 37 28 101 59 136 32 36 27 59
-16 78 -21 9 -41 17 -45 17 -4 1 -17 11 -28 24 -21 22 -21 25 -6 57 9 18 16
46 16 63 0 22 6 31 21 35 12 3 19 10 16 15 -4 4 3 16 14 25 10 9 19 27 19 39
0 17 -3 19 -12 10 -9 -9 -15 -8 -28 3 -13 11 -19 12 -28 3z"/>
<path d="M2460 5934 c0 -8 -4 -13 -8 -10 -4 3 -13 -8 -19 -25 -12 -30 -2 -38
23 -21 14 9 26 72 14 72 -6 0 -10 -7 -10 -16z"/>
<path d="M5897 5919 c-3 -12 -10 -19 -14 -16 -22 14 -9 -72 19 -131 42 -88 29
-88 -18 0 -25 48 -40 67 -42 55 -2 -10 1 -32 7 -49 6 -17 9 -33 7 -35 -2 -3
-7 5 -11 16 -5 18 -9 19 -28 9 -28 -14 -37 -27 -37 -55 0 -13 -4 -23 -10 -23
-5 0 -10 5 -10 10 0 6 -7 10 -15 10 -8 0 -15 -9 -15 -20 0 -25 -17 -26 -24 -2
-3 9 -3 1 -1 -18 3 -19 1 -52 -4 -72 -5 -21 -5 -38 0 -38 4 0 6 -7 3 -15 -4
-8 -1 -15 5 -15 6 0 11 15 11 33 1 27 2 29 11 14 15 -26 29 -11 24 26 l-5 32
11 -33 c6 -20 6 -39 1 -45 -13 -18 -13 -99 1 -116 7 -9 8 -12 1 -8 -8 5 -8 -5
-1 -33 16 -58 25 -30 23 70 0 49 1 86 4 84 2 -3 9 -40 15 -82 13 -90 30 -104
64 -47 22 38 26 40 82 49 23 4 40 14 48 30 11 20 9 30 -13 75 -15 28 -25 51
-22 51 2 0 18 -25 37 -54 31 -53 49 -63 49 -29 0 9 -3 13 -6 10 -9 -9 -64 104
-57 116 3 6 2 8 -3 4 -5 -3 -21 16 -35 41 -42 76 -16 129 57 116 35 -6 25 6
-45 60 -55 42 -59 44 -64 25z m63 -273 c0 -12 -5 -7 -19 24 -11 24 -11 24 3 6
9 -11 16 -24 16 -30z"/>
<path d="M1 5870 c0 -35 3 -50 8 -40 5 8 5 33 1 55 -8 40 -8 40 -9 -15z"/>
<path d="M2132 5898 c-12 -12 -16 -106 -6 -144 3 -12 17 -27 30 -33 21 -9 30
-7 54 11 17 12 32 29 35 38 3 9 17 22 30 28 34 16 32 48 -6 83 -25 23 -40 29
-78 29 -26 0 -52 -5 -59 -12z"/>
<path d="M2322 5894 c-10 -11 -10 -19 -1 -35 8 -15 8 -19 0 -15 -11 7 -16 -6
-5 -16 12 -13 89 31 95 54 6 22 3 24 -35 25 -25 1 -46 -4 -54 -13z"/>
<path d="M2428 5847 c-7 -8 -20 -12 -29 -10 -9 3 -20 0 -23 -6 -5 -7 2 -11 16
-11 13 0 30 -5 38 -10 11 -7 17 -5 22 8 16 40 2 56 -24 29z"/>
<path d="M2337 5793 c-6 -10 3 -20 45 -52 16 -12 18 -10 14 18 -3 24 -1 29 9
21 7 -6 11 -19 8 -29 -3 -10 0 -21 5 -25 9 -5 27 53 19 61 -10 9 -95 14 -100
6z"/>
<path d="M2283 5773 c-33 -23 -29 -59 11 -99 29 -29 41 -34 80 -34 50 0 57 10
32 46 -13 18 -96 105 -100 103 0 0 -11 -7 -23 -16z"/>
<path d="M2470 5749 c0 -5 5 -7 10 -4 6 3 10 8 10 11 0 2 -4 4 -10 4 -5 0 -10
-5 -10 -11z"/>
<path d="M2150 5694 c0 -8 5 -12 10 -9 6 3 10 10 10 16 0 5 -4 9 -10 9 -5 0
-10 -7 -10 -16z"/>
<path d="M2120 5659 c0 -5 5 -7 10 -4 6 3 10 8 10 11 0 2 -4 4 -10 4 -5 0 -10
-5 -10 -11z"/>
<path d="M613 5639 c-13 -5 -23 -12 -23 -16 0 -4 -13 -15 -28 -24 -71 -40 -72
-132 -2 -163 53 -23 72 -20 97 17 12 17 34 44 47 58 29 32 26 74 -5 66 -12 -3
-19 0 -19 9 0 8 -3 14 -8 14 -4 0 -14 11 -22 24 -12 19 -19 22 -37 15z"/>
<path d="M2922 5590 c0 -19 2 -27 5 -17 2 9 2 25 0 35 -3 9 -5 1 -5 -18z"/>
<path d="M4058 5603 c6 -2 18 -2 25 0 6 3 1 5 -13 5 -14 0 -19 -2 -12 -5z"/>
<path d="M3808 5593 c7 -3 16 -2 19 1 4 3 -2 6 -13 5 -11 0 -14 -3 -6 -6z"/>
<path d="M2913 5484 c3 -11 8 -41 12 -68 5 -33 10 -45 17 -38 12 12 -8 108
-24 118 -6 4 -8 -1 -5 -12z"/>
<path d="M3181 5486 c-2 -18 23 -86 31 -86 4 0 8 3 7 8 -1 13 -37 87 -38 78z"/>
<path d="M134 5450 c-12 -5 -29 -19 -38 -32 -18 -25 -22 -63 -6 -53 6 3 7 -1
3 -10 -3 -9 -9 -13 -12 -8 -3 4 -23 9 -43 10 -35 1 -38 0 -38 -27 0 -21 6 -29
24 -34 27 -7 56 1 56 15 0 5 7 9 15 9 8 0 22 15 31 33 10 17 26 44 37 59 11
14 16 31 13 37 -8 13 -13 13 -42 1z"/>
<path d="M413 5412 c-15 -10 -32 -92 -24 -113 13 -31 45 -15 60 31 22 61 20
84 -4 88 -11 1 -26 -2 -32 -6z"/>
<path d="M5737 5368 c-4 -15 -2 -39 5 -55 l12 -28 4 30 c1 17 -1 42 -6 55 l-9
24 -6 -26z"/>
<path d="M5807 5362 c2 -10 10 -19 18 -19 10 0 11 4 2 19 -7 10 -15 18 -18 18
-4 0 -5 -8 -2 -18z"/>
<path d="M2931 5315 c0 -17 7 -48 15 -70 l14 -40 -6 60 c-5 62 -25 103 -23 50z"/>
<path d="M3225 5300 c-10 -16 22 -180 36 -180 3 0 18 9 33 21 30 24 33 52 8
77 -10 10 -28 34 -41 55 -25 40 -27 42 -36 27z"/>
<path d="M4342 5295 c-24 -11 -72 -14 -175 -14 -78 1 -155 0 -172 -1 -16 -1
-58 2 -92 6 -52 5 -75 3 -128 -15 -44 -15 -76 -20 -97 -16 -47 11 -31 -12 32
-47 30 -16 59 -34 64 -39 15 -14 26 -11 20 6 -8 21 3 23 166 30 234 10 245 11
280 28 18 9 41 17 51 17 10 0 21 4 24 10 3 5 24 14 46 20 22 6 37 15 34 20 -8
13 -13 12 -53 -5z"/>
<path d="M2417 5243 c-11 -10 -8 -70 4 -97 13 -29 29 -25 29 6 0 15 -4 18 -17
13 -15 -5 -16 -4 -5 6 6 7 12 28 12 46 0 31 -9 41 -23 26z"/>
<path d="M3012 5210 c0 -14 2 -19 5 -12 2 6 2 18 0 25 -3 6 -5 1 -5 -13z"/>
<path d="M4783 5204 c-7 -7 -13 -17 -13 -22 0 -5 -22 -39 -49 -76 -27 -37 -51
-70 -53 -74 -3 -8 -75 -73 -158 -143 -30 -26 -68 -59 -85 -74 l-30 -27 40 23
c74 41 245 181 245 199 0 5 20 30 45 57 25 26 45 52 45 56 0 5 7 24 16 43 18
37 16 59 -3 38z"/>
<path d="M2388 5102 c-10 -20 -13 -39 -8 -42 5 -3 10 -32 12 -65 l3 -60 18 30
18 30 -6 -30 -5 -30 15 25 c18 31 19 54 3 44 -10 -6 -10 -4 0 7 20 22 15 77
-10 104 l-23 23 -17 -36z"/>
<path d="M3365 5078 c-30 -36 -56 -98 -50 -119 5 -14 1 -19 -11 -19 -14 0 -16
-7 -11 -44 10 -69 56 -140 92 -141 6 -1 21 -8 35 -17 14 -9 50 -24 80 -33 30
-10 62 -21 70 -25 19 -9 60 9 60 26 0 7 6 11 14 8 11 -4 14 3 13 28 -2 20 -7
32 -15 30 -6 -1 -12 2 -12 8 0 6 4 10 9 10 15 0 -5 79 -29 112 -25 35 -189
184 -212 193 -8 3 -23 -5 -33 -17z"/>
<path d="M7170 5045 c-14 -50 -13 -53 18 -58 12 -2 33 -14 47 -27 l25 -23 0
40 c0 32 -7 47 -35 76 -20 21 -37 37 -39 37 -2 0 -9 -20 -16 -45z"/>
<path d="M5915 5069 c-4 -6 -13 -8 -21 -5 -23 9 -16 -8 18 -43 l32 -33 8 23
c17 45 -15 94 -37 58z"/>
<path d="M5779 5055 c-7 -7 16 -162 29 -196 11 -26 77 -73 91 -64 5 2 7 17 5
32 -3 22 -1 21 7 -7 6 -19 12 -40 14 -45 1 -6 15 -17 31 -25 38 -20 63 -45
113 -113 39 -51 43 -61 38 -98 -5 -42 -21 -68 -33 -56 -4 3 1 13 10 22 28 29
12 105 -23 105 -6 0 -11 4 -11 8 0 4 -8 8 -17 9 -10 0 -29 3 -42 7 -14 3 -29
-1 -39 -11 -14 -14 -13 -15 19 -9 l34 6 -35 -14 c-47 -19 -50 -19 -50 4 0 11
-5 20 -11 20 -7 0 -9 -10 -7 -25 3 -14 2 -25 -1 -25 -12 0 -32 41 -25 52 4 6
3 8 -4 4 -13 -8 -17 -1 -26 39 -5 22 -4 26 4 15 9 -13 10 -13 11 0 0 8 2 22 4
31 1 8 -8 33 -21 55 -17 28 -24 34 -24 19 0 -11 10 -36 21 -55 16 -26 17 -31
5 -21 -9 8 -26 34 -37 59 -22 48 -27 49 -35 8 -6 -37 11 -96 41 -140 26 -38
33 -62 15 -51 -5 3 -10 -1 -10 -10 0 -13 4 -14 21 -4 15 8 24 8 32 0 8 -8 5
-11 -9 -11 -31 0 -34 -8 -16 -41 29 -50 57 -36 55 29 -1 26 4 17 56 -98 10
-23 11 -23 7 -3 -6 32 12 40 20 9 6 -24 7 -24 50 -11 24 7 52 12 62 10 9 -2
23 -4 31 -4 28 -2 2 -13 -41 -17 -46 -6 -67 -17 -49 -28 6 -4 11 -12 11 -18 0
-6 -8 -4 -18 5 -28 25 -39 20 -14 -6 14 -15 19 -30 15 -45 -7 -27 -18 -28 -32
-4 -9 15 -10 15 -11 -4 0 -21 32 -103 47 -117 12 -12 42 -98 32 -91 -5 3 -9
-2 -9 -11 0 -25 20 -56 31 -50 5 4 8 1 7 -5 -2 -6 7 -18 18 -26 21 -14 22 -13
34 37 8 31 10 71 5 103 -4 28 -6 64 -6 80 2 32 36 86 55 86 23 0 46 36 46 72
0 46 -41 167 -69 207 -12 17 -35 38 -51 48 -21 12 -28 23 -25 34 6 17 -56 152
-74 163 -17 11 -10 -137 8 -159 15 -19 15 -19 -4 -5 -42 31 -47 40 -40 68 18
73 -4 130 -65 165 -17 10 -28 23 -24 28 3 5 10 7 15 4 17 -11 9 4 -18 33 -16
16 -36 32 -45 35 -19 7 -18 -4 6 -72 21 -57 14 -64 -8 -9 -31 75 -41 93 -57
96 -8 1 -17 0 -20 -3z m428 -621 c2 -6 -3 -14 -12 -18 -9 -3 -13 -2 -10 4 3 6
1 10 -4 10 -6 0 -11 5 -11 11 0 14 32 8 37 -7z"/>
<path d="M3064 4934 c5 -13 1 -15 -19 -12 -14 3 -25 1 -25 -5 0 -5 -7 -3 -17
4 -15 13 -16 11 -9 -14 6 -25 2 -30 -66 -73 -137 -87 -373 -247 -409 -278 -76
-66 -91 -77 -139 -103 -28 -15 -85 -53 -128 -85 -42 -32 -82 -58 -88 -58 -6 0
-22 -10 -36 -23 -13 -12 -44 -28 -69 -35 -68 -19 -139 -54 -139 -68 0 -7 -6
-14 -12 -17 -7 -2 6 -7 30 -11 23 -4 42 -12 42 -18 0 -6 -7 -8 -14 -5 -13 5
-52 -8 -96 -33 -8 -4 -14 -13 -13 -19 2 -6 -3 -8 -11 -5 -7 3 -29 -4 -47 -15
-19 -12 -46 -26 -61 -32 -30 -12 -37 -29 -13 -29 8 0 32 9 52 20 21 11 45 20
55 20 9 0 20 5 23 10 3 6 15 10 26 10 11 0 41 9 66 21 25 11 62 22 82 24 51 5
91 22 91 39 0 29 177 46 234 22 20 -8 35 -20 32 -24 -3 -5 -40 -12 -83 -16
-137 -11 -187 -26 -543 -163 -80 -30 -155 -59 -167 -64 -39 -16 -72 -29 -95
-38 -87 -35 -106 -39 -117 -28 -8 8 -11 8 -11 -2 0 -8 -6 -11 -15 -7 -9 3 -15
0 -15 -10 0 -11 -6 -13 -21 -9 -15 5 -22 2 -26 -13 -3 -13 -11 -18 -22 -15
-11 3 -26 -5 -37 -20 -11 -13 -29 -29 -42 -36 -12 -6 -22 -17 -22 -24 0 -7
-10 -17 -23 -23 -100 -51 -155 -81 -169 -94 -10 -8 -39 -33 -66 -55 -57 -48
-105 -113 -127 -175 -43 -120 -59 -531 -35 -878 15 -212 26 -827 18 -1022 -12
-304 16 -922 49 -1079 8 -42 18 -109 20 -150 2 -41 14 -106 27 -145 l22 -71
3036 -3 c2533 -2 3037 0 3041 11 9 24 58 318 75 457 17 133 18 135 42 134 22
-2 129 21 135 28 2 2 17 30 35 63 28 51 31 66 26 108 -3 27 -11 55 -17 63 -7
8 -14 64 -17 132 -4 114 -22 178 -52 197 -5 3 -10 12 -10 20 0 27 -72 165 -86
165 -8 0 -14 -7 -14 -15 0 -17 -12 -19 -26 -5 -6 6 -21 6 -42 1 -27 -8 -36 -6
-61 15 -16 13 -35 24 -42 24 -8 0 -27 13 -44 30 -73 71 -107 99 -118 94 -7 -2
-29 12 -51 32 -42 39 -46 39 -241 49 -55 2 -125 6 -155 8 -30 3 -63 0 -73 -5
-11 -6 -45 -7 -78 -3 -51 6 -59 10 -54 25 4 13 -3 21 -25 30 -17 7 -32 11 -34
9 -1 -2 -19 -29 -39 -59 -56 -85 -133 -167 -192 -202 -33 -19 -59 -44 -66 -60
-25 -61 12 -187 91 -309 47 -72 50 -89 14 -60 -34 27 -44 19 -37 -27 9 -60 81
-186 145 -253 31 -33 40 -51 45 -83 4 -32 3 -34 -18 -29 -20 6 -21 4 -15 -33
5 -32 4 -36 -5 -19 -6 11 -20 29 -31 40 -11 11 -29 35 -41 54 -12 19 -39 60
-59 90 -20 31 -50 81 -66 111 -17 30 -40 66 -51 80 l-22 25 14 -25 c18 -30 33
-89 19 -75 -19 20 -82 192 -102 275 -22 95 -25 130 -10 130 17 0 8 121 -12
162 -10 20 -22 39 -27 43 -14 8 -124 217 -166 315 -39 90 -58 200 -36 200 17
0 7 66 -21 142 -15 42 -34 71 -75 109 -30 28 -52 53 -51 55 2 2 19 -10 36 -26
42 -38 40 -25 -3 25 -20 22 -38 48 -41 57 -3 9 -11 15 -19 12 -14 -6 -26 12
-45 61 l-10 27 29 -24 c17 -13 33 -30 36 -38 11 -28 74 -92 84 -85 7 4 6 13
-3 28 -8 12 -25 49 -37 82 -32 84 -30 223 4 355 22 82 23 99 12 125 -6 17 -16
57 -21 90 -4 33 -9 65 -10 70 -1 6 -3 19 -4 30 -2 15 -4 12 -10 -10 -7 -28 -8
-29 -9 -4 0 14 4 30 11 37 9 9 7 17 -8 34 -10 13 -14 19 -9 15 18 -15 30 77
25 192 -4 87 -2 115 8 118 8 4 9 9 3 17 -11 13 -39 236 -36 281 2 17 -4 41
-12 54 -8 13 -11 21 -6 18 11 -7 4 133 -9 157 -7 13 -13 15 -21 7 -17 -17 -36
19 -37 72 0 30 -4 46 -10 42 -10 -6 -14 12 -10 53 1 13 -4 30 -11 38 -7 9 -9
30 -6 56 3 23 2 36 -2 29 -11 -18 -20 6 -15 39 13 83 14 95 5 74 -5 -12 -16
-24 -25 -27 -13 -5 -12 2 5 45 19 49 19 105 0 93 -5 -2 -11 2 -14 9 -3 8 -1
16 4 18 5 2 12 30 14 63 3 33 9 76 15 95 5 19 10 48 10 64 l0 29 -22 -19 c-13
-10 -18 -12 -12 -4 16 22 27 73 14 65 -14 -9 -13 1 5 35 11 22 12 30 3 30 -9
0 -9 3 0 12 11 11 17 68 7 68 -2 0 -25 -21 -50 -46 -40 -41 -50 -46 -46 -21 2
14 -8 7 -20 -14 -8 -15 -8 -19 0 -15 6 4 11 0 11 -9 0 -13 4 -14 20 -5 25 13
26 -1 1 -24 -12 -11 -17 -27 -15 -46 3 -23 -2 -34 -21 -46 -14 -9 -25 -25 -25
-35 0 -11 -4 -19 -10 -19 -5 0 -10 -9 -10 -20 0 -14 5 -18 17 -13 15 6 14 2
-4 -20 -12 -15 -19 -36 -16 -46 3 -11 -7 -47 -22 -80 -21 -46 -25 -64 -17 -74
8 -10 8 -17 1 -24 -7 -7 -11 -55 -11 -120 0 -62 -5 -114 -11 -121 -18 -23
-122 -71 -214 -99 -76 -23 -106 -27 -218 -27 -152 0 -235 17 -367 76 -114 51
-123 56 -190 105 -50 38 -74 47 -170 68 -21 4 -28 11 -28 28 1 20 2 20 11 5 7
-12 22 -18 47 -18 l37 0 -35 16 c-19 9 -49 22 -66 31 -17 8 -49 13 -70 11 -28
-2 -38 1 -36 10 2 13 -47 37 -57 26 -3 -3 3 -12 13 -20 11 -7 17 -17 13 -20
-6 -6 -26 5 -108 61 -59 40 -86 39 -113 -2 -11 -18 -26 -33 -33 -33 -7 0 -16
-6 -20 -14 -4 -7 -21 -20 -38 -29 -41 -22 -91 -64 -84 -71 3 -3 27 10 54 29
27 19 59 35 72 35 16 0 30 11 44 34 21 36 55 40 46 6 -2 -10 -1 -24 4 -31 5
-9 -1 -23 -18 -41 -30 -32 -14 -39 17 -8 24 24 40 26 40 5 0 -22 18 -18 31 7
6 12 21 31 32 42 l21 21 -17 -25 c-9 -14 -26 -43 -38 -64 -11 -21 -29 -48 -40
-59 -10 -11 -21 -29 -25 -39 -4 -14 -11 -17 -22 -12 -10 3 -37 10 -62 15 -25
4 -76 15 -115 24 -145 34 -284 47 -376 36 -47 -6 -113 -11 -148 -11 l-62 0 38
41 c58 63 217 194 318 261 50 33 118 87 153 121 l63 61 59 -62 c33 -34 62 -62
64 -62 9 0 -17 54 -36 76 -10 11 -18 32 -18 47 0 14 -4 29 -10 32 -5 3 -10 19
-10 34 0 16 -11 57 -24 92 -20 54 -28 64 -50 67 -14 2 -26 8 -26 13 0 5 -5 9
-11 9 -6 0 -8 -7 -5 -16z m1969 -234 c-3 -11 -9 -17 -15 -14 -5 3 -4 12 3 20
16 19 18 18 12 -6z m-1424 -389 c11 -7 9 -10 -8 -16 -25 -8 -36 -2 -26 14 8
13 15 14 34 2z m1406 -20 c-8 -17 -21 -33 -27 -37 -8 -5 -7 1 3 16 8 14 19 31
23 38 15 25 16 11 1 -17z m-1367 -33 c-6 -18 -28 -21 -28 -4 0 9 7 16 16 16 9
0 14 -5 12 -12z m38 -64 c-5 -13 -10 -14 -18 -6 -6 6 -8 18 -4 28 5 13 10 14
18 6 6 -6 8 -18 4 -28z m71 0 c7 -18 -17 -38 -31 -24 -11 11 -1 40 14 40 6 0
13 -7 17 -16z m58 -45 c0 -7 -8 -15 -17 -17 -18 -3 -25 18 -11 32 10 10 28 1
28 -15z m72 -35 c8 -21 -13 -42 -28 -27 -13 13 -5 43 11 43 6 0 13 -7 17 -16z
m1093 6 c0 -5 -4 -10 -10 -10 -5 0 -10 5 -10 10 0 6 5 10 10 10 6 0 10 -4 10
-10z m-70 -31 c0 -22 -25 -26 -33 -5 -6 16 12 38 25 30 4 -3 8 -14 8 -25z
m-56 -7 c2 -4 1 -14 -4 -22 -7 -11 -12 -12 -21 -3 -6 6 -8 16 -5 22 8 13 23
14 30 3z m-74 -37 c0 -15 -6 -25 -14 -25 -22 0 -30 19 -16 35 18 22 30 18 30
-10z m-860 0 c0 -8 -4 -15 -10 -15 -5 0 -10 7 -10 15 0 8 5 15 10 15 6 0 10
-7 10 -15z m108 -26 c4 -19 -27 -34 -41 -20 -14 14 0 43 20 39 10 -2 19 -10
21 -19z m682 2 c0 -21 -26 -36 -36 -20 -9 15 3 39 21 39 8 0 15 -9 15 -19z
m-625 -16 c0 -11 -7 -21 -16 -23 -18 -3 -33 23 -23 39 10 17 39 5 39 -16z m99
-1 c8 -21 -1 -34 -25 -34 -12 0 -19 7 -19 18 0 34 33 45 44 16z m442 5 c10
-17 -23 -46 -37 -32 -7 7 -9 19 -6 27 7 18 33 21 43 5z m-358 -32 c4 -20 -25
-34 -40 -19 -15 15 -1 44 19 40 10 -2 19 -11 21 -21z m272 4 c0 -26 -17 -36
-36 -21 -11 10 -12 16 -3 26 17 20 39 17 39 -5z m-180 -16 c0 -18 -5 -25 -19
-25 -26 0 -36 17 -21 35 19 23 40 18 40 -10z m80 10 c13 -16 6 -35 -15 -35
-18 0 -28 17 -21 35 7 19 20 19 36 0z m-1341 -56 c75 -12 92 -20 65 -30 -18
-7 -17 -8 3 -8 12 -1 25 4 28 9 8 13 45 13 45 1 0 -6 -5 -13 -10 -16 -6 -4 -8
-15 -5 -26 7 -21 -3 -19 -80 19 -22 11 -64 28 -92 37 -83 27 -66 33 46 14z
m389 -27 c2 -7 -6 -12 -17 -12 -21 0 -27 11 -14 24 9 9 26 2 31 -12z m40 -43
c-2 -6 -8 -10 -13 -10 -5 0 -11 4 -13 10 -2 6 4 11 13 11 9 0 15 -5 13 -11z
m71 -38 c18 -11 5 -31 -20 -31 -18 0 -26 20 -12 33 8 9 15 9 32 -2z m1567 -60
c-11 -18 -36 -13 -36 7 0 10 3 22 7 26 10 10 37 -20 29 -33z m-1516 15 c0 -20
-19 -31 -32 -18 -6 6 -7 15 -4 21 10 16 36 13 36 -3z m1450 -60 c-15 -15 -34
9 -26 31 7 17 8 17 22 -1 9 -13 11 -23 4 -30z m-1382 1 c2 -11 -3 -17 -16 -17
-20 0 -36 23 -24 34 11 12 37 1 40 -17z m1310 -20 c4 -22 -27 -35 -38 -16 -10
15 7 42 24 36 6 -2 12 -11 14 -20z m-1245 7 c9 -9 -4 -34 -18 -34 -14 0 -27
25 -18 34 4 3 12 6 18 6 6 0 14 -3 18 -6z m87 -43 c0 -27 -19 -36 -37 -18 -18
18 -9 37 18 37 12 0 19 -7 19 -19z m1090 -1 c0 -13 -7 -20 -20 -20 -19 0 -27
20 -13 33 13 14 33 6 33 -13z m-2040 -7 c8 -4 23 -5 33 -4 24 3 127 -29 127
-40 0 -4 -9 -14 -21 -22 -11 -8 -22 -23 -23 -33 -2 -13 -11 -18 -29 -17 -26 2
-138 50 -147 64 -4 6 -82 22 -117 23 -30 2 -15 21 20 27 20 3 40 9 43 12 7 7
89 -1 114 -10z m1018 -21 c2 -14 -2 -22 -12 -22 -19 0 -29 17 -22 36 8 22 30
12 34 -14z m945 4 c8 -20 -20 -43 -35 -28 -14 14 -3 42 16 42 7 0 16 -6 19
-14z m-850 -20 c9 -22 -19 -42 -37 -26 -19 15 -10 40 14 40 10 0 20 -6 23 -14z
m767 -16 c0 -22 -30 -35 -42 -18 -12 19 -10 26 9 37 22 12 33 5 33 -19z m-80
-19 c0 -26 -17 -36 -36 -21 -11 10 -12 16 -3 26 17 20 39 17 39 -5z m-440 -10
c0 -27 -19 -36 -37 -18 -18 18 -9 37 18 37 12 0 19 -7 19 -19z m88 -4 c2 -11
-3 -17 -17 -17 -23 0 -35 15 -26 31 10 15 39 6 43 -14z m81 9 c9 -10 8 -16 -4
-26 -19 -15 -47 3 -38 26 7 18 27 18 42 0z m96 -12 c0 -10 -8 -20 -18 -22 -22
-4 -35 27 -16 39 20 12 34 5 34 -17z m80 0 c0 -12 -8 -20 -22 -22 -17 -3 -23
2 -23 16 0 20 16 33 35 28 6 -2 10 -11 10 -22z m-1551 1 c-4 -8 -13 -15 -21
-15 -13 0 -13 3 -3 15 7 8 16 15 21 15 5 0 6 -7 3 -15z m116 8 c-1 -11 -70
-42 -70 -32 0 11 41 39 57 39 7 0 13 -3 13 -7z m900 -9 c0 -9 -7 -14 -17 -12
-25 5 -28 28 -4 28 12 0 21 -6 21 -16z m105 -4 c0 -8 -10 -16 -22 -18 -22 -3
-32 16 -16 32 12 11 38 2 38 -14z m-1093 -19 c-8 -4 -12 -12 -10 -16 1 -4 -5
-13 -14 -19 -14 -8 -21 -7 -35 6 -18 18 -15 21 32 31 33 8 41 7 27 -2z m80
-32 c17 9 14 4 -9 -20 l-33 -34 -22 22 c-12 13 -19 25 -16 28 3 3 13 -1 21
-10 22 -21 29 -19 22 8 -5 17 -4 19 4 7 9 -13 14 -13 33 -1z m28 -37 c0 -5 -7
-9 -15 -9 -8 0 -12 4 -9 9 3 4 9 8 15 8 5 0 9 -4 9 -8z m-395 -143 c61 -10
146 -38 155 -50 3 -3 16 -10 30 -13 94 -27 135 -56 79 -56 -10 0 -19 -7 -19
-15 0 -18 5 -18 32 -4 23 13 31 8 22 -14 -3 -9 -12 -13 -20 -10 -9 3 -14 -2
-14 -17 0 -17 3 -20 13 -12 8 7 16 6 24 -3 8 -9 9 -16 3 -20 -6 -3 -10 -14
-10 -23 -1 -39 -125 -189 -181 -218 -16 -8 -29 -19 -29 -25 0 -5 13 -3 29 6
30 15 49 6 35 -16 -4 -8 0 -8 15 0 11 7 21 16 21 21 0 6 7 10 16 10 12 0 15 7
12 24 -4 18 -1 23 9 19 8 -3 12 -12 9 -19 -8 -21 11 -17 20 4 4 9 8 20 8 24 1
3 4 9 8 13 4 4 4 13 1 21 -11 30 8 12 27 -26 11 -22 16 -40 11 -40 -5 0 -12
-12 -16 -27 -3 -16 -16 -38 -27 -50 -11 -12 -17 -27 -13 -33 4 -6 2 -17 -4
-24 -8 -10 -5 -16 15 -25 17 -7 24 -17 20 -27 -3 -8 -2 -13 3 -10 11 7 33 -18
24 -27 -3 -4 1 -7 11 -7 17 0 59 -77 50 -92 -8 -13 -26 -9 -40 10 -9 12 -13
13 -14 3 0 -8 -6 -11 -16 -7 -13 5 -14 4 -6 -7 7 -8 9 -16 7 -19 -3 -3 6 -3
20 -1 14 3 25 1 25 -5 0 -17 -233 -166 -261 -168 -14 -1 -46 -13 -70 -27 -45
-26 -118 -40 -119 -22 0 6 2 29 6 52 6 43 16 52 97 82 15 6 27 15 27 21 0 6
-3 9 -7 7 -27 -14 -53 -21 -85 -21 -36 -1 -39 1 -52 41 l-15 42 47 29 c52 32
98 107 87 142 -5 17 -13 19 -63 15 -31 -2 -72 -9 -91 -14 -23 -7 -38 -7 -47 0
-6 5 -17 8 -24 7 -7 -2 -13 14 -16 40 -3 30 -1 41 7 36 8 -5 8 -1 0 13 -10 20
-46 24 -82 9 -21 -9 -36 13 -18 25 11 7 11 11 1 17 -7 5 -10 15 -7 24 8 20
-22 45 -37 30 -6 -6 -18 -8 -27 -6 -9 3 -5 -2 9 -10 l25 -15 -23 -1 c-15 0
-26 -7 -29 -18 -6 -25 -106 -90 -149 -98 -19 -3 -37 -10 -40 -15 -2 -5 -24
-13 -47 -19 -23 -7 -59 -22 -79 -36 -21 -13 -42 -24 -47 -24 -13 0 -43 -68
-36 -80 4 -6 12 -7 18 -3 42 26 65 -2 27 -34 -11 -10 -23 -32 -26 -50 -3 -18
-10 -33 -15 -33 -5 0 -9 -7 -9 -16 0 -8 5 -12 10 -9 6 3 10 1 10 -4 0 -6 -4
-11 -10 -11 -18 0 -11 -35 10 -48 15 -9 26 -10 40 -2 25 13 50 2 50 -22 0 -22
-31 -54 -61 -63 -11 -4 -19 -16 -19 -27 0 -14 -5 -18 -15 -14 -8 3 -15 2 -15
-2 0 -11 -77 -43 -140 -58 -30 -7 -63 -16 -72 -19 -13 -5 -18 -2 -18 8 0 9 -9
22 -20 30 -14 10 -18 20 -13 33 6 17 5 17 -10 5 -15 -12 -17 -11 -17 13 0 16
5 26 15 26 8 0 15 8 15 18 0 29 31 114 52 145 11 15 15 27 10 27 -12 0 -53
-39 -73 -70 l-17 -25 -10 40 c-25 99 -29 136 -24 225 l5 95 79 80 c62 61 86
94 105 142 24 57 31 65 97 104 39 23 89 57 111 74 31 25 53 34 95 38 65 6 162
43 234 89 41 27 59 32 96 30 25 -2 63 3 85 11 48 17 158 20 240 6z m388 -134
c-6 -17 -23 -20 -23 -5 0 6 5 10 11 10 5 0 7 5 3 12 -4 7 -3 8 4 4 6 -4 9 -13
5 -21z m17 -140 c19 -122 22 -145 17 -145 -7 0 -36 137 -41 193 -6 74 9 43 24
-48z m-16 -579 c-3 -8 -13 -17 -22 -21 -13 -5 -13 -2 3 15 21 24 26 25 19 6z
m-57 -48 l0 -53 -11 38 c-6 22 -15 35 -20 30 -5 -4 -2 2 5 15 20 33 25 27 26
-30z m-17 -46 c0 -4 -9 -13 -20 -20 -19 -12 -20 -11 -8 8 13 20 28 27 28 12z
m-897 -203 c-11 -11 -6 -49 7 -49 4 0 7 -11 6 -25 0 -14 -6 -25 -11 -25 -6 0
-16 -9 -23 -20 -15 -24 -9 -25 23 -4 13 9 29 13 34 10 5 -4 12 -2 16 4 12 19
22 10 17 -16 l-5 -27 22 22 c31 31 53 28 41 -5 -14 -36 -13 -51 2 -36 7 7 16
12 20 12 5 0 5 -69 2 -152 -13 -331 -13 -346 19 -533 15 -89 44 -194 97 -356
33 -99 60 -193 60 -210 0 -17 5 -40 12 -52 12 -22 44 -161 53 -227 5 -34 4
-34 -7 -8 -13 31 -45 51 -33 21 4 -10 9 -55 12 -101 5 -74 4 -82 -11 -76 -12
5 -16 0 -16 -17 -1 -34 -27 -79 -34 -59 -3 8 -11 29 -17 45 l-13 30 -4 -25
c-2 -14 -8 -30 -13 -36 -5 -6 -1 -32 10 -65 22 -62 18 -115 -10 -130 -30 -15
-55 5 -86 68 -17 34 -29 50 -31 40 -5 -27 -22 -20 -37 17 -11 26 -22 35 -45
38 -25 4 -30 1 -30 -16 0 -17 -3 -16 -16 9 -8 17 -24 39 -34 50 -11 12 -23 47
-29 85 -33 212 -44 263 -66 335 -14 44 -33 95 -41 113 -8 18 -19 57 -24 87 -5
31 -12 61 -17 68 -11 17 -51 131 -73 207 -10 36 -19 61 -20 55 -3 -19 -39 150
-41 190 l-2 40 -7 -35 c-5 -22 -8 -27 -9 -13 0 12 -5 25 -11 28 -5 3 -10 21
-11 38 0 18 -4 41 -9 52 -8 19 -9 19 -9 1 -1 -31 -23 -4 -38 47 -17 57 -16
112 2 127 8 7 15 16 15 21 0 5 -7 6 -15 3 -22 -9 -18 3 10 34 24 26 31 42 19
42 -4 0 -18 -12 -31 -27 -14 -16 -23 -21 -21 -13 3 8 -1 20 -7 26 -6 7 -19 52
-29 100 -10 49 -28 129 -42 177 -13 48 -24 102 -24 118 l0 31 31 -27 c27 -22
40 -26 89 -24 64 2 93 -8 66 -23 -16 -9 -16 -11 -1 -28 14 -16 14 -19 0 -33
-8 -9 -15 -20 -15 -26 0 -6 -4 -11 -10 -11 -5 0 -10 -7 -10 -15 0 -10 40 5
138 54 75 38 147 72 160 76 12 3 34 22 49 41 l26 35 21 -20 c15 -15 17 -24 9
-32z m1320 -144 c-3 -9 -8 -14 -10 -11 -3 3 -2 9 2 15 9 16 15 13 8 -4z m1345
-114 c3 -19 0 -22 -13 -18 -9 4 -14 3 -10 -3 11 -18 -5 -32 -21 -19 -15 12
-19 51 -7 63 15 15 48 1 51 -23z m237 -70 c-3 -6 -11 -11 -16 -11 -5 0 -4 6 3
14 14 16 24 13 13 -3z m-2235 -21 c0 -5 -5 -10 -11 -10 -5 0 -7 5 -4 10 3 6 8
10 11 10 2 0 4 -4 4 -10z m1530 -45 c7 -9 10 -25 6 -41 -5 -20 -12 -25 -34
-22 -34 4 -44 45 -16 65 23 17 29 16 44 -2z m155 -55 c0 -28 -4 -35 -20 -35
-26 0 -46 52 -25 66 28 17 45 6 45 -31z m215 -21 c0 -6 -4 -7 -10 -4 -5 3 -10
11 -10 16 0 6 5 7 10 4 6 -3 10 -11 10 -16z m2 -36 c21 -19 23 -44 6 -61 -20
-20 -48 -14 -58 14 -13 32 -13 30 6 48 19 20 23 20 46 -1z m168 -3 c0 -5 9
-10 20 -10 23 0 27 -28 5 -36 -8 -4 -22 -1 -30 6 -17 14 -20 50 -5 50 6 0 10
-4 10 -10z m131 -18 c24 -20 21 -48 -6 -58 -17 -7 -55 22 -55 41 0 12 20 35
31 35 4 0 17 -8 30 -18z m-1007 -54 c-3 -4 -9 -8 -15 -8 -5 0 -9 4 -9 8 0 5 7
9 15 9 8 0 12 -4 9 -9z m-1554 -35 c-11 -17 -11 -17 -6 0 3 10 6 24 7 30 0 9
2 9 5 0 3 -7 0 -20 -6 -30z m1613 13 c3 -7 -6 -26 -20 -42 -24 -28 -25 -28
-39 -10 -18 26 -18 32 6 56 20 20 45 18 53 -4z m617 -15 c15 -30 12 -49 -11
-61 -15 -9 -24 -8 -35 1 -14 12 -19 60 -7 72 13 14 43 7 53 -12z m10 -95 c16
-20 9 -60 -12 -64 -26 -5 -45 41 -27 62 18 19 24 20 39 2z m111 -26 c12 -7 19
-21 19 -40 0 -36 -10 -43 -44 -27 -28 13 -35 44 -14 65 15 15 15 15 39 2z
m-1106 -20 c-3 -5 -10 -10 -16 -10 -5 0 -9 5 -9 10 0 6 7 10 16 10 8 0 12 -4
9 -10z m1691 -26 c7 -29 -2 -44 -26 -44 -23 0 -39 58 -19 70 18 12 38 1 45
-26z m-1801 -54 c-5 -8 -11 -8 -17 -2 -6 6 -7 16 -3 22 5 8 11 8 17 2 6 -6 7
-16 3 -22z m1012 -46 c8 -22 -10 -49 -32 -49 -22 0 -40 27 -32 49 8 21 56 21
64 0z m-475 -43 c4 -31 -24 -50 -46 -32 -21 18 -20 58 2 70 21 12 39 -3 44
-38z m343 -41 c3 -5 1 -10 -4 -10 -6 0 -11 5 -11 10 0 6 2 10 4 10 3 0 8 -4
11 -10z m-85 -72 c0 -4 -8 -8 -19 -8 -22 0 -46 25 -32 34 5 3 12 0 14 -6 3 -7
6 -4 7 7 1 20 1 20 15 1 8 -11 15 -23 15 -28z m138 12 c4 -36 -30 -56 -53 -30
-25 28 -11 62 23 58 20 -2 28 -9 30 -28z m-308 15 c0 -2 -4 -15 -10 -29 -13
-34 -50 -36 -50 -3 0 13 2 26 4 28 5 5 56 8 56 4z m596 -20 c15 -23 12 -65 -5
-65 -8 0 -41 65 -41 80 0 19 30 10 46 -15z m154 -70 c16 -20 2 -37 -34 -41
-28 -3 -42 21 -25 42 15 19 43 18 59 -1z m710 -290 c0 -27 -25 -9 -26 18 -1
28 0 29 12 12 8 -10 14 -24 14 -30z m39 -60 c0 -5 -4 -3 -9 5 -5 8 -9 22 -9
30 0 16 17 -16 18 -35z m-1269 -555 c0 -5 -5 -10 -11 -10 -5 0 -7 5 -4 10 3 6
8 10 11 10 2 0 4 -4 4 -10z m-2153 -52 c-3 -8 -6 -5 -6 6 -1 11 2 17 5 13 3
-3 4 -12 1 -19z m1759 -13 c8 -20 -13 -45 -37 -45 -13 0 -19 7 -19 23 0 13 3
27 7 30 12 13 44 7 49 -8z"/>
<path d="M2946 3229 c-11 -10 -15 -19 -9 -19 5 0 18 9 28 20 23 26 6 25 -19
-1z"/>
<path d="M2910 3200 c0 -5 5 -10 11 -10 5 0 7 5 4 10 -3 6 -8 10 -11 10 -2 0
-4 -4 -4 -10z"/>
<path d="M2985 3090 c-3 -5 -2 -10 4 -10 5 0 13 5 16 10 3 6 2 10 -4 10 -5 0
-13 -4 -16 -10z"/>
<path d="M2290 2900 c-8 -5 -12 -11 -9 -14 2 -3 11 -1 19 4 8 5 12 11 9 14 -2
3 -11 1 -19 -4z"/>
<path d="M2601 2783 c-7 -8 -10 -17 -7 -20 9 -9 29 13 25 25 -2 6 -10 3 -18
-5z"/>
<path d="M2952 2678 c-40 -40 -51 -58 -34 -58 21 1 105 100 84 100 -5 0 -28
-19 -50 -42z"/>
<path d="M3050 2705 c0 -8 5 -15 10 -15 6 0 10 7 10 15 0 8 -4 15 -10 15 -5 0
-10 -7 -10 -15z"/>
<path d="M2884 2680 c-23 -10 -45 -23 -49 -30 -9 -14 3 -28 13 -15 4 6 16 11
27 13 20 4 78 53 60 51 -6 0 -29 -9 -51 -19z"/>
<path d="M3045 2660 c4 -14 2 -20 -6 -18 -12 3 -28 -32 -42 -93 -7 -26 -6 -26
31 -16 35 9 38 12 34 41 -4 30 -4 30 12 11 9 -12 15 -15 16 -7 0 7 5 10 10 7
6 -3 10 -1 10 4 0 6 -5 11 -11 11 -6 0 -8 9 -4 20 5 15 3 18 -9 14 -12 -5 -16
0 -16 20 0 17 -5 26 -16 26 -11 0 -14 -6 -9 -20z"/>
<path d="M2990 2655 c0 -8 -4 -15 -9 -15 -5 0 -11 -6 -14 -14 -8 -20 23 -13
39 9 18 24 18 35 -1 35 -8 0 -15 -7 -15 -15z"/>
<path d="M1926 2634 c-4 -10 -1 -14 6 -12 15 5 23 28 10 28 -5 0 -13 -7 -16
-16z"/>
<path d="M3110 2629 c0 -5 5 -7 10 -4 6 3 10 8 10 11 0 2 -4 4 -10 4 -5 0 -10
-5 -10 -11z"/>
<path d="M1970 2580 c0 -5 5 -10 10 -10 6 0 10 5 10 10 0 6 -4 10 -10 10 -5 0
-10 -4 -10 -10z"/>
<path d="M2946 2534 c-8 -22 -8 -26 3 -20 5 4 11 0 14 -6 2 -7 4 -1 3 14 -1
31 -11 36 -20 12z"/>
<path d="M1841 1714 c-12 -27 -11 -28 4 -12 10 9 16 21 13 28 -2 7 -10 -1 -17
-16z"/>
<path d="M5728 4905 c2 -14 6 -25 8 -25 2 0 4 11 4 25 0 14 -4 25 -9 25 -4 0
-6 -11 -3 -25z"/>
<path d="M5773 4889 c4 -13 7 -27 7 -31 0 -5 4 -8 9 -8 11 0 1 49 -12 57 -6 4
-8 -2 -4 -18z"/>
<path d="M5761 4834 c0 -11 3 -14 6 -6 3 7 2 16 -1 19 -3 4 -6 -2 -5 -13z"/>
<path d="M4935 4830 c-19 -8 -19 -9 3 -9 12 -1 22 4 22 9 0 6 -1 10 -2 9 -2 0
-12 -4 -23 -9z"/>
<path d="M4658 4747 c-21 -29 -47 -64 -59 -79 -17 -23 -18 -28 -5 -28 16 0 91
69 83 77 -3 2 1 21 9 40 9 19 14 37 12 38 -2 2 -20 -20 -40 -48z"/>
<path d="M4924 4775 c-3 -8 -3 -19 1 -25 11 -18 25 -11 25 15 0 27 -17 34 -26
10z"/>
<path d="M3303 4472 c-6 -4 -15 -21 -19 -37 -7 -26 -6 -28 8 -15 11 12 32 61
25 60 -1 0 -7 -4 -14 -8z"/>
<path d="M3266 4455 c-9 -26 -7 -32 5 -12 6 10 9 21 6 23 -2 3 -7 -2 -11 -11z"/>
<path d="M206 4405 c-4 -10 1 -15 14 -15 13 0 18 5 14 15 -4 8 -10 15 -14 15
-4 0 -10 -7 -14 -15z"/>
<path d="M1320 4374 c57 -29 60 -29 60 0 0 22 -4 24 -52 24 l-52 0 44 -24z"/>
<path d="M1226 4365 c-20 -30 -5 -33 30 -6 20 16 21 20 8 25 -21 8 -20 9 -38
-19z"/>
<path d="M5990 4386 c0 -2 7 -9 15 -16 13 -11 14 -10 9 4 -5 14 -24 23 -24 12z"/>
<path d="M5990 4245 c0 -9 -4 -14 -9 -11 -17 11 3 -75 34 -149 7 -16 16 -39
19 -50 6 -16 9 -17 16 -5 7 10 10 11 10 3 0 -7 5 -13 10 -13 16 0 12 28 -6 38
-9 5 -16 13 -16 18 0 5 -4 8 -8 7 -5 -1 -7 11 -5 27 2 17 -2 46 -10 65 -22 51
-17 57 6 6 24 -54 36 -49 13 5 -19 47 -54 84 -54 59z"/>
<path d="M6972 4223 c-15 -13 -24 -37 -32 -83 -10 -63 -12 -275 -3 -235 3 11
9 24 14 30 5 5 9 17 9 27 0 23 33 88 70 140 34 46 56 106 44 118 -5 5 -25 11
-44 15 -27 5 -41 2 -58 -12z"/>
<path d="M5955 4136 c3 -72 17 -106 45 -106 20 0 19 7 -14 95 -8 22 -15 48
-16 58 0 9 -4 17 -9 17 -5 0 -8 -29 -6 -64z"/>
<path d="M5160 4163 c0 -5 5 -15 10 -23 8 -12 10 -11 10 8 0 12 -4 22 -10 22
-5 0 -10 -3 -10 -7z"/>
<path d="M5980 4000 c0 -18 26 -40 48 -40 13 0 2 42 -12 52 -20 14 -36 8 -36
-12z"/>
<path d="M6050 3994 c7 -7 10 -20 7 -28 -4 -9 8 -17 35 -25 50 -16 43 -26 -8
-12 -31 8 -41 8 -55 -5 -15 -14 -15 -17 4 -55 11 -23 31 -46 43 -51 50 -23
110 36 86 85 -6 12 -13 40 -14 61 l-3 39 -53 3 c-45 2 -51 0 -42 -12z"/>
<path d="M6000 3945 c0 -8 7 -15 15 -15 8 0 15 4 15 9 0 5 -7 11 -15 15 -9 3
-15 0 -15 -9z"/>
<path d="M5937 3909 c-4 -15 -2 -18 7 -10 7 6 17 7 22 3 4 -4 2 1 -5 11 -17
21 -18 21 -24 -4z"/>
<path d="M1365 3910 c-8 -13 5 -13 25 0 13 8 13 10 -2 10 -9 0 -20 -4 -23 -10z"/>
<path d="M6916 3828 c-13 -128 -15 -204 -7 -218 7 -10 29 -14 74 -15 39 0 71
-6 81 -14 12 -10 20 -11 28 -3 14 14 1 32 -25 32 -12 0 -28 9 -34 19 -7 11
-24 26 -39 33 -35 17 -52 65 -53 151 -1 79 -17 89 -25 15z"/>
<path d="M5944 3838 c1 -21 5 -41 9 -44 3 -3 3 -12 0 -20 -3 -8 0 -14 6 -14 6
0 11 11 11 25 0 25 34 49 52 38 4 -2 4 6 -1 19 -6 16 -17 23 -34 23 -23 1 -26
-2 -21 -25 4 -23 4 -22 -10 5 l-15 30 3 -37z"/>
<path d="M5525 3750 c3 -19 10 -39 15 -44 19 -19 18 0 -1 39 l-19 40 5 -35z"/>
<path d="M5920 3715 c0 -8 5 -15 10 -15 6 0 10 7 10 15 0 8 -4 15 -10 15 -5 0
-10 -7 -10 -15z"/>
<path d="M5560 3682 c0 -7 7 -20 15 -28 19 -20 20 -4 0 22 -9 12 -14 14 -15 6z"/>
<path d="M7330 3631 c0 -10 7 -24 15 -31 13 -11 15 -8 15 19 0 21 -5 31 -15
31 -8 0 -15 -8 -15 -19z"/>
<path d="M5362 3410 c0 -14 2 -19 5 -12 2 6 2 18 0 25 -3 6 -5 1 -5 -13z"/>
<path d="M5241 3364 c0 -11 3 -14 6 -6 3 7 2 16 -1 19 -3 4 -6 -2 -5 -13z"/>
<path d="M5350 3350 c-8 -22 0 -150 10 -150 10 0 21 56 14 75 -4 9 -1 15 7 15
10 1 10 4 -3 13 -9 7 -18 24 -20 37 -2 17 -5 20 -8 10z"/>
<path d="M5242 3300 c0 -14 2 -19 5 -12 2 6 2 18 0 25 -3 6 -5 1 -5 -13z"/>
<path d="M5381 3209 c-7 -16 -14 -46 -15 -67 -1 -20 -6 -45 -10 -55 -5 -10 -3
-30 4 -47 6 -16 9 -34 5 -39 -3 -6 -2 -18 3 -26 12 -23 41 116 40 193 -1 35
-4 65 -7 67 -4 2 -13 -10 -20 -26z"/>
<path d="M5330 3160 c0 -25 4 -39 10 -35 6 3 10 19 10 35 0 16 -4 32 -10 35
-6 4 -10 -10 -10 -35z"/>
<path d="M5302 3030 c0 -19 2 -27 5 -17 2 9 2 25 0 35 -3 9 -5 1 -5 -18z"/>
<path d="M5601 2935 c0 -5 13 -28 29 -49 17 -22 30 -33 30 -25 0 8 -13 30 -30
49 -16 19 -29 31 -29 25z"/>
<path d="M5584 2882 c3 -6 2 -12 -3 -14 -4 -1 -11 -19 -15 -39 -5 -27 -2 -41
13 -57 25 -29 35 -28 26 5 -5 23 -4 25 8 14 10 -7 17 -8 21 -2 4 5 2 12 -4 16
-5 3 -15 16 -21 28 -9 21 -9 20 11 -2 26 -31 37 -21 14 14 -16 24 -65 60 -50
37z"/>
<path d="M5271 2753 c-27 -91 -40 -253 -20 -253 11 0 11 -2 -1 -10 -10 -6 -11
-10 -2 -10 6 0 12 -7 12 -15 0 -21 28 -19 33 3 4 14 5 13 6 -4 0 -11 8 -29 16
-40 14 -19 15 -19 21 4 8 27 28 30 21 2 -3 -11 -1 -18 3 -15 12 7 3 124 -11
141 -8 10 -8 18 -1 27 7 8 7 17 -2 30 -7 9 -11 28 -8 42 2 14 0 25 -6 25 -9 0
-33 -107 -30 -140 2 -32 -2 -50 -13 -50 -8 0 -9 16 -5 53 4 28 9 79 12 112 3
32 10 67 15 77 11 20 2 88 -12 88 -4 0 -17 -30 -28 -67z"/>
<path d="M5351 2654 c0 -11 3 -14 6 -6 3 7 2 16 -1 19 -3 4 -6 -2 -5 -13z"/>
<path d="M5762 2630 c-15 -25 -1 -54 54 -115 l36 -40 -5 30 c-7 36 -56 145
-65 145 -4 0 -13 -9 -20 -20z"/>
<path d="M5680 2490 c0 -6 20 -23 45 -38 24 -15 45 -31 45 -36 0 -4 -11 -1
-25 8 -14 9 -37 24 -52 33 l-28 17 26 -30 c77 -87 79 -89 88 -75 6 9 9 5 9
-13 0 -26 40 -78 95 -124 22 -19 27 -20 27 -8 0 9 -9 24 -19 33 -11 9 -18 20
-15 25 3 5 1 14 -4 21 -5 7 -12 23 -16 37 -7 30 -61 89 -118 130 -43 32 -58
37 -58 20z m125 -90 c3 -6 -1 -7 -9 -4 -18 7 -21 14 -7 14 6 0 13 -4 16 -10z"/>
<path d="M5278 2403 c10 -16 22 -36 25 -45 11 -29 28 -21 21 10 -8 33 -32 62
-51 62 -11 0 -10 -6 5 -27z"/>
<path d="M5171 2367 c7 -15 16 -27 21 -27 14 0 9 16 -13 36 -21 19 -21 19 -8
-9z"/>
<path d="M5730 2355 c7 -9 15 -13 17 -11 7 7 -7 26 -19 26 -6 0 -6 -6 2 -15z"/>
<path d="M5516 2266 c3 -8 18 -22 32 -32 27 -17 27 -17 -2 15 -33 35 -38 37
-30 17z"/>
<path d="M6081 2264 c0 -11 3 -14 6 -6 3 7 2 16 -1 19 -3 4 -6 -2 -5 -13z"/>
<path d="M5457 2236 c-6 -15 21 -40 46 -42 23 -2 21 8 -6 34 -27 26 -33 27
-40 8z"/>
<path d="M6065 2240 c3 -5 1 -27 -4 -47 -10 -37 -1 -66 16 -49 14 13 10 95 -5
101 -7 2 -10 0 -7 -5z"/>
<path d="M5511 2181 c-14 -9 -12 -10 67 -58 32 -20 27 -2 -11 35 -36 35 -36
35 -56 23z"/>
<path d="M5663 2146 c15 -14 33 -26 40 -26 13 1 -16 26 -48 41 -13 7 -10 1 8
-15z"/>
<path d="M6033 2116 c-16 -18 -13 -73 4 -87 13 -12 14 -10 17 24 1 6 5 15 10
18 10 8 0 59 -12 59 -4 -1 -12 -7 -19 -14z"/>
<path d="M5715 2031 c76 -79 104 -95 142 -80 27 10 27 11 9 24 -10 8 -23 12
-27 9 -5 -3 -9 2 -9 10 0 12 -107 73 -140 80 -3 1 -12 5 -20 10 -8 5 12 -19
45 -53z"/>
<path d="M5720 2087 c0 -2 13 -13 30 -25 17 -13 27 -17 24 -8 -4 11 -54 41
-54 33z"/>
<path d="M5390 1951 c0 -6 4 -12 9 -15 4 -3 11 -19 14 -35 4 -17 16 -40 28
-52 15 -15 20 -30 17 -50 -3 -20 1 -34 14 -46 10 -9 18 -21 18 -27 0 -6 7 -24
15 -40 9 -16 13 -31 10 -34 -3 -3 4 -16 16 -28 12 -13 23 -33 24 -46 4 -33 23
-77 40 -94 13 -14 15 -14 15 0 0 9 9 16 20 16 13 0 28 12 38 30 9 16 20 30 25
30 4 0 7 8 7 19 0 10 7 24 15 31 11 9 12 17 4 31 -7 15 -6 19 5 19 17 0 34 67
20 79 -5 5 -31 14 -59 20 -57 14 -93 35 -162 92 -26 21 -53 39 -60 39 -7 0
-18 10 -24 22 -21 38 -49 61 -49 39z m200 -223 c0 -5 -7 -11 -15 -14 -8 -4
-15 -13 -15 -22 0 -12 -3 -13 -11 -5 -8 8 -8 17 0 30 7 14 7 23 -2 32 -9 10
-6 10 16 0 15 -7 27 -16 27 -21z"/>
<path d="M5373 1916 c4 -22 11 -44 17 -50 9 -8 10 0 5 29 -10 54 -30 73 -22
21z"/>
<path d="M5975 1933 c4 -10 10 -28 12 -40 5 -20 33 -54 33 -39 0 11 -42 96
-47 96 -3 0 -2 -8 2 -17z"/>
<path d="M5454 1683 c9 -18 18 -33 20 -33 9 0 -8 41 -22 52 -13 11 -12 8 2
-19z"/>
<path d="M5970 1661 c0 -6 5 -13 10 -16 6 -3 10 1 10 9 0 9 -4 16 -10 16 -5 0
-10 -4 -10 -9z"/>
</g>
</svg>
