<?xml version="1.0" standalone="no"?>
<!DOCTYPE svg PUBLIC "-//W3C//DTD SVG 20010904//EN"
 "http://www.w3.org/TR/2001/REC-SVG-20010904/DTD/svg10.dtd">
<svg version="1.0" xmlns="http://www.w3.org/2000/svg"
 width="201.000000pt" height="251.000000pt" viewBox="0 0 201.000000 251.000000"
 preserveAspectRatio="xMidYMid meet">

<g transform="translate(0.000000,251.000000) scale(0.100000,-0.100000)"
fill="#000000" stroke="none">
<path d="M0 2499 c0 -5 5 -7 10 -4 5 3 10 8 10 11 0 2 -4 4 -10 4 -5 0 -10 -5
-10 -11z"/>
<path d="M988 2282 c7 -2 -5 -15 -25 -29 -87 -57 -137 -119 -180 -222 -20 -47
-23 -50 -19 -21 9 57 -31 -59 -65 -190 -16 -63 -39 -132 -50 -153 -11 -23 -14
-35 -7 -31 7 4 3 -4 -8 -17 -12 -13 -52 -72 -88 -131 -51 -82 -71 -106 -84
-102 -14 4 -13 3 2 -6 14 -10 20 -10 26 0 5 7 16 14 27 15 10 1 32 5 49 9 17
4 43 2 58 -4 23 -8 31 -7 40 5 12 16 11 19 8 -93 -1 -26 -6 -41 -12 -37 -6 4
-10 -8 -10 -28 0 -19 -7 -40 -14 -47 -11 -8 -12 -18 -6 -35 6 -16 3 -37 -9
-71 -15 -39 -20 -44 -25 -27 -4 11 -4 27 0 36 7 19 -14 87 -27 87 -14 0 -11
-68 3 -72 10 -4 10 -10 0 -32 -7 -15 -8 -25 -3 -21 6 3 15 -4 21 -16 7 -12 8
-19 2 -15 -6 3 -12 3 -15 -1 -2 -5 -2 -3 -1 4 2 7 -3 10 -12 6 -17 -6 -22 -26
-28 -108 -3 -33 -8 -76 -11 -95 -4 -19 -6 -78 -5 -130 1 -103 13 -145 25 -92
3 17 4 36 1 41 -4 5 -2 12 4 16 5 3 10 23 10 43 0 26 3 33 9 23 7 -11 14 2 26
45 33 118 43 150 59 186 16 38 56 188 76 290 10 49 16 59 51 82 22 15 48 36
57 46 20 24 70 26 79 4 4 -10 13 -14 29 -10 26 7 107 -21 99 -34 -3 -5 5 -6
17 -4 13 2 17 2 11 -2 -8 -3 -11 -15 -7 -30 5 -18 2 -24 -10 -24 -9 0 -16 -4
-16 -10 0 -5 11 -10 25 -10 14 0 25 -4 25 -10 0 -5 5 -10 12 -10 9 0 9 3 0 12
-16 16 -15 28 3 28 26 0 16 34 -19 66 -25 23 -47 33 -87 38 -68 9 -123 51
-154 120 -50 110 -58 192 -25 257 18 34 23 38 40 29 10 -5 41 -10 69 -10 43 0
51 3 51 18 0 36 -35 55 -86 48 -47 -6 -47 -6 -29 14 22 24 41 25 88 5 35 -15
68 -21 185 -34 34 -4 68 -13 75 -20 10 -11 9 -13 -6 -8 -30 11 -86 -18 -87
-45 0 -4 27 -13 59 -20 33 -7 60 -17 61 -23 1 -5 7 -16 12 -23 16 -19 12 -92
-7 -138 -9 -21 -18 -43 -19 -49 -4 -20 -35 -72 -49 -84 -12 -9 -14 -29 -11
-84 3 -71 3 -72 -31 -104 -19 -18 -35 -36 -35 -42 0 -5 22 -17 49 -26 27 -9
55 -24 64 -33 17 -19 29 -84 14 -75 -15 9 2 -47 19 -65 11 -10 15 -29 12 -58
-2 -24 1 -39 5 -35 5 5 17 7 26 4 25 -6 57 -172 46 -240 -4 -26 -9 -75 -10
-108 -2 -33 -12 -86 -23 -117 -11 -32 -17 -58 -15 -58 9 0 52 109 64 163 15
64 29 58 19 -9 -8 -53 0 -49 17 9 l13 42 -5 -42 c-4 -32 -2 -43 8 -43 8 0 14
6 14 14 0 26 35 126 44 126 5 0 9 13 9 30 0 71 32 162 36 102 1 -10 2 -30 3
-45 0 -16 5 -25 11 -22 6 4 10 -13 11 -42 l1 -48 9 40 c11 55 10 472 -2 526
-11 46 -3 119 12 119 5 0 9 -7 9 -15 0 -9 6 -12 17 -8 11 4 14 3 9 -5 -4 -7
-1 -12 7 -12 16 0 49 -34 67 -69 19 -37 40 -186 41 -296 1 -55 4 -90 6 -77 4
20 6 20 20 7 12 -12 12 -19 3 -30 -7 -8 -16 -12 -21 -9 -5 3 -9 -12 -9 -34 0
-26 7 -45 20 -57 28 -25 23 -61 -7 -58 -17 2 -21 -1 -16 -14 4 -10 2 -14 -4
-10 -13 8 -23 -24 -23 -75 0 -33 3 -37 33 -43 17 -4 40 -14 50 -23 19 -17 23
-42 6 -42 -5 0 -7 -4 -4 -10 3 -5 39 -10 80 -10 l74 0 -6 35 -6 35 41 0 c26 0
42 -5 46 -15 15 -39 24 -6 25 94 1 108 1 109 -21 103 -17 -4 -20 -2 -15 11 8
20 -4 22 -22 5 -10 -10 -15 -10 -18 -1 -2 6 -29 17 -58 24 -40 9 -63 21 -85
45 -39 44 -39 55 3 43 48 -13 97 -42 97 -56 0 -7 5 -13 10 -13 6 0 9 3 8 8 -5
17 14 52 28 52 8 0 28 -7 44 -15 l30 -16 0 45 c0 44 -12 66 -25 46 -4 -6 -2
-17 4 -24 6 -7 8 -16 4 -19 -11 -11 -43 -8 -43 4 0 6 -7 9 -15 5 -9 -3 -15 0
-15 8 0 8 5 16 11 18 7 2 7 12 -1 32 -6 16 -9 35 -6 41 2 7 -6 17 -20 23 -20
10 -25 8 -34 -8 -6 -11 -18 -20 -26 -20 -11 0 -13 -6 -9 -20 4 -14 2 -20 -9
-20 -9 0 -16 11 -18 27 -2 23 -9 29 -40 34 -29 4 -38 2 -41 -10 -3 -9 -5 -4
-6 10 -1 29 45 69 79 69 12 0 24 9 29 24 11 29 36 39 61 26 15 -8 20 -6 25 10
3 11 11 20 16 20 17 0 9 42 -9 47 -9 2 -26 21 -37 41 -20 37 -20 37 -80 35
-101 -4 -130 -3 -134 8 -2 6 -17 26 -33 45 -17 19 -25 34 -19 34 6 0 -9 33
-33 73 -77 125 -85 158 -96 355 -14 253 -50 435 -83 415 -6 -4 -7 -1 -3 6 8
12 -19 51 -36 51 -12 0 -10 -17 5 -32 55 -58 100 -407 73 -565 -12 -70 -21
-56 -20 30 1 82 1 82 -5 17 -5 -56 -7 -43 -13 85 -3 83 -14 186 -22 230 -20
100 -55 207 -66 200 -4 -3 -7 3 -6 12 0 10 -4 18 -11 18 -6 0 -14 3 -18 7 -4
4 -17 1 -29 -6 -11 -8 -29 -12 -38 -11 -10 2 -18 -2 -18 -8 0 -7 -5 -5 -10 3
-14 22 -12 63 3 57 6 -2 17 3 24 12 10 14 11 12 9 -11 -2 -15 1 -25 5 -22 19
12 -7 74 -31 74 -20 0 -43 -23 -33 -34 4 -3 -2 -13 -13 -22 -10 -8 -14 -13 -9
-11 6 3 15 -10 21 -29 13 -39 12 -39 -68 -23 -84 16 -83 16 -41 52 21 17 50
40 64 49 l24 17 -23 0 c-13 1 -21 -2 -19 -6 3 -5 -6 -16 -19 -26 -18 -13 -24
-15 -24 -4 0 7 5 18 12 25 7 7 8 13 3 13 -26 4 -97 5 -87 1z m72 -56 c0 -3 -4
-8 -10 -11 -5 -3 -10 -1 -10 4 0 6 5 11 10 11 6 0 10 -2 10 -4z m-116 -291 c3
-9 0 -15 -9 -15 -9 0 -12 6 -9 15 4 8 7 15 9 15 2 0 5 -7 9 -15z m-217 -177
c-3 -7 -5 -2 -5 12 0 14 2 19 5 13 2 -7 2 -19 0 -25z m-10 -60 c-3 -8 -6 -5
-6 6 -1 11 2 17 5 13 3 -3 4 -12 1 -19z m0 -70 c-2 -13 -4 -5 -4 17 -1 22 1
32 4 23 2 -10 2 -28 0 -40z m-10 -50 c-3 -8 -6 -5 -6 6 -1 11 2 17 5 13 3 -3
4 -12 1 -19z m700 -90 c-2 -13 -4 -3 -4 22 0 25 2 35 4 23 2 -13 2 -33 0 -45z
m40 -40 c-3 -8 -6 -5 -6 6 -1 11 2 17 5 13 3 -3 4 -12 1 -19z m329 -304 c-3
-9 9 -21 32 -33 30 -16 34 -21 20 -26 -10 -4 -25 -5 -33 -1 -18 7 -53 -29 -62
-64 l-7 -25 -7 25 c-4 14 -7 40 -8 59 -1 29 2 33 19 28 24 -6 28 18 4 27 -13
5 -14 9 -5 20 15 17 54 9 47 -10z m95 -304 c27 -15 25 -50 -2 -50 -25 0 -49
28 -42 47 6 16 18 16 44 3z m97 -274 c4 -17 -13 -45 -21 -35 -2 2 -7 17 -11
32 -6 24 -4 28 11 25 10 -2 19 -12 21 -22z m-222 -33 c-7 -7 -26 7 -26 19 0 6
6 6 15 -2 9 -7 13 -15 11 -17z"/>
<path d="M0 2209 c0 -36 2 -40 15 -29 8 7 15 25 15 41 0 19 -5 29 -15 29 -11
0 -15 -11 -15 -41z"/>
<path d="M190 2201 c0 -6 -7 -11 -15 -11 -19 0 -19 -6 3 -27 9 -10 29 -19 45
-19 21 -2 29 3 33 23 8 29 6 31 -34 39 -21 4 -32 3 -32 -5z"/>
<path d="M165 2117 c-11 -7 -29 -13 -40 -13 -31 1 -58 -30 -46 -53 6 -10 18
-21 26 -25 10 -3 13 -2 10 5 -4 5 11 17 34 26 42 16 56 36 43 59 -6 11 -11 12
-27 1z m-37 -46 c3 -8 -1 -12 -9 -9 -7 2 -15 10 -17 17 -3 8 1 12 9 9 7 -2 15
-10 17 -17z"/>
<path d="M1392 2055 c0 -5 6 -41 13 -80 10 -56 13 -62 13 -30 0 33 -25 141
-26 110z"/>
<path d="M1860 1980 c0 -5 5 -10 10 -10 6 0 10 5 10 10 0 6 -4 10 -10 10 -5 0
-10 -4 -10 -10z"/>
<path d="M1423 1860 c0 -25 2 -35 4 -22 2 12 2 32 0 45 -2 12 -4 2 -4 -23z"/>
<path d="M189 1865 c-1 -11 -1 -28 0 -37 1 -11 -9 -23 -23 -30 -14 -6 -26 -19
-26 -28 0 -10 -7 -23 -15 -30 -22 -18 -18 -29 10 -26 37 4 64 33 63 68 -1 31
18 51 40 43 13 -5 37 43 26 54 -3 3 -21 6 -40 6 -27 0 -34 -4 -35 -20z"/>
<path d="M1760 1810 c0 -5 9 -10 21 -10 11 0 17 5 14 10 -3 6 -13 10 -21 10
-8 0 -14 -4 -14 -10z"/>
<path d="M1880 1810 c0 -5 5 -10 10 -10 6 0 10 5 10 10 0 6 -4 10 -10 10 -5 0
-10 -4 -10 -10z"/>
<path d="M1818 1793 c6 -2 18 -2 25 0 6 3 1 5 -13 5 -14 0 -19 -2 -12 -5z"/>
<path d="M1840 1657 c0 -2 7 -21 15 -41 14 -32 17 -35 41 -26 16 7 32 7 44 0
13 -7 21 -5 31 6 7 8 18 13 26 10 7 -3 13 -1 13 3 0 15 -76 17 -89 3 -15 -15
-36 -11 -36 8 0 7 -10 19 -22 28 -13 8 -23 12 -23 9z"/>
<path d="M1743 1636 c-11 -16 -11 -76 -1 -76 8 0 9 3 12 33 0 6 16 13 34 15
35 4 42 16 15 28 -28 12 -53 12 -60 0z"/>
<path d="M225 1621 c-3 -10 -21 -29 -39 -42 -30 -20 -33 -26 -25 -51 7 -25 5
-28 -15 -28 -32 0 -39 11 -20 31 16 17 15 18 -17 16 -19 -1 -39 -9 -46 -17
-16 -21 2 -50 33 -50 15 0 39 -11 56 -25 36 -30 58 -32 58 -4 0 14 10 24 32
31 30 11 30 12 10 19 -28 11 -28 27 1 38 42 16 64 62 41 86 -22 21 -61 19 -69
-4z m15 -40 c0 -5 -7 -14 -15 -21 -13 -10 -15 -9 -15 9 0 12 6 21 15 21 8 0
15 -4 15 -9z"/>
<path d="M20 1610 c-17 -10 -16 -12 28 -27 29 -10 33 -10 28 3 -3 9 -6 20 -6
25 0 12 -31 11 -50 -1z"/>
<path d="M927 1534 c-9 -10 3 -32 27 -47 19 -13 31 -13 77 -3 l54 13 -31 16
c-33 17 -117 31 -127 21z"/>
<path d="M1700 1481 c-22 -6 -23 -8 -7 -14 10 -4 39 -7 63 -7 43 0 57 -13 35
-35 -11 -11 77 -115 97 -115 7 0 12 -3 12 -7 0 -5 14 -16 31 -25 37 -22 64 -9
73 35 12 61 9 67 -34 67 -22 0 -40 -4 -40 -10 0 -18 -40 -11 -40 8 -1 16 -2
16 -15 -2 -8 -11 -20 -16 -30 -12 -23 9 -13 30 16 34 14 2 29 13 36 28 12 25
11 25 -29 23 -29 -3 -44 1 -53 15 -9 12 -20 16 -33 12 -11 -4 -23 -2 -27 4 -7
11 -18 11 -55 1z m295 -151 c0 -8 -10 -16 -22 -18 -18 -3 -23 2 -23 18 0 16 5
21 23 18 12 -2 22 -10 22 -18z"/>
<path d="M1934 1455 c-16 -11 -12 -13 29 -16 37 -3 47 -1 45 10 -4 18 -52 23
-74 6z"/>
<path d="M1675 1410 c3 -5 11 -10 16 -10 6 0 7 5 4 10 -3 6 -11 10 -16 10 -6
0 -7 -4 -4 -10z"/>
<path d="M195 1391 c-7 -23 -55 -25 -72 -2 -11 15 -12 15 -18 -1 -4 -10 2 -29
16 -47 32 -43 18 -85 -29 -89 -18 -2 -32 1 -32 7 0 6 9 11 20 11 45 0 0 75
-49 82 l-30 4 0 -143 c0 -134 1 -143 19 -143 10 0 21 -4 24 -9 8 -12 -17 -61
-31 -61 -10 0 -13 -69 -13 -310 l0 -310 75 0 75 0 0 28 c0 15 -6 36 -13 47
-20 29 -28 55 -17 55 6 0 10 -8 10 -17 1 -16 2 -16 15 1 8 11 15 14 15 8 0 -8
28 -12 95 -12 94 0 95 0 91 23 -3 12 -8 58 -11 102 -7 88 -43 377 -51 412 -10
39 -77 41 -87 2 -8 -30 -27 -22 -44 19 -8 20 -21 41 -29 45 -22 13 -16 36 12
49 22 10 27 9 35 -5 13 -22 45 -22 57 -1 5 9 14 14 21 10 15 -9 14 -33 -1 -38
-7 -3 -3 -7 9 -10 19 -5 21 0 27 51 10 90 43 135 152 209 10 7 14 10 7 7 -6
-3 -25 6 -41 20 -30 25 -82 34 -82 15 0 -5 8 -10 18 -10 10 0 29 -11 42 -25
l23 -25 -26 0 c-14 0 -38 12 -54 26 -20 18 -36 24 -56 21 -15 -2 -32 2 -38 10
-16 18 -27 16 -34 -6z m42 -114 c3 -3 -3 -6 -13 -6 -11 1 -29 -2 -40 -6 -14
-4 -23 -2 -26 7 -4 10 5 13 34 11 22 0 42 -3 45 -6z m-157 -308 c0 -11 -4 -17
-10 -14 -5 3 -10 13 -10 21 0 8 5 14 10 14 6 0 10 -9 10 -21z m127 -146 c-10
-9 -87 -16 -87 -7 0 5 17 16 38 25 31 13 38 13 45 1 5 -7 7 -16 4 -19z m-117
-13 c6 -11 20 -20 31 -20 24 0 37 -29 18 -41 -19 -12 -32 -11 -24 2 4 6 1 9
-6 8 -8 -1 -31 1 -51 5 -41 9 -50 31 -18 41 11 3 20 11 20 16 0 16 19 10 30
-11z m85 -30 c3 -5 1 -10 -4 -10 -6 0 -11 5 -11 10 0 6 2 10 4 10 3 0 8 -4 11
-10z m105 -6 c0 -8 -4 -12 -10 -9 -5 3 -10 1 -10 -5 0 -6 -4 -8 -10 -5 -18 11
-11 35 10 35 11 0 20 -7 20 -16z"/>
<path d="M1632 1368 c3 -7 15 -14 29 -16 24 -4 24 -3 4 12 -24 19 -38 20 -33
4z"/>
<path d="M999 1174 c-12 -14 -11 -16 5 -13 11 2 21 10 24 17 5 17 -13 15 -29
-4z"/>
<path d="M1992 969 c-10 -29 -10 -42 0 -65 l12 -29 4 33 c2 17 2 47 0 65 l-3
32 -13 -36z"/>
<path d="M958 875 c-3 -3 -37 -7 -74 -7 -62 -1 -65 -2 -29 -9 52 -10 189 -10
240 0 38 8 36 9 -25 10 -36 1 -74 4 -85 7 -11 3 -23 2 -27 -1z"/>
<path d="M1481 714 c0 -11 3 -14 6 -6 3 7 2 16 -1 19 -3 4 -6 -2 -5 -13z"/>
<path d="M1698 423 c7 -3 16 -2 19 1 4 3 -2 6 -13 5 -11 0 -14 -3 -6 -6z"/>
<path d="M1430 350 c0 -6 7 -10 15 -10 8 0 15 2 15 4 0 2 -7 6 -15 10 -8 3
-15 1 -15 -4z"/>
<path d="M375 183 c-19 -11 -25 -18 -16 -21 7 -2 16 0 20 5 3 5 15 15 26 21
31 18 4 13 -30 -5z"/>
<path d="M311 154 c0 -11 3 -14 6 -6 3 7 2 16 -1 19 -3 4 -6 -2 -5 -13z"/>
<path d="M825 149 c-22 -4 -57 -8 -78 -8 -25 -1 -36 -5 -31 -12 3 -6 0 -15 -7
-20 -11 -7 -11 -9 -1 -9 7 0 15 7 18 15 7 18 89 21 100 3 5 -8 76 -9 273 -4
296 7 391 14 391 28 0 6 -11 7 -26 4 -14 -4 -132 -6 -263 -5 -130 1 -255 2
-278 2 -24 0 -43 3 -43 8 0 10 1 10 -55 -2z"/>
<path d="M355 110 c-19 -8 -19 -9 3 -9 12 -1 22 4 22 9 0 6 -1 10 -2 9 -2 0
-12 -4 -23 -9z"/>
<path d="M532 48 c3 -7 22 -14 43 -16 34 -3 37 -2 26 12 -16 19 -75 22 -69 4z"/>
</g>
</svg>
