<?xml version="1.0" standalone="no"?>
<!DOCTYPE svg PUBLIC "-//W3C//DTD SVG 20010904//EN"
 "http://www.w3.org/TR/2001/REC-SVG-20010904/DTD/svg10.dtd">
<svg version="1.0" xmlns="http://www.w3.org/2000/svg"
 width="201.000000pt" height="251.000000pt" viewBox="0 0 201.000000 251.000000"
 preserveAspectRatio="xMidYMid meet">

<g transform="translate(0.000000,251.000000) scale(0.100000,-0.100000)"
fill="#000000" stroke="none">
<path d="M290 2506 c0 -2 9 -48 21 -102 12 -55 25 -118 30 -142 5 -23 13 -50
18 -60 5 -9 14 -49 20 -88 12 -70 12 -72 -23 -165 -20 -52 -36 -103 -35 -114
0 -14 5 -9 15 15 l13 35 -4 -50 -5 -50 14 45 c8 25 14 41 15 36 1 -5 8 -3 16
4 13 11 13 7 1 -34 -8 -26 -22 -58 -31 -72 -14 -21 -16 -43 -11 -127 3 -56 10
-120 15 -142 7 -25 7 -41 1 -43 -6 -2 -10 -13 -11 -25 0 -21 -1 -21 -11 3 -7
15 -12 96 -12 202 -1 98 -4 178 -7 178 -9 0 -19 -27 -19 -51 0 -11 -11 -42
-25 -68 -62 -123 -114 -176 -222 -228 l-53 -24 0 -720 0 -719 904 0 c853 0
905 1 909 17 4 17 5 17 6 1 1 -14 10 -18 36 -18 34 0 34 0 31 40 -3 42 6 53
20 23 9 -23 11 -29 13 -48 1 -10 12 -15 37 -15 32 0 36 2 31 22 -3 13 -9 47
-13 76 -7 52 -8 54 -35 50 -17 -3 -29 0 -29 6 0 6 -6 2 -12 -8 -8 -14 -8 -24
1 -38 9 -14 8 -18 -3 -18 -23 0 -32 21 -45 99 -9 58 -9 76 1 89 9 11 10 16 2
19 -6 2 -9 15 -6 29 3 17 -1 29 -13 38 -46 34 37 118 132 132 l43 6 -1 169
c-1 136 -4 169 -15 169 -8 0 -13 3 -12 8 1 4 -6 23 -14 42 -9 19 -17 29 -17
23 -1 -7 -8 -13 -16 -13 -8 0 -15 -4 -15 -10 0 -5 8 -10 17 -10 9 0 13 -3 10
-7 -4 -3 -3 -11 2 -17 4 -6 11 -22 14 -35 5 -22 4 -23 -38 -17 l-43 7 8 -34
c4 -19 10 -40 14 -46 4 -6 1 -11 -8 -11 -11 0 -16 9 -16 28 0 46 -10 53 -55
38 -22 -8 -70 -17 -107 -21 -67 -7 -81 -18 -33 -27 13 -3 22 -2 20 2 -2 4 13
7 34 6 22 -1 36 -5 33 -10 -3 -5 2 -7 11 -3 13 5 17 1 17 -16 0 -13 5 -28 12
-35 9 -9 9 -12 0 -12 -14 0 -17 -76 -3 -84 4 -3 6 7 5 22 l-4 27 11 -28 c9
-22 8 -32 -4 -45 -8 -9 -17 -26 -20 -37 -3 -12 -5 -4 -6 17 0 20 -5 40 -11 43
-5 3 -10 18 -10 33 -1 23 -2 25 -11 9 -6 -9 -8 -33 -5 -52 3 -19 9 -51 12 -71
6 -38 -7 -58 -54 -83 -14 -7 -19 -17 -16 -29 4 -12 3 -14 -4 -4 -5 8 -19 11
-33 8 -13 -3 -35 -8 -49 -10 -14 -2 -46 -9 -71 -16 -26 -7 -55 -10 -65 -8 -11
2 -23 -2 -29 -9 -6 -8 -40 -15 -80 -18 -61 -4 -65 -3 -30 6 65 16 62 27 -7 24
l-63 -3 53 13 c50 12 78 25 54 25 -6 0 -9 13 -7 30 3 21 1 28 -7 24 -6 -4 -8
-3 -5 3 3 5 24 10 47 11 31 1 40 -2 40 -14 0 -13 3 -14 13 -5 10 8 17 7 25 -1
17 -17 25 -3 12 21 -6 12 -20 21 -31 21 -16 0 -19 4 -14 18 15 36 18 55 8 49
-6 -4 -13 -20 -16 -37 -8 -39 -48 -51 -79 -24 -12 11 -18 13 -14 7 5 -9 2 -11
-7 -7 -8 3 -17 16 -20 29 -2 14 -1 22 3 20 4 -2 15 2 25 9 17 12 17 13 -4 19
-12 3 -19 1 -15 -4 3 -6 -6 -8 -23 -6 -15 2 -34 0 -40 -6 -9 -6 -13 -5 -13 4
0 10 -3 10 -8 3 -10 -15 -101 -34 -140 -29 -34 4 -40 -3 -20 -23 9 -9 9 -12 0
-12 -6 0 -14 11 -18 25 -4 18 -13 25 -30 25 -13 0 -24 -6 -24 -12 0 -10 -3
-10 -9 0 -10 16 -47 11 -44 -5 1 -6 -4 -14 -13 -17 -8 -3 -14 0 -13 7 4 33 -3
47 -28 53 l-27 7 29 23 c16 13 32 21 37 18 4 -3 8 -2 8 3 0 4 12 9 28 10 25 1
25 0 -10 -18 -21 -11 -38 -24 -38 -29 0 -9 87 -25 105 -18 13 4 10 30 -21 166
-14 62 -24 118 -21 125 2 6 7 1 10 -13 50 -223 66 -285 72 -279 2 3 -2 36 -10
74 -23 106 -16 111 11 10 13 -49 22 -74 20 -55 -2 19 -7 43 -11 52 -8 19 27
31 150 52 51 9 69 16 67 27 -3 11 -1 12 9 2 18 -18 40 -16 33 2 -4 8 -12 15
-19 15 -7 0 -17 6 -23 13 -9 11 18 18 141 38 124 20 143 25 102 27 -35 2 -45
6 -35 12 11 7 8 10 -13 10 -15 0 -26 -5 -25 -12 3 -13 -129 -40 -177 -36 -26
3 -30 7 -31 38 -1 19 0 27 3 18 2 -10 12 -17 21 -15 17 2 25 18 15 27 -4 3 -3
-1 2 -9 5 -9 4 -12 -2 -8 -6 4 -8 17 -6 31 3 13 0 27 -6 30 -18 11 -13 24 12
29 l22 4 -22 2 c-18 1 -23 7 -23 29 0 16 3 32 7 35 6 7 12 76 14 172 l2 50 13
-35 c17 -48 17 -89 -1 -124 -19 -36 -12 -46 10 -13 13 20 15 44 11 128 l-4
104 19 -25 c10 -14 23 -30 27 -35 5 -6 12 -17 15 -25 4 -12 6 -12 6 1 1 9 -17
50 -39 92 -46 86 -51 111 -54 247 -1 52 -8 109 -15 125 -6 17 -14 36 -16 43
-3 7 -10 10 -16 6 -7 -4 -7 1 1 16 7 12 8 20 2 16 -5 -3 -13 1 -16 10 -9 23
-7 31 4 14 7 -12 9 -10 7 8 -1 13 -6 21 -14 18 -7 -3 -10 1 -6 10 3 8 -1 14
-10 14 -15 0 -34 35 -29 53 4 13 -38 87 -48 87 -6 0 -9 3 -8 8 4 13 -62 138
-93 175 -36 44 -102 84 -144 88 -16 2 -40 12 -53 23 -19 17 -38 20 -117 21
-52 1 -97 4 -100 6 -2 3 -9 41 -15 85 -6 43 -13 91 -16 107 l-6 27 -154 0
c-85 0 -154 -2 -154 -4z m166 -156 c8 0 14 -5 14 -11 0 -6 11 -20 26 -31 14
-11 22 -23 19 -26 -3 -3 7 -12 22 -19 23 -11 24 -12 5 -9 -12 2 -19 0 -16 -5
6 -10 -77 -102 -85 -94 -2 3 -6 54 -7 113 -1 59 0 101 3 95 2 -7 11 -13 19
-13z m-42 -195 c3 -27 2 -56 -3 -64 -10 -15 -15 5 -26 99 -6 50 -5 53 8 35 8
-11 17 -42 21 -70z m497 -159 c5 -6 9 -32 9 -59 0 -31 4 -46 11 -42 13 9 4
-54 -16 -106 -8 -20 -11 -47 -8 -59 6 -22 7 -22 20 -5 11 16 13 16 13 3 0 -23
49 -60 71 -53 9 3 20 1 23 -4 4 -6 13 -8 21 -5 8 3 21 -6 32 -23 18 -29 40
-54 45 -53 2 0 17 -4 34 -10 30 -10 53 -41 85 -111 16 -35 16 -37 -11 -85 -16
-27 -43 -75 -59 -106 -23 -43 -37 -58 -52 -58 -32 0 -99 -22 -99 -32 0 -5 -6
-8 -12 -7 -7 1 -22 1 -33 0 -19 -2 -18 -3 3 -11 14 -6 22 -18 22 -33 0 -27
-49 -107 -65 -107 -7 0 -44 45 -85 100 -81 112 -127 140 -53 33 26 -38 50 -70
53 -73 3 -3 16 -21 28 -40 11 -19 33 -47 47 -62 23 -25 33 -48 19 -48 -3 0
-14 10 -23 22 -13 15 -20 18 -25 9 -4 -6 -3 -10 4 -9 25 6 53 -71 54 -145 1
-84 -18 -126 -84 -196 -23 -24 -52 -58 -64 -75 -31 -46 -94 -123 -146 -180
-40 -43 -91 -76 -118 -76 -16 0 -20 121 -6 220 20 154 67 357 96 417 6 12 16
86 22 165 9 123 13 143 29 146 26 5 21 16 -20 37 -58 30 -123 86 -150 127 -22
36 -31 79 -46 233 -3 24 3 58 14 85 9 25 20 52 23 60 3 8 4 -1 1 -20 -3 -19
-7 -87 -9 -150 -2 -63 -2 -97 0 -75 7 69 15 107 22 101 3 -4 18 20 32 52 l27
58 88 -4 c73 -3 90 -1 97 12 6 11 19 14 43 11 24 -3 35 1 39 12 4 9 13 13 22
9 14 -5 15 2 8 66 -9 85 -9 106 2 156 5 26 9 31 12 17 2 -11 8 -24 13 -29z
m-98 -66 c6 -22 0 -25 -22 -11 -7 5 -10 14 -7 20 11 17 23 13 29 -9z m-429
-25 c-4 -8 -8 -15 -10 -15 -2 0 -4 7 -4 15 0 8 4 15 10 15 5 0 7 -7 4 -15z
m346 -135 c-9 -6 -9 -9 1 -13 8 -3 4 -6 -9 -6 -19 -1 -21 1 -10 18 7 11 16 17
21 14 5 -3 4 -9 -3 -13z m-326 -336 c3 -8 2 -12 -4 -9 -6 3 -10 10 -10 16 0
14 7 11 14 -7z m-10 -66 c8 -29 14 -54 12 -56 -4 -3 -36 86 -36 100 0 21 10 3
24 -44z m35 28 c7 -8 8 -17 3 -20 -6 -3 -12 3 -15 14 -6 24 -4 25 12 6z m-79
-55 c0 -45 -6 -37 -13 18 -4 29 -2 40 4 30 5 -7 9 -29 9 -48z m-63 -3 c-3 -7
-5 -2 -5 12 0 14 2 19 5 13 2 -7 2 -19 0 -25z m162 -33 c0 -5 -4 -3 -9 5 -5 8
-9 22 -9 30 0 16 17 -16 18 -35z m881 -37 c0 -5 -4 -8 -10 -8 -5 0 -10 10 -10
23 0 18 2 19 10 7 5 -8 10 -18 10 -22z m-789 -21 c-10 -9 -11 -8 -5 6 3 10 9
15 12 12 3 -3 0 -11 -7 -18z m21 -19 c-7 -7 -12 -8 -12 -2 0 14 12 26 19 19 2
-3 -1 -11 -7 -17z m31 2 c-3 -11 -9 -20 -14 -20 -11 0 -11 3 -3 24 9 23 23 20
17 -4z m23 -6 c-4 -9 -9 -15 -11 -12 -3 3 -3 13 1 22 4 9 9 15 11 12 3 -3 3
-13 -1 -22z m-491 -234 c3 -5 2 -10 -4 -10 -5 0 -13 5 -16 10 -3 6 -2 10 4 10
5 0 13 -4 16 -10z m913 -185 c0 -16 -2 -15 -8 5 -4 14 -8 34 -8 45 0 16 2 15
8 -5 4 -14 8 -34 8 -45z m9 -47 c-3 -8 -6 -5 -6 6 -1 11 2 17 5 13 3 -3 4 -12
1 -19z m238 2 c3 -5 1 -10 -4 -10 -6 0 -11 5 -11 10 0 6 2 10 4 10 3 0 8 -4
11 -10z m680 -22 c6 -4 2 -8 -7 -8 -10 0 -18 7 -18 17 0 9 3 12 8 7 4 -5 12
-12 17 -16z m-45 -208 c0 -11 -2 -20 -4 -20 -2 0 -6 9 -9 20 -3 11 -1 20 4 20
5 0 9 -9 9 -20z m-97 -10 c3 -11 1 -18 -4 -14 -5 3 -9 12 -9 20 0 20 7 17 13
-6z m35 -5 c-3 -3 -9 2 -12 12 -6 14 -5 15 5 6 7 -7 10 -15 7 -18z m39 -7 c-3
-8 -6 -5 -6 6 -1 11 2 17 5 13 3 -3 4 -12 1 -19z m-787 -28 c13 -8 13 -10 -2
-10 -9 0 -20 5 -23 10 -8 13 5 13 25 0z m109 -11 c-7 -4 -17 -5 -21 -3 -4 3
-5 -2 -2 -10 3 -9 9 -14 13 -12 4 3 7 -4 8 -14 1 -13 -7 -19 -31 -22 l-32 -4
18 39 c11 21 23 35 28 32 6 -4 10 -1 10 5 0 6 5 8 11 4 8 -4 7 -9 -2 -15z
m-172 -91 c-3 -7 -5 -2 -5 12 0 14 2 19 5 13 2 -7 2 -19 0 -25z m24 -34 c53
-7 66 -23 22 -25 -57 -3 -76 8 -87 51 -6 25 -6 25 5 3 9 -17 24 -24 60 -29z
m179 36 c3 -1 -4 -5 -15 -10 -27 -12 -75 -12 -75 -1 0 5 -8 12 -17 14 -10 3 9
4 42 2 33 -2 62 -4 65 -5z m420 -5 c-14 -16 -50 -21 -50 -6 0 5 12 12 28 14
15 2 29 5 31 6 2 0 -2 -6 -9 -14z m137 -27 c-3 -7 -5 -2 -5 12 0 14 2 19 5 13
2 -7 2 -19 0 -25z m-807 -30 c0 -4 -9 0 -20 9 -11 10 -20 21 -20 25 0 4 9 0
20 -9 11 -10 20 -21 20 -25z m227 -114 c-3 -3 -12 -4 -19 -1 -8 3 -5 6 6 6 11
1 17 -2 13 -5z m713 -100 c0 -22 -16 -17 -17 6 -1 11 2 18 8 15 5 -4 9 -13 9
-21z m-2 -89 c-3 -3 -9 2 -12 12 -6 14 -5 15 5 6 7 -7 10 -15 7 -18z"/>
<path d="M1055 1490 c-16 -44 -33 -80 -38 -80 -4 0 -6 -4 -3 -9 3 -5 -12 -28
-34 -51 -22 -23 -40 -45 -40 -47 0 -13 108 11 126 28 11 10 25 19 30 19 10 0
11 2 20 89 6 50 -10 131 -25 131 -3 0 -19 -36 -36 -80z"/>
<path d="M793 1546 c-10 -11 -4 -16 30 -24 23 -6 49 -10 57 -9 24 4 41 18 35
28 -8 12 -55 12 -55 -1 0 -5 -4 -10 -10 -10 -5 0 -10 7 -10 15 0 19 -31 19
-47 1z"/>
<path d="M1154 1534 c8 -16 17 -49 21 -72 5 -31 10 -41 17 -34 15 15 -8 96
-33 118 -18 17 -19 16 -5 -12z"/>
<path d="M780 1460 c-14 -5 -42 -8 -62 -9 -52 -1 -48 -21 5 -22 23 0 60 -4 82
-8 l40 -9 -43 -1 -43 -1 21 -22 c26 -28 89 -31 114 -5 10 9 28 20 41 23 l24 6
-30 25 c-32 27 -101 38 -149 23z"/>
<path d="M790 1248 c0 -4 24 -7 53 -7 54 1 49 5 -15 11 -21 2 -38 0 -38 -4z"/>
<path d="M880 1016 c0 -2 8 -10 18 -17 15 -13 16 -12 3 4 -13 16 -21 21 -21
13z"/>
<path d="M672 2490 c0 -14 4 -36 8 -50 8 -24 8 -24 8 5 0 17 -3 39 -8 50 -8
18 -9 18 -8 -5z"/>
<path d="M1154 2499 c-10 -17 14 -35 28 -21 9 9 9 12 -2 12 -13 0 -13 2 0 10
13 8 13 10 -2 10 -9 0 -20 -5 -24 -11z"/>
<path d="M1210 2500 c0 -5 4 -10 9 -10 6 0 13 5 16 10 3 6 -1 10 -9 10 -9 0
-16 -4 -16 -10z"/>
<path d="M1110 2475 c0 -16 5 -23 13 -19 7 2 13 13 13 24 0 11 -6 20 -13 20
-7 0 -13 -11 -13 -25z"/>
<path d="M1590 2468 c0 -11 7 -18 18 -18 13 0 14 2 3 9 -11 7 -10 11 5 19 18
10 17 11 -3 9 -15 -1 -23 -8 -23 -19z"/>
<path d="M1054 2465 c-3 -8 -3 -19 1 -25 9 -14 45 6 45 25 0 19 -39 19 -46 0z
m31 -5 c3 -5 1 -10 -4 -10 -6 0 -11 5 -11 10 0 6 2 10 4 10 3 0 8 -4 11 -10z"/>
<path d="M1540 2468 c0 -7 5 -20 10 -28 8 -13 11 -13 22 -1 11 11 11 13 -1 6
-11 -6 -13 -3 -9 13 4 15 2 22 -8 22 -8 0 -14 -6 -14 -12z"/>
<path d="M955 2464 c-6 -2 -9 -20 -7 -38 4 -33 6 -34 28 -24 25 12 30 23 14
33 -5 3 -7 12 -3 20 5 15 -10 19 -32 9z m25 -8 c0 -3 -4 -8 -10 -11 -5 -3 -10
-1 -10 4 0 6 5 11 10 11 6 0 10 -2 10 -4z m5 -36 c-3 -5 -10 -10 -16 -10 -5 0
-9 5 -9 10 0 6 7 10 16 10 8 0 12 -4 9 -10z"/>
<path d="M1017 2464 c-10 -11 -8 -44 2 -44 6 0 13 4 16 10 8 12 -9 43 -18 34z"/>
<path d="M1509 2468 c-8 -16 -3 -45 8 -45 9 0 10 4 4 10 -5 5 -7 16 -4 23 4
11 -3 21 -8 12z"/>
<path d="M1360 2436 c0 -2 7 -7 16 -10 8 -3 12 -2 9 4 -6 10 -25 14 -25 6z"/>
<path d="M1297 2389 c-3 -12 -2 -30 4 -38 8 -12 8 -10 3 8 -4 16 -3 21 5 17
13 -8 14 3 2 22 -6 10 -10 8 -14 -9z"/>
<path d="M692 2380 c0 -14 2 -19 5 -12 2 6 2 18 0 25 -3 6 -5 1 -5 -13z"/>
<path d="M1381 2383 c0 -10 3 -13 5 -6 3 7 13 9 22 6 15 -4 15 -3 2 6 -22 15
-30 14 -29 -6z"/>
<path d="M1140 2356 c0 -2 9 -6 20 -9 11 -3 18 -1 14 4 -5 9 -34 13 -34 5z"/>
<path d="M1211 2336 c-9 -11 -9 -16 0 -22 8 -5 9 -3 4 6 -6 10 -4 12 8 7 11
-4 14 -2 10 9 -6 17 -8 17 -22 0z"/>
<path d="M1255 2340 c-3 -5 -1 -10 4 -10 6 0 11 5 11 10 0 6 -2 10 -4 10 -3 0
-8 -4 -11 -10z"/>
<path d="M1665 2319 c-4 -6 -4 -13 -1 -16 3 -4 6 -1 6 5 0 6 8 13 18 15 15 4
15 5 0 6 -9 0 -20 -4 -23 -10z"/>
<path d="M1545 2280 c-3 -5 -1 -10 4 -10 6 0 11 5 11 10 0 6 -2 10 -4 10 -3 0
-8 -4 -11 -10z"/>
<path d="M1620 2279 c0 -6 -6 -9 -13 -6 -8 3 -14 -1 -14 -7 0 -10 7 -11 28 -3
15 6 26 15 23 19 -8 12 -24 10 -24 -3z"/>
<path d="M1668 2283 c7 -3 16 -2 19 1 4 3 -2 6 -13 5 -11 0 -14 -3 -6 -6z"/>
<path d="M1550 2249 c0 -5 5 -7 10 -4 6 3 10 8 10 11 0 2 -4 4 -10 4 -5 0 -10
-5 -10 -11z"/>
<path d="M1400 2211 c0 -6 -7 -8 -15 -5 -8 4 -15 2 -15 -3 0 -12 38 -14 45 -3
3 5 1 11 -5 15 -5 3 -10 2 -10 -4z"/>
<path d="M1666 2154 c-5 -14 -4 -15 9 -4 17 14 19 20 6 20 -5 0 -12 -7 -15
-16z"/>
<path d="M1627 2153 c-4 -3 -7 -11 -7 -17 0 -6 5 -5 12 2 6 6 9 14 7 17 -3 3
-9 2 -12 -2z"/>
<path d="M1780 2150 c-9 -6 -10 -10 -3 -10 6 0 15 5 18 10 8 12 4 12 -15 0z"/>
<path d="M1710 2140 c0 -5 10 -10 23 -10 18 0 19 2 7 10 -19 13 -30 13 -30 0z"/>
<path d="M1630 2110 c-6 -11 -8 -20 -6 -20 3 0 10 9 16 20 6 11 8 20 6 20 -3
0 -10 -9 -16 -20z"/>
<path d="M1575 2100 c3 -5 8 -10 11 -10 2 0 4 5 4 10 0 6 -5 10 -11 10 -5 0
-7 -4 -4 -10z"/>
<path d="M1670 2100 c0 -5 5 -10 11 -10 5 0 7 5 4 10 -3 6 -8 10 -11 10 -2 0
-4 -4 -4 -10z"/>
<path d="M1580 2070 c-9 -6 -10 -10 -3 -10 6 0 15 5 18 10 8 12 4 12 -15 0z"/>
<path d="M1799 1953 c-13 -16 -12 -17 4 -4 9 7 17 15 17 17 0 8 -8 3 -21 -13z"/>
<path d="M1815 1940 c-3 -6 1 -7 9 -4 18 7 21 14 7 14 -6 0 -13 -4 -16 -10z"/>
<path d="M1636 1931 c-4 -5 3 -7 14 -4 23 6 26 13 6 13 -8 0 -17 -4 -20 -9z"/>
<path d="M1758 1923 c7 -3 16 -2 19 1 4 3 -2 6 -13 5 -11 0 -14 -3 -6 -6z"/>
<path d="M1210 1860 c6 -11 13 -20 16 -20 2 0 0 9 -6 20 -6 11 -13 20 -16 20
-2 0 0 -9 6 -20z"/>
<path d="M1400 1860 c-9 -6 -10 -10 -3 -10 6 0 15 5 18 10 8 12 4 12 -15 0z"/>
<path d="M1823 1775 c-3 -9 -3 -19 1 -22 3 -4 6 1 6 11 0 10 5 14 12 10 7 -4
8 -3 4 4 -10 16 -15 15 -23 -3z"/>
<path d="M1725 1740 c10 -11 20 -20 23 -20 3 0 -3 9 -13 20 -10 11 -20 20 -23
20 -3 0 3 -9 13 -20z"/>
<path d="M1760 1751 c0 -6 4 -13 10 -16 6 -3 7 1 4 9 -7 18 -14 21 -14 7z"/>
<path d="M1607 1720 c-3 -11 -3 -20 -1 -20 2 0 8 9 14 20 6 11 7 20 2 20 -6 0
-12 -9 -15 -20z"/>
<path d="M1566 1685 c-11 -8 -15 -15 -9 -15 6 0 16 7 23 15 16 19 11 19 -14 0z"/>
<path d="M1840 1580 c0 -5 5 -10 11 -10 5 0 7 5 4 10 -3 6 -8 10 -11 10 -2 0
-4 -4 -4 -10z"/>
<path d="M1760 1565 c-11 -13 -11 -18 0 -28 10 -9 11 -9 6 1 -4 6 -3 12 2 12
5 0 9 7 9 15 0 19 -2 19 -17 0z"/>
<path d="M1835 1550 c-16 -7 -17 -9 -3 -9 9 -1 20 4 23 9 7 11 7 11 -20 0z"/>
<path d="M1620 1504 c-17 -9 -20 -14 -9 -14 9 0 22 7 29 15 15 18 13 18 -20
-1z"/>
<path d="M1562 1494 c-7 -8 -8 -14 -3 -14 10 0 25 19 20 25 -2 1 -10 -3 -17
-11z"/>
<path d="M1520 1340 c-6 -11 -8 -20 -6 -20 3 0 10 9 16 20 6 11 8 20 6 20 -3
0 -10 -9 -16 -20z"/>
<path d="M1480 1333 c0 -10 4 -14 8 -8 4 6 11 13 16 18 5 4 2 7 -7 7 -10 0
-17 -8 -17 -17z"/>
<path d="M1625 1340 c-3 -5 -2 -10 4 -10 5 0 13 5 16 10 3 6 2 10 -4 10 -5 0
-13 -4 -16 -10z"/>
<path d="M1525 1290 c3 -5 11 -10 16 -10 6 0 7 5 4 10 -3 6 -11 10 -16 10 -6
0 -7 -4 -4 -10z"/>
<path d="M1687 1170 c3 -11 9 -17 14 -14 5 3 7 9 4 14 -3 5 5 11 17 13 17 3
15 5 -9 6 -26 1 -30 -2 -26 -19z"/>
<path d="M1813 1158 c0 -21 3 -26 20 -22 28 5 29 8 11 30 -8 10 -13 13 -9 7 3
-7 2 -13 -4 -13 -5 0 -11 6 -14 13 -2 6 -4 0 -4 -15z"/>
<path d="M1389 1126 c6 -7 12 -25 13 -40 2 -19 8 -26 23 -26 18 1 19 1 2 11
-9 6 -15 14 -12 19 7 11 -16 50 -29 50 -4 0 -3 -6 3 -14z"/>
<path d="M1567 1133 c-11 -10 -8 -43 3 -43 5 0 7 7 3 16 -3 9 0 20 8 25 8 5 9
9 3 9 -6 0 -14 -3 -17 -7z"/>
<path d="M1700 1127 c0 -10 8 -17 18 -17 9 0 13 4 7 8 -5 4 -13 11 -17 16 -5
5 -8 2 -8 -7z"/>
<path d="M1505 1121 c-6 -11 13 -26 22 -17 4 3 0 6 -8 6 -11 0 -11 2 1 10 9 6
10 10 3 10 -6 0 -14 -4 -18 -9z"/>
<path d="M1597 1115 c-8 -20 -4 -29 11 -24 5 2 6 13 2 23 -6 19 -7 19 -13 1z"/>
<path d="M1450 1105 c-9 -11 -9 -15 -1 -15 7 0 10 -4 7 -8 -2 -4 4 -9 15 -9
10 -1 19 2 19 8 0 5 -5 8 -11 7 -6 -2 -14 3 -17 11 -3 9 0 11 8 6 9 -5 11 -4
6 3 -9 15 -11 15 -26 -3z"/>
<path d="M1525 1090 c-16 -7 -17 -9 -3 -9 9 -1 20 4 23 9 7 11 7 11 -20 0z"/>
<path d="M1934 1041 c3 -5 -1 -12 -10 -15 -8 -3 -12 -2 -9 4 3 6 -3 10 -14 10
-34 0 -120 -23 -115 -31 2 -4 0 -10 -6 -14 -5 -3 -10 1 -10 11 0 13 -6 15 -31
10 -17 -3 -40 -6 -50 -6 -11 0 -18 -6 -16 -12 1 -7 -8 -14 -20 -16 -13 -2 -23
-8 -23 -13 0 -6 5 -7 11 -3 8 5 8 1 0 -13 -7 -14 -7 -23 0 -30 7 -7 5 -12 -6
-17 -9 -3 -13 -2 -10 4 9 14 -27 59 -47 60 -21 0 -22 -9 -7 -30 9 -12 10 -12
5 4 -6 16 -4 17 9 6 17 -14 21 -50 5 -50 -5 0 -10 -5 -10 -11 0 -6 9 -8 23 -3
32 11 52 10 55 -1 1 -5 -11 -12 -27 -15 -22 -4 -28 -9 -22 -18 6 -10 26 -10
102 2 52 8 106 19 122 23 26 8 26 9 7 21 -17 10 -20 10 -20 -3 0 -8 -5 -15
-11 -15 -5 0 -7 5 -4 10 3 6 0 10 -7 10 -16 0 -18 54 -2 70 8 8 9 2 6 -19 -4
-29 -3 -30 32 -29 20 1 36 5 36 10 0 8 -15 12 -33 9 -4 -1 -3 8 3 19 6 11 7
20 3 20 -4 0 -1 5 7 10 13 9 13 11 0 20 -12 8 -11 10 8 10 13 0 20 -4 17 -10
-6 -9 22 -15 53 -11 6 1 12 -4 12 -11 0 -9 3 -9 11 2 9 12 10 11 6 -5 -3 -11
-8 -27 -11 -36 -6 -13 -2 -16 18 -12 14 3 23 9 20 14 -3 5 -10 7 -15 4 -13 -9
2 27 19 44 12 13 12 16 -2 26 -9 7 -13 15 -9 18 3 4 -6 7 -21 7 -15 0 -25 -4
-22 -9z m-197 -45 c-15 -7 -24 -16 -20 -20 4 -4 0 -4 -10 0 -23 8 -22 13 6 24
34 13 56 10 24 -4z m31 -42 c-3 -14 -5 -12 -10 9 -3 19 -2 25 4 19 6 -6 8 -18
6 -28z m53 -1 c-12 -20 -14 -14 -5 12 4 9 9 14 11 11 3 -2 0 -13 -6 -23z
m-142 -23 c0 -10 -3 -8 -9 5 -12 27 -12 43 0 25 5 -8 9 -22 9 -30z m48 -12
c-3 -7 -5 -2 -5 12 0 14 2 19 5 13 2 -7 2 -19 0 -25z"/>
<path d="M1505 980 c-55 -11 -116 -20 -135 -21 -22 -1 -27 -3 -14 -6 41 -8 36
-57 -5 -58 -17 0 -28 -25 -12 -25 6 0 11 5 11 12 0 6 3 8 7 5 3 -4 12 -2 20 4
10 9 13 7 13 -9 0 -15 5 -20 15 -16 8 4 15 1 15 -5 0 -6 10 -1 21 10 16 16 23
18 29 9 5 -8 15 -10 26 -6 10 4 21 1 26 -6 8 -10 11 -10 15 0 2 6 11 12 18 12
11 0 11 7 2 38 -6 20 -16 40 -21 44 -6 4 1 9 15 12 100 20 113 24 84 24 -16 0
-75 -8 -130 -18z m22 -82 c-3 -8 -6 -5 -6 6 -1 11 2 17 5 13 3 -3 4 -12 1 -19z
m-106 -15 c13 -16 12 -17 -3 -4 -17 13 -22 21 -14 21 2 0 10 -8 17 -17z"/>
<path d="M2002 980 c0 -14 2 -19 5 -12 2 6 2 18 0 25 -3 6 -5 1 -5 -13z"/>
<path d="M1616 957 c3 -10 9 -15 12 -12 3 3 0 11 -7 18 -10 9 -11 8 -5 -6z"/>
<path d="M1355 860 c-16 -7 -17 -9 -3 -9 9 -1 20 4 23 9 7 11 7 11 -20 0z"/>
<path d="M1410 740 c-13 -8 -13 -10 2 -10 9 0 20 5 23 10 8 13 -5 13 -25 0z"/>
<path d="M1660 696 c0 -11 3 -16 7 -13 3 4 11 3 18 -3 8 -6 11 -2 11 13 0 15
-6 23 -18 23 -11 0 -18 -8 -18 -20z"/>
<path d="M1408 703 c6 -3 12 -16 12 -29 0 -14 7 -27 16 -31 8 -3 13 -11 11
-18 -4 -8 5 -10 31 -6 35 6 37 8 37 46 l0 40 -60 1 c-33 1 -54 -1 -47 -3z"/>
<path d="M1602 680 c0 -14 2 -19 5 -12 2 6 2 18 0 25 -3 6 -5 1 -5 -13z"/>
<path d="M1631 684 c0 -11 3 -14 6 -6 3 7 2 16 -1 19 -3 4 -6 -2 -5 -13z"/>
<path d="M1230 680 c0 -6 -7 -10 -16 -8 -21 4 -45 -32 -26 -39 10 -4 9 -11 -4
-31 l-16 -25 83 7 c46 4 88 11 93 16 5 5 10 28 10 50 l1 40 -62 0 c-37 0 -63
-4 -63 -10z m72 -11 c21 -11 21 -12 -3 -25 -28 -16 -42 -18 -34 -5 3 5 1 12
-5 16 -15 9 -12 25 6 25 8 0 25 -5 36 -11z m-88 -15 c3 -8 2 -12 -4 -9 -6 3
-10 10 -10 16 0 14 7 11 14 -7z"/>
<path d="M1720 620 c0 -5 5 -10 10 -10 6 0 10 5 10 10 0 6 -4 10 -10 10 -5 0
-10 -4 -10 -10z"/>
<path d="M1710 585 c0 -8 4 -15 9 -15 5 0 11 7 15 15 3 9 0 15 -9 15 -8 0 -15
-7 -15 -15z"/>
<path d="M1399 541 c-22 -18 -22 -21 -9 -35 14 -14 16 -12 26 19 6 19 10 35 9
35 -2 0 -13 -9 -26 -19z"/>
<path d="M1726 528 c-9 -34 -7 -68 3 -68 5 0 9 20 9 45 -1 51 -3 55 -12 23z"/>
<path d="M1410 450 c0 -6 -6 -8 -12 -4 -10 6 -10 4 0 -7 9 -9 15 -10 23 -2 8
8 8 13 0 17 -6 4 -11 2 -11 -4z"/>
<path d="M1510 437 c0 -5 -11 -7 -25 -4 -17 3 -29 -1 -35 -12 -15 -29 5 -46
55 -45 52 1 69 12 55 34 -8 13 -10 12 -10 -2 0 -10 -4 -18 -9 -18 -5 0 -7 9
-4 20 3 11 10 20 16 20 6 0 7 3 3 7 -10 11 -46 11 -46 0z"/>
<path d="M1400 400 c-12 -8 -11 -10 8 -10 12 0 22 5 22 10 0 13 -11 13 -30 0z"/>
<path d="M1408 363 c6 -2 18 -2 25 0 6 3 1 5 -13 5 -14 0 -19 -2 -12 -5z"/>
<path d="M1909 358 c6 -7 17 -13 24 -13 7 0 11 -11 9 -27 -2 -14 2 -29 8 -33
16 -10 62 3 55 15 -4 7 -13 6 -25 0 -25 -14 -30 -13 -24 5 4 9 15 13 30 11 39
-7 27 8 -25 32 -55 25 -71 28 -52 10z"/>
<path d="M1872 328 c-6 -8 -6 -22 -1 -36 12 -32 53 -27 57 7 5 35 -34 55 -56
29z m38 -29 c0 -6 -4 -7 -10 -4 -5 3 -10 11 -10 16 0 6 5 7 10 4 6 -3 10 -11
10 -16z"/>
<path d="M1850 260 c0 -5 5 -10 10 -10 6 0 10 5 10 10 0 6 -4 10 -10 10 -5 0
-10 -4 -10 -10z"/>
<path d="M1991 113 c0 -5 4 -17 9 -28 8 -18 9 -17 9 8 1 15 -3 27 -9 27 -5 0
-10 -3 -9 -7z"/>
</g>
</svg>
