<?xml version="1.0" standalone="no"?>
<!DOCTYPE svg PUBLIC "-//W3C//DTD SVG 20010904//EN"
 "http://www.w3.org/TR/2001/REC-SVG-20010904/DTD/svg10.dtd">
<svg version="1.0" xmlns="http://www.w3.org/2000/svg"
 width="225.000000pt" height="225.000000pt" viewBox="0 0 225.000000 225.000000"
 preserveAspectRatio="xMidYMid meet">

<g transform="translate(0.000000,225.000000) scale(0.100000,-0.100000)"
fill="#000000" stroke="none">
<path d="M980 2227 c-38 -8 -60 -25 -137 -102 -100 -100 -123 -140 -176 -291
-40 -114 -64 -250 -67 -374 -1 -46 -4 -88 -6 -92 -2 -4 0 -53 5 -109 8 -85 7
-108 -6 -143 -24 -61 -29 -62 -69 -22 -35 35 -61 44 -34 11 10 -13 9 -15 -8
-15 -12 0 -39 -18 -61 -40 -22 -22 -41 -40 -44 -40 -2 0 -24 7 -47 15 -49 17
-61 19 -40 5 9 -6 11 -10 3 -10 -7 0 -10 -6 -7 -14 4 -9 -9 -15 -47 -19 -29
-4 -57 -12 -63 -18 -8 -9 -1 -10 31 -5 23 3 48 9 57 12 9 3 16 1 16 -5 0 -6
-6 -11 -12 -11 -7 0 -20 -4 -28 -10 -12 -7 -9 -15 17 -47 28 -35 29 -41 18
-63 -13 -26 -31 -104 -40 -182 -4 -27 -10 -48 -14 -48 -5 0 -38 -20 -74 -45
-37 -25 -70 -45 -76 -45 -5 0 -23 -14 -40 -31 -28 -28 -31 -37 -31 -93 0 -56
4 -69 40 -124 22 -34 37 -63 35 -63 -20 -5 -28 -7 -50 -8 -25 -1 -25 -1 -25
-101 l0 -100 1125 0 1125 0 0 463 c0 302 -4 457 -10 447 -6 -10 -10 -11 -10
-2 0 7 -14 12 -35 12 -31 0 -35 -3 -35 -25 0 -16 -11 -35 -27 -49 -23 -20 -27
-30 -24 -70 2 -36 -1 -46 -13 -46 -12 0 -16 10 -16 40 0 22 -4 40 -10 40 -5 0
-10 -18 -10 -40 0 -22 5 -40 10 -40 6 0 10 -7 10 -15 0 -11 -11 -15 -40 -15
-22 0 -40 -4 -40 -9 0 -6 -23 -11 -52 -13 -30 -2 -53 -8 -56 -15 -2 -7 3 -13
12 -13 9 0 16 -7 16 -16 0 -14 -3 -14 -15 -4 -9 7 -18 10 -22 7 -3 -4 -12 -2
-20 5 -26 21 -37 -5 -23 -56 15 -55 5 -161 -16 -161 -25 0 -86 68 -123 137
-35 65 -40 81 -31 99 7 11 9 27 6 35 -3 8 -2 12 3 9 12 -7 21 8 27 43 3 15 11
45 19 67 14 36 19 71 25 175 l2 35 9 -30 c6 -22 7 -12 5 37 -2 37 0 88 5 114
9 49 -12 222 -34 274 -5 14 -9 30 -8 37 1 6 -8 35 -19 64 -12 29 -27 77 -35
108 -45 183 -69 263 -94 316 -30 66 -94 141 -111 130 -5 -3 -10 -1 -10 5 0 7
-8 9 -21 5 -22 -7 -75 10 -97 32 -7 7 -18 16 -25 20 -25 17 -72 74 -54 68 27
-11 20 10 -8 23 -27 13 -105 16 -141 6 -16 -4 -19 -11 -16 -36 3 -21 1 -29 -7
-24 -7 5 -9 1 -5 -8 4 -11 14 -14 30 -10 20 5 24 2 25 -17 1 -17 3 -19 6 -6 9
35 29 16 23 -23 -1 -8 1 -12 6 -8 8 9 33 -21 34 -39 0 -22 -17 -14 -25 10 l-7
22 -7 -24 c-6 -22 -7 -20 -24 18 -16 36 -20 39 -33 26 -20 -20 -24 -19 -57 9
l-28 25 20 20 c26 26 27 41 4 41 -14 1 -12 4 7 15 l25 14 -30 -1 c-16 0 -50
-5 -75 -11z m301 -112 c13 -11 24 -27 24 -35 -1 -8 3 -21 8 -27 5 -7 7 -20 3
-28 -3 -8 -2 -15 3 -15 4 0 8 -7 8 -15 0 -8 -2 -14 -3 -12 -15 15 -94 142 -94
151 0 10 28 -1 51 -19z m50 -185 c17 -28 35 -48 40 -45 5 4 6 -1 3 -9 -3 -9
-2 -16 3 -16 5 0 9 -8 9 -17 1 -10 4 -25 8 -34 5 -12 0 -18 -23 -22 -16 -4
-34 -15 -40 -25 -9 -17 -7 -19 32 -15 23 2 50 5 60 7 37 9 5 -12 -39 -24 -25
-7 -59 -24 -75 -38 -16 -13 -29 -19 -29 -12 0 6 -4 9 -9 6 -5 -3 -14 1 -21 9
-9 11 -10 42 -5 117 8 109 12 128 26 107 8 -13 13 8 12 49 -1 25 18 10 48 -38z
m-171 -72 c-13 -76 -33 -128 -50 -128 -22 0 -14 52 15 110 13 25 27 58 31 73
13 55 16 17 4 -55z m245 -154 c-22 -8 -44 -20 -50 -26 -7 -7 -7 -9 1 -5 6 3
11 0 11 -8 0 -8 -4 -12 -8 -10 -13 8 -38 -6 -41 -23 -6 -26 21 -41 53 -30 16
6 45 6 71 1 42 -8 43 -10 49 -53 8 -55 -6 -70 -67 -70 -49 0 -94 31 -97 67 0
12 -4 20 -8 17 -10 -6 -19 23 -19 65 0 55 46 89 120 89 20 1 17 -2 -15 -14z
m-218 -70 c3 -9 0 -34 -7 -57 -7 -23 -17 -56 -22 -73 -6 -21 -20 -37 -41 -48
-18 -8 -25 -16 -17 -16 9 0 25 7 36 15 12 8 25 11 29 7 5 -4 5 -1 1 6 -4 6 -3
12 2 12 9 0 26 32 48 93 7 21 9 35 4 32 -6 -3 -10 3 -10 14 0 18 35 40 46 29
2 -3 8 -28 14 -56 5 -29 17 -67 27 -84 9 -18 16 -37 15 -41 -1 -5 3 -5 9 -1 6
3 16 0 21 -7 7 -10 9 -8 5 8 -4 20 -2 21 21 12 15 -6 49 -9 77 -8 l50 3 -2
-56 c-3 -79 -24 -143 -72 -217 -22 -35 -41 -72 -41 -82 0 -21 -43 -54 -90 -67
-19 -6 -29 -11 -22 -11 17 -1 8 -267 -12 -346 -9 -32 -16 -75 -16 -93 0 -31 2
-34 25 -30 21 4 24 2 20 -12 -3 -9 1 -23 10 -30 21 -18 19 -35 -6 -37 -30 -3
-33 -9 -15 -35 9 -12 16 -32 16 -43 0 -11 9 -45 21 -75 11 -30 23 -80 26 -110
2 -30 7 -74 10 -97 6 -48 3 -50 -38 -26 -33 20 -40 40 -8 23 11 -7 23 -9 27
-6 3 3 1 6 -5 6 -6 0 -16 13 -23 30 -7 16 -20 30 -29 30 -9 0 -12 3 -6 8 12 8
16 44 5 37 -5 -3 -18 7 -29 22 -11 16 -25 33 -30 39 -14 17 -20 45 -26 119 -4
38 -11 73 -17 76 -8 5 -4 22 10 53 12 25 22 49 22 54 0 14 -25 62 -32 62 -5 0
-8 6 -8 13 0 6 -13 27 -30 45 -31 36 -65 122 -62 161 2 24 -26 81 -41 81 -4 0
-5 5 -2 10 3 6 2 10 -4 10 -7 0 -7 8 -2 23 7 17 6 24 -4 24 -8 0 -11 -7 -7
-16 3 -9 2 -13 -2 -10 -14 13 -64 169 -54 169 5 0 12 -9 15 -20 3 -11 10 -20
15 -20 5 0 7 -4 4 -9 -3 -5 1 -11 9 -15 8 -3 15 -11 15 -18 0 -10 -3 -9 -9 1
-7 10 -9 7 -8 -12 2 -33 3 -33 21 1 14 28 11 82 -5 82 -5 0 -9 5 -9 11 0 6
-11 25 -25 44 -29 37 -62 123 -70 181 -11 78 -12 115 -4 120 5 3 9 1 9 -4 0
-16 57 -72 72 -72 7 1 2 7 -12 15 -31 16 -53 55 -48 81 2 14 13 19 39 20 44 2
158 34 165 46 3 5 -1 17 -10 27 -21 23 -20 29 7 33 27 5 56 -8 64 -28z m246
11 c-3 -9 -8 -14 -10 -11 -3 3 -2 9 2 15 9 16 15 13 8 -4z m-328 -35 c3 -5 4
-10 1 -10 -2 0 -12 -3 -20 -6 -12 -5 -15 -2 -10 10 7 18 20 21 29 6z m-108
-22 c-3 -8 -6 -5 -6 6 -1 11 2 17 5 13 3 -3 4 -12 1 -19z m-163 -174 c3 -8 2
-12 -4 -9 -6 3 -10 10 -10 16 0 14 7 11 14 -7z m24 -46 c15 -15 16 -45 1 -54
-14 -8 -29 14 -29 44 0 24 10 28 28 10z m881 -69 c0 8 3 12 6 9 8 -7 -5 -38
-16 -38 -5 0 -8 17 -8 38 1 37 1 37 9 7 4 -16 8 -24 9 -16z m16 -168 c-12 -62
-17 -23 -9 61 9 81 9 81 12 28 2 -30 0 -70 -3 -89z m-18 87 c-3 -7 -5 -2 -5
12 0 14 2 19 5 13 2 -7 2 -19 0 -25z m-1397 -213 c7 -8 8 -15 2 -15 -5 0 -15
7 -22 15 -7 8 -8 15 -2 15 5 0 15 -7 22 -15z m1544 -450 c-4 -8 -8 -15 -10
-15 -2 0 -4 7 -4 15 0 8 4 15 10 15 5 0 7 -7 4 -15z m-717 -107 c-3 -8 -6 -5
-6 6 -1 11 2 17 5 13 3 -3 4 -12 1 -19z m646 -126 c-6 -25 -31 -26 -43 -2 -4
8 -14 37 -23 63 l-15 49 44 -44 c34 -34 42 -49 37 -66z m-347 -57 c7 -30 -2
-75 -16 -75 -19 0 -30 48 -18 75 14 32 26 32 34 0z"/>
<path d="M1250 2126 c0 -2 8 -10 18 -17 15 -13 16 -12 3 4 -13 16 -21 21 -21
13z"/>
<path d="M1018 1433 c12 -2 32 -2 45 0 12 2 2 4 -23 4 -25 0 -35 -2 -22 -4z"/>
<path d="M1297 1423 c-12 -12 -7 -22 8 -17 8 4 15 10 15 15 0 11 -14 12 -23 2z"/>
<path d="M1210 1409 c0 -5 5 -7 10 -4 6 3 10 8 10 11 0 2 -4 4 -10 4 -5 0 -10
-5 -10 -11z"/>
<path d="M1260 1301 c-30 -10 -68 -25 -85 -34 l-30 -17 30 4 c17 2 35 5 40 6
24 5 45 -1 45 -14 0 -9 8 -12 25 -8 28 5 35 -14 8 -21 -10 -2 -4 -3 12 -1 36
5 79 35 83 58 2 11 -8 21 -32 31 -19 8 -37 15 -38 14 -2 0 -28 -9 -58 -18z
m60 -41 c0 -5 -4 -10 -10 -10 -5 0 -10 5 -10 10 0 6 5 10 10 10 6 0 10 -4 10
-10z"/>
<path d="M1404 2122 c16 -17 32 -30 34 -27 5 4 -12 22 -43 45 -11 8 -7 0 9
-18z"/>
<path d="M2160 1090 c0 -22 -4 -40 -10 -40 -5 0 -10 -18 -10 -40 0 -33 3 -40
20 -40 18 0 20 7 20 80 0 47 -4 80 -10 80 -5 0 -10 -18 -10 -40z"/>
<path d="M1740 695 c0 -3 11 -10 25 -15 14 -5 25 -16 25 -24 0 -7 7 -20 17
-27 14 -12 15 -12 10 1 -4 8 -10 22 -13 31 -7 20 -64 50 -64 34z"/>
</g>
</svg>
